# Blender 3.6.22
# www.blender.org
mtllib CaveWalls1_A_COL.mtl
o CaveWalls1_A.001
v -5.633186 -15.540971 1.455304
v 3.614736 -15.959735 4.307412
v 5.100280 -15.858690 -3.748800
v -3.922285 -13.163258 -3.687811
v 0.271046 -7.148446 -5.475275
v 4.875615 1.308779 -3.623462
v -1.282510 -9.425950 5.347136
v -4.817014 14.294991 -2.899235
v 5.800451 15.075473 -3.166378
v 3.410261 -0.854716 4.835343
v -5.999033 15.773221 1.080202
v 0.707450 16.079800 -5.308048
v 1.960878 14.841607 5.810082
vn 0.1883 -0.8664 -0.4625
vn -0.0879 -0.9927 0.0826
vn -0.1405 -0.9900 0.0143
vn -0.4733 -0.4708 -0.7445
vn -0.0125 -0.9133 -0.4070
vn -0.3804 -0.9109 -0.1598
vn 0.0317 -0.3060 -0.9515
vn 0.1605 -0.5022 -0.8497
vn -0.2104 -0.4414 -0.8723
vn 0.3824 0.1282 -0.9150
vn 0.4201 0.2412 -0.8748
vn 0.4118 0.1715 -0.8950
vn -0.2677 0.0067 0.9635
vn -0.5361 -0.5856 0.6080
vn 0.0035 -0.4442 0.8959
vn -0.9850 0.1243 -0.1195
vn -0.9835 0.0319 -0.1781
vn -0.8839 -0.1191 -0.4522
vn 0.9771 0.0662 0.2021
vn 0.9967 -0.0385 0.0720
vn 0.9805 -0.0115 0.1962
vn 0.2461 0.1161 0.9623
vn 0.1510 -0.1592 0.9756
vn 0.3230 -0.3890 0.8628
vn -0.3897 0.0330 -0.9204
vn -0.2914 0.0417 -0.9557
vn -0.5897 -0.0066 -0.8076
vn 0.3809 -0.0034 -0.9246
vn 0.1391 0.0221 -0.9900
vn 0.3459 0.0212 -0.9380
vn 0.9796 -0.0262 0.1991
vn 0.9856 0.0060 0.1692
vn 0.9492 -0.0663 0.3076
vn -0.1675 0.1599 -0.9728
vn -0.5098 -0.0244 -0.8600
vn -0.5653 -0.0752 -0.8215
vn 0.2888 0.0066 -0.9574
vn 0.1559 -0.0659 -0.9856
vn 0.1694 0.0200 -0.9853
vn 0.3174 0.0599 -0.9464
vn 0.1903 0.0760 -0.9788
vn 0.3486 0.0724 -0.9345
vn 0.8681 0.0595 0.4929
vn 0.8970 0.1194 0.4256
vn 0.9056 0.0376 0.4224
vn -0.7634 0.0714 0.6420
vn -0.5396 -0.0190 0.8417
vn -0.7203 -0.0339 0.6928
vn -0.4666 -0.0428 0.8834
vn -0.3880 -0.1539 0.9087
vn -0.6062 0.0261 0.7949
vn -0.9020 -0.0334 -0.4304
vn -0.9645 0.0061 -0.2641
vn -0.9106 -0.0674 -0.4077
vn 0.3296 0.0707 0.9415
vn 0.1448 0.0263 0.9891
vn -0.1488 -0.1110 0.9826
vn -0.6360 0.4693 -0.6126
vn -0.4398 0.8962 -0.0579
vn -0.1441 0.8954 -0.4213
vn 0.5292 0.8470 0.0511
vn 0.0284 0.9986 0.0449
vn 0.4198 0.7386 0.5275
vn 0.1339 0.9843 0.1148
vn 0.0768 0.9712 0.2256
vn 0.5633 0.8244 0.0551
vt 0.876368 0.382307
vt 0.897114 0.401719
vt 0.870048 0.417351
vt 0.371415 0.091391
vt 0.351840 0.099074
vt 0.361290 0.074080
vt 0.152215 0.344788
vt 0.137680 0.312670
vt 0.159142 0.307351
vt 0.638684 0.261329
vt 0.645217 0.304966
vt 0.608051 0.237715
vt 0.355220 0.913510
vt 0.343380 0.900720
vt 0.356462 0.890520
vt 0.128676 0.217096
vt 0.128382 0.334977
vt 0.119028 0.225785
vt 0.348729 0.122898
vt 0.374442 0.111933
vt 0.369417 0.186161
vt 0.721436 0.103761
vt 0.719809 0.154504
vt 0.688220 0.167770
vt 0.210083 0.429413
vt 0.405191 0.182548
vt 0.422692 0.250520
vt 0.195814 0.448377
vt 0.698408 0.357267
vt 0.679672 0.360440
vt 0.393303 0.261512
vt 0.833762 0.270701
vt 0.796423 0.268172
vt 0.723831 0.174952
vt 0.735628 0.162429
vt 0.117327 0.355389
vt 0.757835 0.039372
vt 0.321844 0.091418
vt 0.330660 0.081100
vt 0.345280 0.085300
vt 0.890213 0.776428
vt 0.881130 0.733399
vt 0.902877 0.751341
vt 0.864233 0.767803
s 0
usemtl CaveWalls1.009
f 3/1/1 2/2/2 1/3/3
f 4/4/4 3/5/5 1/6/6
f 5/7/7 3/8/8 4/9/9
f 5/10/10 6/11/11 3/12/12
f 7/13/13 1/14/14 2/15/15
f 1/16/16 11/17/17 4/18/18
f 2/19/19 3/20/20 10/21/21
f 10/22/22 7/23/23 2/24/24
f 8/25/25 5/7/26 4/9/27
f 3/20/28 6/26/29 9/27/30
f 3/20/31 9/27/32 10/21/33
f 12/28/34 5/7/35 8/25/36
f 6/11/37 5/10/38 12/29/39
f 6/11/40 12/29/41 9/30/42
f 13/31/43 10/21/44 9/27/45
f 1/32/46 7/33/47 13/34/48
f 1/32/49 13/34/50 11/35/51
f 4/18/52 11/17/53 8/36/54
f 10/22/55 13/37/56 7/23/57
f 8/38/58 11/39/59 12/40/60
f 9/41/61 11/42/62 13/43/63
f 12/44/64 11/42/65 9/41/66
