# Blender 3.6.22
# www.blender.org
mtllib CaveWalls1_B_COL.mtl
o CaveWalls1_B.002
v -8.820314 -16.186136 -3.173257
v 1.595690 -13.278083 -9.021442
v 9.187873 -16.082563 -3.746578
v -0.924394 -15.668599 5.632436
v -0.607065 1.484498 -0.746670
v -4.928912 14.862638 -0.936285
v 4.896622 15.408711 0.791899
v 1.436682 15.232966 -6.329611
v -12.403252 15.136906 -4.048420
v -21.539703 15.644928 4.469331
v -9.053140 4.003682 -2.504103
v -14.618547 -3.379255 7.819350
v -10.399431 15.790483 4.738447
v -16.898914 -15.916419 8.130559
v -21.545673 -16.170977 0.971150
v -15.963243 -2.470879 -5.198988
v 6.305799 -0.041288 -4.824357
v 14.959042 -5.801756 -4.473305
v 20.464064 2.873895 0.665267
v 17.393562 14.538849 -1.446915
v 21.898861 -16.909239 3.190771
v 19.486788 15.165071 7.137836
v 12.249213 1.054489 6.615332
vn 0.0108 -0.5662 -0.8242
vn -0.0211 -0.9127 -0.4081
vn -0.0710 -0.8845 -0.4610
vn 0.0197 -0.9976 0.0670
vn 0.0093 -0.9986 0.0526
vn 0.0178 -0.9959 0.0883
vn -0.0287 -0.9990 -0.0345
vn 0.1047 -0.9543 0.2799
vn -0.0729 -0.9963 0.0451
vn 0.2987 -0.4431 0.8453
vn 0.2339 0.0230 0.9720
vn 0.3372 -0.4030 0.8508
vn 0.2677 0.3666 0.8911
vn 0.3423 0.3347 0.8779
vn 0.3487 0.0223 0.9370
vn -0.4643 0.2447 0.8512
vn -0.3832 0.2307 0.8944
vn -0.2922 0.4327 0.8529
vn 0.6363 0.3030 0.7095
vn 0.7100 0.3070 0.6338
vn 0.6908 0.2949 0.6602
vn -0.0706 -0.1168 0.9906
vn -0.2760 0.0633 0.9591
vn -0.2822 -0.0439 0.9583
vn -0.0221 0.9793 0.2012
vn -0.4248 0.8544 -0.2993
vn -0.2498 0.9655 -0.0738
vn 0.3786 0.9188 0.1119
vn 0.1901 0.9530 -0.2358
vn 0.4661 0.8388 0.2812
vn 0.0204 0.9997 0.0138
vn -0.0044 0.9953 -0.0964
vn 0.2732 0.8392 0.4702
vn -0.1964 0.8250 -0.5299
vn -0.2507 0.9067 -0.3392
vn 0.0023 0.9908 -0.1351
vn -0.5472 -0.0105 -0.8369
vn -0.6789 0.0059 -0.7342
vn -0.5431 0.0533 -0.8380
vn -0.7831 0.1188 -0.6105
vn -0.7341 0.1780 -0.6553
vn -0.8723 -0.1604 -0.4618
vn -0.0871 0.0093 0.9962
vn -0.0620 0.0095 0.9980
vn -0.0877 -0.0378 0.9954
vn 0.5239 0.0185 0.8516
vn 0.4829 -0.0076 0.8757
vn 0.3923 -0.0543 0.9182
vn -0.4458 0.0173 0.8949
vn -0.1008 0.1993 0.9747
vn -0.3515 0.0742 0.9332
vn -0.6940 0.0286 0.7194
vn -0.8645 -0.1860 0.4669
vn -0.7647 -0.0064 0.6444
vn 0.0208 -0.9992 0.0349
vn 0.0232 -0.9990 0.0373
vn 0.0356 -0.9989 0.0298
vn 0.0126 -0.9500 -0.3120
vn 0.1057 -0.9937 0.0376
vn -0.3140 -0.8410 -0.4407
vn -0.1120 -0.3240 -0.9394
vn -0.2716 -0.2212 -0.9366
vn -0.3608 -0.2065 -0.9095
vn 0.4058 -0.0845 -0.9100
vn 0.3420 0.0362 -0.9390
vn 0.3030 -0.0419 -0.9521
vn 0.2647 0.1193 -0.9569
vn -0.0594 0.0545 -0.9967
vn 0.0560 -0.0059 -0.9984
vn -0.4745 0.0657 -0.8778
vn -0.4046 -0.1117 -0.9076
vn -0.4408 0.0268 -0.8972
vn 0.5153 0.1736 -0.8392
vn 0.3971 0.2418 -0.8854
vn 0.4905 0.1491 -0.8586
vn -0.4502 0.3201 -0.8336
vn -0.4307 0.1299 -0.8931
vn -0.4915 0.1753 -0.8530
vn 0.4073 0.1090 -0.9068
vn 0.5512 0.0516 -0.8328
vn 0.4638 0.0164 -0.8858
vn 0.1173 0.1098 -0.9870
vn 0.0507 -0.0682 -0.9964
vn -0.0337 -0.1015 -0.9943
vn 0.6552 -0.3062 -0.6907
vn 0.6607 -0.4261 -0.6180
vn 0.4046 -0.4905 -0.7719
vn 0.4707 0.1541 -0.8687
vn 0.5866 0.0527 -0.8082
vn 0.5420 0.1300 -0.8303
vn 0.9991 0.0405 -0.0154
vn 0.9940 -0.0272 -0.1057
vn 0.8535 0.3472 0.3885
vn 0.9499 0.1321 -0.2833
vn 0.6741 0.5745 -0.4643
vn 0.8495 0.5222 0.0753
vn -0.5059 0.2977 0.8096
vn -0.5064 0.3184 0.8014
vn -0.4714 0.2540 0.8446
vn -0.4624 0.0299 0.8862
vn -0.2107 0.0503 0.9763
vn -0.3316 0.1388 0.9332
vn 0.4326 0.8369 -0.3352
vn 0.0871 0.9561 -0.2797
vn -0.0616 0.9970 0.0462
vn 0.0251 -0.1899 -0.9815
vn 0.2674 0.0933 -0.9591
vn 0.2314 -0.2068 -0.9506
vn -0.2726 -0.0767 -0.9591
vn -0.2422 -0.2422 -0.9395
vn -0.1325 -0.1109 -0.9850
vn 0.2993 0.1186 -0.9468
vn 0.1933 0.0715 -0.9785
vn 0.3954 0.0686 -0.9160
vn 0.0194 0.9395 -0.3419
vn 0.0148 0.9969 -0.0773
vn -0.0474 0.9988 -0.0086
vn 0.0553 -0.1518 0.9869
vn 0.0919 -0.1744 0.9804
vn 0.1053 -0.1894 0.9762
vn 0.4902 -0.1238 0.8628
vn 0.4064 -0.0394 0.9128
vn 0.1959 -0.0775 0.9776
vn 0.8048 -0.0058 -0.5935
vn 0.7864 -0.0522 -0.6155
vn 0.7013 -0.0833 -0.7080
vt 0.288665 0.330438
vt 0.251475 0.324401
vt 0.321891 0.287604
vt 0.276096 0.269380
vt 0.192478 0.323012
vt 0.365059 0.598323
vt 0.328011 0.672460
vt 0.292106 0.631473
vt 0.404539 0.673268
vt 0.457188 0.638349
vt 0.408645 0.644679
vt 0.849071 0.571727
vt 0.818784 0.560212
vt 0.878356 0.496857
vt 0.414219 0.738245
vt 0.440149 0.724853
vt 0.297614 0.085494
vt 0.305750 0.081540
vt 0.312120 0.093330
vt 0.442717 0.386954
vt 0.386724 0.389372
vt 0.410137 0.363356
vt 0.507962 0.392343
vt 0.364596 0.357332
vt 0.220164 0.180234
vt 0.162086 0.236690
vt 0.149554 0.215391
vt 0.592667 0.200212
vt 0.543897 0.243844
vt 0.459494 0.249874
vt 0.374322 0.752137
vt 0.350097 0.765094
vt 0.856650 0.488667
vt 0.306254 0.690231
vt 0.820797 0.672581
vt 0.788952 0.527884
vt 0.806640 0.526620
vt 0.335987 0.225887
vt 0.364056 0.238749
vt 0.265493 0.136432
vt 0.283223 0.167240
vt 0.640210 0.125427
vt 0.652228 0.151024
vt 0.608410 0.139742
vt 0.847617 0.172615
vt 0.841931 0.188810
vt 0.824952 0.147720
vt 0.798797 0.462913
vt 0.812388 0.366888
vt 0.835718 0.458797
vt 0.264716 0.360415
vt 0.268009 0.427162
vt 0.225541 0.490243
vt 0.862644 0.350386
vt 0.271372 0.502375
vt 0.306513 0.457635
vt 0.327873 0.505122
vt 0.324690 0.358250
vt 0.339823 0.412037
vt 0.398216 0.101894
vt 0.471383 0.167023
vt 0.489163 0.219311
vt 0.499976 0.199237
vt 0.467188 0.711947
vt 0.510970 0.687235
vt 0.312200 0.110806
vt 0.336016 0.151195
vt 0.261592 0.112626
vt 0.561180 0.367231
vt 0.493488 0.379399
vt 0.218147 0.368833
vt 0.221660 0.348790
vt 0.546431 0.351110
vt 0.457425 0.557024
s 0
usemtl CaveWalls1.010
f 2/1/1 3/2/2 1/3/3
f 3/2/4 4/4/5 1/3/6
f 3/2/7 21/5/8 4/4/9
f 4/6/10 12/7/11 14/8/12
f 5/9/13 12/7/14 4/6/15
f 23/10/16 5/11/17 4/6/18
f 6/12/19 13/13/20 5/14/21
f 6/15/22 5/9/23 7/16/24
f 7/17/25 8/18/26 6/19/27
f 6/20/28 9/21/29 13/22/30
f 8/23/31 9/21/32 6/20/33
f 9/21/34 10/24/35 13/22/36
f 16/25/37 10/26/38 9/27/39
f 10/28/40 16/29/41 15/30/42
f 13/31/43 10/32/44 12/7/45
f 5/14/46 13/13/47 12/33/48
f 14/8/49 12/7/50 10/34/51
f 10/35/52 15/36/53 14/37/54
f 4/4/55 14/38/56 1/3/57
f 1/3/58 14/38/59 15/39/60
f 1/40/61 15/41/62 16/25/63
f 16/42/64 11/43/65 1/44/66
f 11/45/67 16/46/68 9/47/69
f 1/48/70 11/49/71 2/50/72
f 8/51/73 17/52/74 2/53/75
f 8/54/76 2/50/77 11/49/78
f 3/55/79 2/53/80 17/52/81
f 3/55/82 17/52/83 18/56/84
f 18/56/85 21/57/86 3/55/87
f 20/58/88 19/59/89 18/56/90
f 21/60/91 19/61/92 22/62/93
f 19/61/94 20/63/95 22/62/96
f 7/64/97 23/10/98 22/65/99
f 5/66/100 23/67/101 7/68/102
f 20/69/103 8/23/104 7/70/105
f 20/58/106 17/52/107 8/51/108
f 8/51/109 11/71/110 9/72/111
f 18/56/112 17/52/113 20/58/114
f 20/69/115 7/70/116 22/73/117
f 21/74/118 23/10/119 4/6/120
f 21/74/121 22/65/122 23/10/123
f 19/59/124 21/57/125 18/56/126
