# Blender 3.6.22
# www.blender.org
mtllib CaveWalls1_D_COL.mtl
o CaveWalls1_D.005
v -6.131460 -16.281057 -22.790600
v -2.289401 -16.005512 -11.737637
v -24.377260 -15.903131 -20.976454
v -21.575344 -15.092638 -11.521383
v -20.708807 3.844137 -11.261905
v -25.795797 15.267640 -15.976966
v -18.518278 14.310631 -23.011866
v -11.935134 15.689600 -21.155792
v -7.364939 16.213617 -14.628039
v -4.244832 15.621291 -22.843691
v -4.453244 1.635773 -24.092285
v -1.417365 -4.085820 -11.241507
v 11.017136 14.657839 -10.476024
v 10.671580 5.002037 -10.337197
v 12.486064 4.364082 5.597508
v 10.382171 -15.861596 3.641430
v 9.521441 -15.600433 -9.285535
v 20.358181 -16.280935 22.194403
v 25.709078 -15.782078 2.462332
v 22.764143 10.100536 17.623516
v 22.032076 0.501046 11.155571
v 19.294186 15.809361 23.221664
v 23.550091 15.526670 2.611797
v 16.420778 16.144630 4.056692
v 12.892590 15.526091 12.050027
v 13.692535 15.090823 23.964298
v 11.050741 2.978015 18.107151
v 13.366350 -15.282921 23.906300
v 24.372520 11.682064 -10.734982
v 22.993273 1.139372 4.240761
v 22.505035 -15.802852 -7.373472
v 6.831706 -16.130909 -22.830732
v 14.935360 -14.329705 -22.950399
v 19.811646 -7.518861 -18.741714
v 10.792150 14.882306 -20.581274
v 3.618889 3.404619 -20.663376
v 18.960243 15.840569 -17.897490
vn -0.4445 -0.0045 -0.8958
vn -0.1770 -0.0386 -0.9835
vn -0.4165 0.0248 -0.9088
vn -0.3852 -0.9094 -0.1570
vn -0.0499 -0.9988 0.0005
vn -0.0340 -0.9987 0.0380
vn 0.0218 -0.9942 0.1057
vn -0.5294 -0.8147 0.2367
vn -0.5934 -0.8049 -0.0023
vn 0.0726 -0.0875 0.9935
vn -0.0043 -0.0266 0.9996
vn -0.0210 -0.0716 0.9972
vn -0.9510 -0.0028 0.3091
vn -0.9388 -0.0564 0.3398
vn -0.9566 -0.2426 0.1615
vn -0.0704 -0.0353 0.9969
vn -0.1863 0.1188 0.9753
vn -0.2146 -0.1456 0.9658
vn -0.4875 0.0967 0.8678
vn -0.4038 -0.0143 0.9147
vn -0.6091 0.0288 0.7926
vn -0.6407 0.0709 -0.7645
vn -0.7260 0.1403 -0.6732
vn -0.6502 0.0565 -0.7577
vn -0.3245 0.7119 -0.6228
vn -0.1943 0.9400 -0.2805
vn -0.1367 0.9696 -0.2031
vn -0.1189 0.9882 -0.0970
vn -0.1822 0.9733 -0.1395
vn -0.1055 0.9890 -0.1034
vn -0.0613 0.8797 -0.4715
vn -0.0711 0.8717 -0.4849
vn -0.0206 0.9875 -0.1564
vn 0.0727 0.9601 -0.2699
vn 0.2384 0.9046 -0.3533
vn 0.0858 0.9958 -0.0321
vn -0.1648 0.1604 0.9732
vn -0.1946 0.0594 0.9791
vn -0.2392 0.2618 0.9350
vn -0.1722 -0.0156 0.9849
vn -0.2372 0.0303 0.9710
vn -0.1938 0.1144 0.9743
vn -0.2921 0.2929 0.9104
vn -0.1580 0.1701 0.9727
vn -0.1505 0.0364 0.9879
vn -0.2681 -0.0190 0.9632
vn -0.2925 -0.0735 0.9534
vn -0.2418 -0.0339 0.9697
vn -0.9931 0.1122 -0.0337
vn -0.9808 0.0206 0.1938
vn -0.9853 0.1528 0.0769
vn -0.9997 -0.0184 0.0189
vn -0.9987 -0.0145 0.0480
vn -0.9800 -0.0184 0.1979
vn -0.0574 -0.9971 -0.0498
vn -0.0129 -0.9997 -0.0204
vn -0.0357 -0.9993 -0.0134
vn 0.0062 -1.0000 0.0024
vn 0.0165 -0.9999 -0.0023
vn 0.0058 -1.0000 0.0002
vn 0.0436 -0.9990 -0.0047
vn 0.0669 -0.9976 0.0177
vn 0.0042 -0.9997 -0.0249
vn -0.0216 -0.9998 0.0011
vn -0.0558 -0.9983 0.0171
vn -0.2326 -0.8492 0.4741
vn 0.8551 -0.2809 0.4357
vn 0.9100 0.0712 0.4084
vn 0.9567 -0.0909 0.2764
vn 0.4021 0.6315 -0.6629
vn 0.3219 0.6427 -0.6952
vn 0.3812 0.4837 -0.7878
vn 0.9280 0.0157 0.3723
vn 0.9287 0.1077 0.3550
vn 0.8241 -0.0255 0.5658
vn 0.9594 0.2325 0.1598
vn 0.9858 0.0740 0.1506
vn 0.9813 -0.1873 0.0433
vn 0.7524 0.6375 0.1654
vn 0.9672 -0.2088 0.1445
vn 0.8756 0.4830 -0.0038
vn 0.4399 0.8938 -0.0871
vn 0.0464 0.9972 0.0580
vn 0.3127 0.9465 0.0794
vn -0.1823 0.9821 0.0473
vn -0.2900 0.9517 0.1009
vn -0.1823 0.9827 0.0328
vn -0.1444 0.9827 0.1161
vn -0.3772 0.9138 -0.1504
vn -0.1291 0.9878 0.0875
vn -0.9936 0.0879 0.0716
vn -0.9768 0.2126 -0.0267
vn -0.9885 0.1505 0.0169
vn -0.9006 0.2741 -0.3373
vn -0.8573 0.2072 -0.4713
vn -0.8696 0.2702 -0.4134
vn -0.9999 0.0127 -0.0102
vn -0.9941 0.0468 0.0976
vn -0.9969 0.0076 0.0781
vn 0.1121 0.0982 0.9888
vn -0.2465 -0.0905 0.9649
vn -0.3619 -0.2235 0.9050
vn -0.7672 -0.0728 0.6373
vn -0.6491 0.0644 0.7579
vn -0.9726 -0.0598 0.2246
vn -0.9849 -0.0728 0.1572
vn -0.9600 -0.0826 0.2676
vn -0.9652 -0.1790 0.1908
vn 0.4214 0.0340 0.9062
vn 0.4646 0.0446 0.8844
vn 0.2456 -0.0490 0.9681
vn -0.9948 -0.0997 -0.0187
vn -0.9989 -0.0083 0.0454
vn -0.9945 0.0887 -0.0552
vn -0.8490 0.4791 0.2230
vn -0.8902 0.3187 0.3256
vn -0.9378 0.2478 0.2433
vn -0.9360 0.0084 0.3518
vn -0.8959 -0.0638 0.4396
vn -0.9594 0.0551 0.2765
vn 0.0758 0.9970 -0.0168
vn 0.1221 0.9922 -0.0235
vn 0.1696 0.9854 0.0160
vn -0.1756 0.9834 0.0461
vn -0.4293 0.8904 0.1514
vn -0.2110 0.9775 -0.0057
vn 0.9077 0.3916 0.1506
vn 0.6377 0.7531 -0.1615
vn 0.9469 0.3213 0.0090
vn 0.9905 -0.0056 0.1370
vn 0.9183 0.1568 0.3636
vn 0.9897 0.0904 0.1107
vn 0.9927 0.0343 0.1153
vn 0.9937 -0.0756 0.0829
vn 0.9978 -0.0372 0.0549
vn 0.9793 0.1656 -0.1162
vn 0.9703 0.2044 -0.1298
vn 0.9500 0.1648 -0.2653
vn 0.9600 -0.0848 -0.2670
vn 0.9650 -0.0789 -0.2501
vn 0.9460 -0.0963 -0.3094
vn 0.9715 0.2196 -0.0891
vn 0.9808 -0.0399 0.1911
vn 0.9952 -0.0891 0.0410
vn 0.9894 -0.0431 -0.1384
vn 0.9974 0.0063 -0.0715
vn 0.9887 0.0120 0.1496
vn -0.0243 -0.9990 0.0363
vn -0.1550 -0.9004 0.4066
vn 0.0589 -0.9167 0.3953
vn 0.0081 -0.9993 0.0370
vn 0.0134 -0.9992 0.0366
vn -0.0066 -0.9989 0.0475
vn -0.0210 -0.9989 0.0429
vn -0.0309 -0.9986 0.0437
vn -0.0233 -0.9987 0.0460
vn 0.2698 -0.7566 -0.5957
vn 0.1420 -0.9835 -0.1118
vn 0.1848 -0.9560 -0.2277
vn -0.2365 0.1123 -0.9651
vn -0.1233 0.1360 -0.9830
vn -0.1935 0.0824 -0.9776
vn 0.6263 0.3123 -0.7143
vn 0.1657 -0.0973 -0.9814
vn 0.5717 0.2344 -0.7863
vn -0.3062 -0.0054 -0.9520
vn -0.2038 0.0590 -0.9772
vn -0.3453 -0.0843 -0.9347
vn 0.1880 0.1970 -0.9622
vn 0.3838 -0.0032 -0.9234
vn 0.2047 0.1292 -0.9703
vn 0.6086 -0.0266 -0.7930
vn 0.6672 -0.0705 -0.7415
vn 0.8168 -0.0139 -0.5767
vn -0.0339 -0.0225 -0.9992
vn 0.1600 0.1217 -0.9796
vn 0.0453 0.2252 -0.9733
vn 0.3860 0.0481 -0.9212
vn 0.1878 0.1277 -0.9739
vn 0.4210 0.0478 -0.9058
vn 0.0161 0.9496 -0.3132
vn -0.0562 0.9733 -0.2225
vn -0.0238 0.9569 -0.2896
vn 0.0378 0.9932 0.1103
vn 0.0279 0.9811 0.1914
vn -0.0327 0.9775 0.2082
vn -0.0690 0.1363 -0.9883
vn -0.2141 0.1246 -0.9688
vn -0.0065 0.0900 -0.9959
vn -0.2518 0.1150 -0.9609
vn -0.1167 0.0283 -0.9928
vn -0.0782 0.0259 -0.9966
vn 0.2563 -0.1096 -0.9604
vn 0.1251 -0.1054 -0.9865
vn 0.2862 -0.1113 -0.9517
vn 0.0240 -0.0781 -0.9967
vn -0.0295 -0.0952 -0.9950
vn 0.0295 -0.0248 -0.9993
vn 0.2469 0.2161 -0.9446
vn 0.3062 0.1402 -0.9416
vn 0.2981 0.1770 -0.9380
vn 0.5661 -0.4436 -0.6948
vn 0.8395 -0.3271 -0.4338
vn 0.7934 -0.3971 -0.4613
vn 0.1145 0.1009 0.9883
vn 0.1124 0.2238 0.9681
vn 0.1489 0.1366 0.9794
vn -0.0988 0.2991 0.9491
vn -0.0218 0.3926 0.9194
vn -0.2201 0.4168 0.8820
vt 0.776072 0.857832
vt 0.690105 0.878751
vt 0.620828 0.853334
vt 0.303087 0.545773
vt 0.369545 0.501113
vt 0.408327 0.539024
vt 0.315952 0.570094
vt 0.159700 0.888198
vt 0.170054 0.791631
vt 0.233431 0.804561
vt 0.564424 0.298526
vt 0.422966 0.279032
vt 0.573942 0.283250
vt 0.242355 0.890465
vt 0.485174 0.293947
vt 0.644251 0.778030
vt 0.745305 0.787633
vt 0.772577 0.817505
vt 0.611701 0.611411
vt 0.589133 0.625259
vt 0.602080 0.563692
vt 0.568119 0.572392
vt 0.586814 0.496525
vt 0.580265 0.469394
vt 0.257038 0.743648
vt 0.307243 0.843732
vt 0.323585 0.756222
vt 0.177620 0.734296
vt 0.215165 0.637940
vt 0.181140 0.699631
vt 0.098583 0.671669
vt 0.122322 0.621521
vt 0.475273 0.536567
vt 0.527134 0.516960
vt 0.495275 0.589246
vt 0.556827 0.569420
vt 0.555187 0.663452
vt 0.532160 0.674055
vt 0.397128 0.773363
vt 0.477471 0.741987
vt 0.464354 0.883092
vt 0.473380 0.828984
vt 0.456650 0.914855
vt 0.536287 0.874290
vt 0.847841 0.688515
vt 0.859221 0.696318
vt 0.837499 0.740104
vt 0.433855 0.430740
vt 0.442908 0.458001
vt 0.359608 0.462553
vt 0.397408 0.477104
vt 0.356933 0.485699
vt 0.274877 0.619526
vt 0.230860 0.580998
vt 0.285540 0.570183
vt 0.269725 0.661989
vt 0.799092 0.301925
vt 0.785172 0.309001
vt 0.696301 0.204523
vt 0.877450 0.563620
vt 0.862227 0.605433
vt 0.855917 0.585454
vt 0.170351 0.529549
vt 0.709433 0.183445
vt 0.248145 0.705931
vt 0.229456 0.729581
vt 0.547337 0.426493
vt 0.534296 0.468972
vt 0.513566 0.403129
vt 0.597667 0.827257
vt 0.529406 0.716089
vt 0.507390 0.817721
vt 0.577264 0.728871
vt 0.431097 0.480559
vt 0.501772 0.482211
vt 0.705140 0.922302
vt 0.639749 0.956124
vt 0.609156 0.921417
vt 0.673626 0.252414
vt 0.675982 0.226253
vt 0.749647 0.292834
vt 0.751826 0.948962
vt 0.762204 0.323643
vt 0.743465 0.335352
vt 0.718511 0.353723
vt 0.764363 0.892645
vt 0.560710 0.698150
vt 0.298716 0.912585
s 0
usemtl CaveWalls1.012
f 8/1/1 11/2/2 1/3/3
f 3/4/4 1/5/5 2/6/6
f 2/6/7 4/7/8 3/4/9
f 4/8/10 2/9/11 12/10/12
f 4/11/13 6/12/14 3/13/15
f 12/10/16 5/14/17 4/8/18
f 4/11/19 5/15/20 6/12/21
f 3/16/22 6/17/23 7/18/24
f 7/19/25 6/20/26 8/21/27
f 8/21/28 6/20/29 9/22/30
f 10/23/31 8/21/32 9/22/33
f 35/24/34 10/23/35 9/22/36
f 14/25/37 9/26/38 12/10/39
f 13/27/40 9/26/41 14/25/42
f 17/28/43 14/25/44 12/10/45
f 17/28/46 12/10/47 2/9/48
f 15/29/49 14/30/50 17/31/51
f 16/32/52 15/29/53 17/31/54
f 17/33/55 31/34/56 16/35/57
f 31/34/58 19/36/59 16/35/60
f 19/36/61 18/37/62 16/35/63
f 16/35/64 18/37/65 28/38/66
f 18/39/67 19/40/68 20/41/69
f 19/40/70 21/42/71 20/41/72
f 22/43/73 18/39/74 20/41/75
f 21/42/76 23/44/77 20/41/78
f 22/45/79 20/46/80 23/47/81
f 23/48/82 24/49/83 22/50/84
f 24/49/85 25/51/86 22/50/87
f 22/50/88 25/51/89 26/52/90
f 25/53/91 27/54/92 26/55/93
f 25/53/94 24/56/95 15/29/96
f 15/29/97 27/54/98 25/53/99
f 22/57/100 26/58/101 28/59/102
f 28/60/103 26/61/104 27/62/105
f 16/32/106 28/63/107 27/54/108
f 18/64/109 22/57/110 28/59/111
f 16/32/112 27/54/113 15/29/114
f 15/29/115 24/56/116 14/30/117
f 14/30/118 24/65/119 13/66/120
f 37/67/121 24/49/122 23/48/123
f 37/67/124 13/68/125 24/49/126
f 29/69/127 37/67/128 23/48/129
f 29/70/130 23/44/131 31/71/132
f 31/71/133 23/44/134 30/72/135
f 30/72/136 19/40/137 31/71/138
f 29/70/139 31/71/140 34/73/141
f 30/72/142 21/42/143 19/40/144
f 30/72/145 23/44/146 21/42/147
f 1/5/148 17/33/149 2/6/150
f 32/74/151 17/33/152 1/5/153
f 32/74/154 31/34/155 17/33/156
f 33/75/157 31/34/158 32/74/159
f 36/76/160 33/77/161 32/78/162
f 34/79/163 33/80/164 35/81/165
f 33/77/166 36/76/167 35/82/168
f 34/79/169 35/81/170 37/83/171
f 34/79/172 37/84/173 29/85/174
f 35/82/175 36/76/176 10/86/177
f 10/86/178 36/76/179 11/2/180
f 35/24/181 9/22/182 37/67/183
f 37/67/184 9/22/185 13/68/186
f 11/2/187 8/1/188 10/86/189
f 1/3/190 3/16/191 8/1/192
f 3/16/193 7/18/194 8/1/195
f 32/78/196 1/3/197 11/2/198
f 32/78/199 11/2/200 36/76/201
f 33/87/202 34/73/203 31/71/204
f 12/10/205 9/26/206 5/14/207
f 5/14/208 9/26/209 6/88/210
