# Blender 3.6.22
# www.blender.org
mtllib CaveWalls1_C_COL.mtl
o CaveWalls1_C.005
v -18.485571 -15.558832 -4.585210
v -0.701643 -15.909355 -5.943463
v 2.788499 15.085896 -5.548451
v -10.046389 15.860152 -4.330764
v -6.233273 16.194149 3.993607
v 8.341157 15.324006 5.539149
v -1.532509 0.903219 4.468904
v -0.072336 -15.787280 4.341190
v 21.187328 -16.028471 4.488780
v 19.081093 -16.022655 -2.646302
v 8.566604 -11.936292 -4.398287
v 20.831728 15.982465 -2.076631
v 19.844662 13.441883 5.067423
v -15.914118 0.630500 5.834248
v -21.019354 -15.458853 4.649113
v -21.968470 15.775529 0.672409
v -10.998772 1.189107 -5.036334
vn -0.3533 -0.8128 -0.4631
vn -0.0218 -0.9955 -0.0925
vn 0.1296 -0.9915 -0.0102
vn 0.0023 -0.1661 -0.9861
vn 0.0484 -0.1297 -0.9904
vn 0.0087 -0.2556 -0.9667
vn -0.0256 -0.9992 -0.0317
vn -0.0237 -0.9995 0.0209
vn -0.0481 -0.9962 0.0722
vn -0.0542 0.0746 -0.9957
vn 0.1331 0.0321 -0.9906
vn -0.1332 0.0560 -0.9895
vn 0.1586 -0.0852 -0.9837
vn 0.0857 -0.1305 -0.9877
vn 0.2360 0.0483 -0.9705
vn 0.0806 0.2414 -0.9671
vn 0.0957 0.1608 -0.9823
vn 0.0621 0.1395 -0.9883
vn 0.4649 0.8340 -0.2973
vn 0.1538 0.9845 -0.0847
vn 0.1553 0.9874 -0.0309
vn -0.0582 0.9930 -0.1025
vn -0.1534 0.9822 -0.1088
vn -0.0338 0.9992 -0.0191
vn 0.1625 0.9792 -0.1218
vn 0.0818 0.9944 -0.0673
vn 0.0973 0.9945 -0.0382
vn -0.1569 0.2491 0.9557
vn -0.2419 0.2235 0.9442
vn -0.2439 -0.0055 0.9698
vn -0.0524 0.9975 -0.0469
vn -0.0257 0.9995 0.0181
vn -0.0129 0.9996 0.0239
vn -0.0379 -0.0044 0.9993
vn 0.0604 0.0699 0.9957
vn -0.1037 0.1301 0.9861
vn 0.0400 -0.0217 0.9990
vn -0.1144 0.0476 0.9923
vn 0.0865 0.0449 0.9952
vn 0.0509 0.0124 0.9986
vn 0.0810 0.0587 0.9950
vn -0.0482 0.1363 0.9895
vn 0.0715 -0.9954 -0.0637
vn -0.0074 -0.9999 -0.0097
vn -0.0150 -0.9999 -0.0013
vn 0.0445 -0.9959 -0.0790
vn -0.0061 -0.9998 0.0172
vn 0.0380 -0.9975 -0.0589
vn 0.0593 -0.4987 -0.8647
vn 0.1295 0.2286 -0.9649
vn 0.0382 -0.5458 -0.8370
vn 0.3244 0.1814 -0.9284
vn 0.2566 0.0533 -0.9651
vn 0.3112 0.1901 -0.9312
vn 0.3076 -0.2287 -0.9236
vn 0.1379 -0.1595 -0.9775
vn 0.3570 -0.1588 -0.9205
vn 0.9943 0.0076 -0.1059
vn 0.9994 -0.0144 -0.0320
vn 0.9119 -0.0573 -0.4064
vn 0.9947 0.0388 0.0957
vn 0.9051 0.1942 0.3783
vn 0.9956 0.0273 0.0894
vn -0.0106 -0.0224 0.9997
vn 0.0066 -0.0505 0.9987
vn 0.0306 -0.0521 0.9982
vn 0.1821 0.9519 0.2465
vn 0.1214 0.6835 0.7198
vn 0.2893 0.4934 0.8203
vn -0.0038 -0.0727 0.9973
vn -0.1520 -0.0708 0.9858
vn -0.0868 -0.0086 0.9962
vn 0.1237 0.0159 0.9922
vn 0.2213 0.0638 0.9731
vn 0.1461 -0.0477 0.9881
vn -0.9124 -0.1864 -0.3643
vn -0.9020 -0.1701 -0.3967
vn -0.9684 -0.0394 -0.2463
vn -0.5997 0.0761 0.7966
vn -0.3122 0.1246 0.9418
vn -0.5736 0.0892 0.8143
vn -0.1458 0.5264 0.8377
vn -0.4534 0.4408 0.7747
vn -0.3479 0.1778 0.9205
vn -0.3301 0.1093 -0.9376
vn -0.3261 0.1413 -0.9347
vn -0.3195 0.1518 -0.9353
vn -0.4993 0.1418 -0.8547
vn -0.5350 -0.0493 -0.8434
vn -0.5646 0.1602 -0.8097
vt 0.517263 0.344737
vt 0.435828 0.344523
vt 0.440785 0.305508
vt 0.690120 0.533079
vt 0.622742 0.545650
vt 0.622347 0.467950
vt 0.526407 0.313714
vt 0.670719 0.391235
vt 0.736277 0.506238
vt 0.608178 0.401897
vt 0.279839 0.241856
vt 0.227424 0.265339
vt 0.230425 0.225054
vt 0.177809 0.271914
vt 0.278377 0.199139
vt 0.768499 0.604022
vt 0.791636 0.667775
vt 0.716580 0.657121
vt 0.340370 0.196062
vt 0.724794 0.725065
vt 0.639676 0.664617
vt 0.758009 0.545240
vt 0.344471 0.327222
vt 0.333768 0.302950
vt 0.721975 0.531659
vt 0.750271 0.525947
vt 0.752372 0.368516
vt 0.785990 0.507314
vt 0.536454 0.171977
vt 0.677132 0.170221
vt 0.670672 0.191955
vt 0.543053 0.146354
vt 0.619651 0.566952
vt 0.334850 0.158790
vt 0.664750 0.752441
vt 0.197739 0.519206
vt 0.141575 0.399081
vt 0.210692 0.506075
vt 0.660177 0.356443
vt 0.606475 0.317806
vt 0.582472 0.243015
vt 0.802059 0.727948
vt 0.384256 0.866402
vt 0.387402 0.832110
vt 0.422172 0.905507
vt 0.574754 0.410773
s 0
usemtl CaveWalls1.011
f 1/1/1 2/2/2 8/3/3
f 2/4/4 1/5/5 17/6/6
f 1/1/7 8/3/8 15/7/9
f 3/8/10 11/9/11 2/4/12
f 2/4/13 17/6/14 3/8/15
f 3/8/16 17/6/17 4/10/18
f 3/11/19 4/12/20 5/13/21
f 4/12/22 16/14/23 5/13/24
f 3/11/25 5/13/26 6/15/27
f 6/16/28 5/17/29 7/18/30
f 3/11/31 6/15/32 12/19/33
f 5/17/34 14/20/35 7/18/36
f 8/21/37 6/16/38 7/18/39
f 8/21/40 13/22/41 6/16/42
f 10/23/43 9/24/44 8/3/45
f 10/23/46 8/3/47 2/2/48
f 2/25/49 11/9/50 10/26/51
f 12/27/52 10/28/53 11/9/54
f 11/9/55 3/8/56 12/27/57
f 12/29/58 9/30/59 10/31/60
f 12/29/61 13/32/62 9/30/63
f 9/33/64 13/22/65 8/21/66
f 12/19/67 6/15/68 13/34/69
f 8/21/70 14/20/71 15/35/72
f 8/21/73 7/18/74 14/20/75
f 15/36/76 16/37/77 1/38/78
f 15/39/79 14/40/80 16/41/81
f 5/17/82 16/42/83 14/20/84
f 17/43/85 1/44/86 16/45/87
f 4/10/88 17/6/89 16/46/90
