# Blender 3.6.22
# www.blender.org
mtllib CaveWalls3_COL.mtl
o CaveWalls3.005
v -8.525775 1.198724 -13.339689
v 6.262589 -11.282748 -13.980188
v -6.792875 -16.019255 -11.248227
v 11.497533 -16.263489 -8.593522
v 23.751728 0.787547 -8.513737
v 64.740257 16.210215 8.583143
v 62.735874 -13.972681 14.379331
v 44.945206 -16.113386 10.259018
v 28.791813 -4.401509 8.681184
v 24.599657 15.717230 7.624258
v 24.832512 16.550983 -4.258858
v -27.788292 -16.066454 -4.930772
v -25.776573 -16.274506 6.791397
v -47.306545 -15.689752 9.662772
v -60.775303 -16.131130 13.253082
v -51.453400 11.469035 13.556328
v -63.386570 16.132854 11.661134
v -62.110287 15.725781 5.345922
v -27.387213 16.438841 6.758562
v -15.469932 7.214994 4.522855
v 4.131523 16.245962 0.176505
v 4.719202 -0.534158 1.047809
v 5.689838 16.225449 -12.930164
v -49.684948 2.739669 -5.085320
v -62.378857 -15.758626 6.483271
v -43.473190 -16.553173 -5.992847
v -44.377838 16.488104 -6.450018
v -6.588263 16.466169 -11.985016
v -27.456343 14.972404 -6.459432
v 22.000780 -16.598581 6.239350
v 2.350137 -16.469563 -0.706205
v -11.468496 -16.248581 3.073694
v 38.791744 -16.582184 -4.527477
v 44.668003 15.535296 -3.483416
v 62.433254 -16.713614 6.337208
v 46.050835 16.188086 10.378482
vn -0.2255 -0.0706 -0.9717
vn -0.1468 -0.1821 -0.9723
vn -0.1377 0.0070 -0.9905
vn 0.1204 0.2787 -0.9528
vn 0.0608 0.2337 -0.9704
vn 0.0195 0.3842 -0.9231
vn -0.0058 0.9995 -0.0296
vn 0.0967 0.9852 -0.1413
vn 0.0260 0.9972 -0.0701
vn 0.1054 0.3380 0.9352
vn -0.1034 0.2661 0.9584
vn -0.0667 0.1962 0.9783
vn 0.9880 -0.0631 -0.1406
vn 0.9878 0.1244 -0.0931
vn 0.9947 -0.0792 0.0649
vn 0.0882 -0.9487 0.3036
vn 0.0374 -0.9480 0.3161
vn 0.0535 -0.9567 0.2862
vn 0.0083 -1.0000 -0.0056
vn -0.0463 -0.9989 -0.0022
vn 0.0086 -0.9999 0.0112
vn -0.0437 -0.9937 0.1036
vn -0.0052 -0.9943 0.1063
vn 0.0082 -0.9930 0.1181
vn -0.1625 -0.1243 0.9789
vn -0.1997 -0.0646 0.9777
vn -0.1784 -0.1033 0.9785
vn -0.3588 0.0604 0.9315
vn -0.2559 0.0331 0.9661
vn -0.3141 0.0485 0.9481
vn -0.0334 0.9965 0.0764
vn -0.0150 0.9981 0.0601
vn -0.0372 0.9967 0.0719
vn 0.0566 0.9959 -0.0711
vn 0.0626 0.9967 -0.0510
vn 0.0705 0.9971 -0.0295
vn 0.3905 0.1881 -0.9012
vn 0.4020 0.1837 -0.8970
vn 0.3615 0.1071 -0.9262
vn 0.2211 -0.0392 -0.9745
vn 0.2960 0.0299 -0.9547
vn 0.2402 0.0404 -0.9699
vn -0.3625 -0.0645 -0.9298
vn -0.2805 0.0130 -0.9598
vn -0.4181 -0.0642 -0.9061
vn -0.0129 -0.9993 -0.0357
vn -0.0372 -0.9985 -0.0397
vn -0.0098 -0.9995 -0.0299
vn 0.0163 -0.8920 -0.4517
vn 0.0531 -0.9973 -0.0498
vn -0.2702 -0.8999 -0.3424
vn 0.0044 -0.9996 -0.0270
vn -0.0282 -0.9981 -0.0547
vn -0.0018 -0.9996 -0.0294
vn 0.0108 -0.9985 0.0537
vn -0.0391 -0.9991 0.0142
vn -0.0191 -0.9991 0.0388
vn -0.0383 -0.9983 0.0445
vn -0.0109 -0.9979 0.0634
vn -0.0130 -0.9990 0.0417
vn -0.0290 -0.9922 -0.1210
vn 0.0127 -0.9982 -0.0582
vn 0.0037 -0.9981 -0.0616
vn -0.2467 0.0549 0.9675
vn -0.0118 0.0612 0.9981
vn -0.2845 0.0269 0.9583
vn -0.9558 -0.0654 0.2865
vn -0.8927 0.0234 0.4500
vn -0.9410 -0.2257 0.2522
vn -0.9849 -0.0460 -0.1671
vn -0.9957 -0.0500 -0.0781
vn -0.9625 -0.0595 -0.2646
vn 0.0927 0.9912 -0.0944
vn 0.0104 0.9991 -0.0410
vn -0.0226 0.9912 -0.1308
vn -0.0246 0.9995 0.0190
vn -0.0041 1.0000 -0.0023
vn -0.0750 0.9945 -0.0734
vn -0.0002 0.6892 0.7246
vn 0.1351 0.4836 0.8648
vn 0.2050 0.6149 0.7615
vn 0.2166 0.0510 0.9749
vn 0.2647 -0.0603 0.9624
vn 0.2516 -0.0909 0.9635
vn 0.3132 -0.1287 0.9409
vn 0.0627 -0.1280 0.9898
vn 0.2365 -0.2167 0.9471
vn 0.2689 0.0748 0.9603
vn 0.2861 0.0299 0.9577
vn 0.1884 0.0506 0.9808
vn 0.1862 -0.0195 0.9823
vn 0.2258 0.0384 0.9734
vn 0.1508 0.1014 0.9833
vn 0.3623 0.2793 0.8892
vn 0.1775 0.4390 0.8808
vn 0.2377 -0.0446 0.9703
vn 0.1318 0.0757 0.9884
vn 0.2287 0.0446 0.9725
vn 0.2470 0.0436 0.9680
vn 0.2630 -0.0392 0.9640
vn 0.1307 0.0067 0.9914
vn 0.1559 -0.0692 0.9853
vn -0.0421 0.9970 0.0647
vn -0.0527 0.9945 0.0906
vn -0.0597 0.9797 0.1912
vn -0.1658 0.9653 0.2020
vn -0.0038 0.9966 0.0827
vn 0.0579 0.9983 -0.0102
vn -0.1542 0.2854 -0.9459
vn -0.0882 0.1069 -0.9904
vn -0.0180 0.2168 -0.9760
vn -0.3597 -0.0991 -0.9278
vn -0.3272 -0.1121 -0.9383
vn -0.3359 -0.1510 -0.9297
vn -0.0323 0.1256 -0.9916
vn -0.0529 0.0823 -0.9952
vn -0.0410 0.0413 -0.9983
vn 0.0435 -0.0763 -0.9961
vn 0.1198 -0.0725 -0.9901
vn 0.0158 -0.1953 -0.9806
vn 0.0425 0.0345 -0.9985
vn -0.0022 -0.1124 -0.9937
vn 0.0725 0.0405 -0.9965
vn -0.6294 0.1316 -0.7659
vn -0.5515 0.0394 -0.8332
vn -0.5856 0.2480 -0.7717
vn -0.6704 -0.0719 -0.7385
vn -0.6667 0.0108 -0.7453
vn -0.6165 0.0242 -0.7870
vn -0.5526 -0.0376 -0.8326
vn -0.5234 -0.2878 -0.8020
vn -0.5422 -0.1692 -0.8230
vn 0.0110 -0.9999 0.0130
vn 0.0214 -0.9993 -0.0314
vn 0.0277 -0.9996 0.0088
vn 0.0824 0.9912 -0.1032
vn 0.0968 0.9893 -0.1094
vn 0.0764 0.9896 -0.1221
vn -0.1225 0.9873 -0.1007
vn -0.0988 0.9869 -0.1279
vn -0.0830 0.9904 -0.1109
vn 0.0574 0.9980 0.0257
vn 0.0260 0.9992 0.0302
vn 0.0631 0.9975 -0.0315
vn 0.0347 0.9994 -0.0006
vn 0.0170 0.9998 -0.0080
vn 0.0102 0.9999 -0.0088
vn -0.3383 0.1380 0.9309
vn -0.3935 0.0338 0.9187
vn -0.2885 -0.0056 0.9575
vn -0.4674 0.3344 -0.8184
vn -0.3484 0.2995 -0.8882
vn -0.3200 0.1236 -0.9393
vn -0.1442 -0.0848 -0.9859
vn -0.2488 -0.0676 -0.9662
vn -0.1966 -0.0824 -0.9770
vn -0.3933 -0.0642 0.9172
vn -0.3673 0.0002 0.9301
vn -0.2751 -0.0646 0.9592
vn -0.2838 -0.0250 0.9586
vn -0.2544 -0.1032 0.9616
vn -0.3508 -0.1409 0.9258
vn 0.0780 -0.2018 0.9763
vn 0.2026 -0.0444 0.9783
vn 0.1837 -0.1410 0.9728
vn 0.2696 -0.0250 0.9626
vn 0.3230 0.0096 0.9464
vn 0.3826 0.0508 0.9225
vn 0.2720 -0.2243 -0.9358
vn 0.2228 -0.6395 -0.7358
vn 0.0015 -0.7299 -0.6835
vn 0.1046 -0.9872 -0.1208
vn 0.0166 -0.9994 -0.0289
vn 0.0102 -0.9990 -0.0432
vn 0.0119 -0.9998 -0.0168
vn 0.0275 -0.9986 0.0455
vn 0.0093 -0.9999 -0.0104
vn -0.0179 -0.9993 0.0332
vn -0.0036 -0.9984 0.0570
vn 0.0173 -0.9989 -0.0431
vn 0.3957 0.0263 -0.9180
vn 0.3585 -0.0138 -0.9334
vn 0.3688 0.0464 -0.9284
vn 0.4648 0.0424 -0.8844
vn 0.4344 0.1060 -0.8944
vn 0.5517 -0.0901 -0.8292
vn 0.2806 -0.0529 -0.9584
vn 0.1775 -0.0016 -0.9841
vn 0.2735 -0.0269 -0.9615
vn 0.2088 -0.0418 -0.9771
vn 0.0922 -0.0448 -0.9947
vn 0.1226 -0.0124 -0.9924
vn 0.4715 -0.3772 -0.7971
vn 0.6370 -0.3597 -0.6818
vn 0.5080 -0.3180 -0.8005
vn -0.1497 0.0854 0.9850
vn -0.1634 0.0442 0.9856
vn -0.1073 0.0120 0.9942
vn -0.1515 -0.2224 0.9631
vn 0.0179 -0.2401 0.9706
vn -0.1129 -0.1672 0.9794
vn -0.2016 0.1726 0.9641
vn -0.2127 0.0853 0.9734
vn -0.1167 0.0264 0.9928
vt 0.891312 0.641860
vt 0.833254 0.682944
vt 0.802016 0.600962
vt 0.791640 0.707982
vt 0.703987 0.773702
vt 0.696362 0.722473
vt 0.534172 0.775286
vt 0.553532 0.835794
vt 0.466203 0.799938
vt 0.773740 0.250237
vt 0.842167 0.304281
vt 0.722611 0.358622
vt 0.929653 0.830662
vt 0.946920 0.676341
vt 0.946885 0.777720
vt 0.408427 0.380201
vt 0.465644 0.310545
vt 0.470137 0.331082
vt 0.352475 0.360926
vt 0.322889 0.447631
vt 0.781157 0.431967
vt 0.849573 0.426003
vt 0.835784 0.465271
vt 0.738670 0.412710
vt 0.746974 0.461636
vt 0.704932 0.424490
vt 0.397029 0.729346
vt 0.438107 0.691566
vt 0.584604 0.755663
vt 0.868119 0.526456
vt 0.954140 0.564647
vt 0.459557 0.281507
vt 0.377089 0.316665
vt 0.447756 0.261602
vt 0.543146 0.553461
vt 0.616406 0.522419
vt 0.601991 0.605186
vt 0.030650 0.596020
vt 0.020654 0.548840
vt 0.087661 0.591074
vt 0.087182 0.532905
vt 0.174635 0.605509
vt 0.214392 0.531781
vt 0.273930 0.556664
vt 0.271165 0.524862
vt 0.661555 0.855301
vt 0.726490 0.817510
vt 0.788563 0.839640
vt 0.734130 0.859400
vt 0.079028 0.185774
vt 0.086461 0.319457
vt 0.075472 0.302469
vt 0.522497 0.574650
vt 0.497319 0.585677
vt 0.443368 0.407214
vt 0.524493 0.469998
vt 0.583041 0.695918
vt 0.581113 0.670770
vt 0.615030 0.617493
vt 0.418373 0.622528
vt 0.276474 0.487436
vt 0.409387 0.484963
vt 0.470555 0.590035
vt 0.440350 0.493385
vt 0.156657 0.201431
vt 0.271040 0.216755
vt 0.165501 0.262330
vt 0.256997 0.182565
vt 0.678054 0.454597
vt 0.643629 0.522110
vt 0.661673 0.481354
vt 0.241980 0.098478
vt 0.312405 0.135868
vt 0.144615 0.109396
vt 0.351762 0.679661
vt 0.362470 0.653080
vt 0.452851 0.811930
vt 0.444746 0.834280
vt 0.398985 0.831456
vt 0.331199 0.206979
vt 0.403325 0.174103
vt 0.789654 0.533480
vt 0.320972 0.332972
vt 0.296203 0.221028
vt 0.213963 0.478126
vt 0.107598 0.421935
vt 0.159902 0.383551
vt 0.285480 0.336851
vt 0.179157 0.277809
vt 0.483250 0.387790
vt 0.163756 0.745936
vt 0.094467 0.819880
vt 0.073686 0.783599
vt 0.097690 0.746130
vt 0.131467 0.661475
vt 0.199360 0.677144
vt 0.272632 0.769679
vt 0.260929 0.640019
vt 0.321386 0.713680
vt 0.293423 0.875242
vt 0.346725 0.876255
vt 0.124431 0.334465
vt 0.202732 0.738397
vt 0.185687 0.805942
vt 0.228784 0.840458
vt 0.274074 0.849715
vt 0.557219 0.479227
vt 0.585954 0.451371
vt 0.664190 0.431596
vt 0.653206 0.385350
vt 0.601678 0.196527
vt 0.615776 0.106484
vt 0.775618 0.114523
vt 0.757090 0.233170
vt 0.547131 0.345174
vt 0.625398 0.285241
vt 0.651904 0.364006
vt 0.544883 0.229734
vt 0.928905 0.632591
vt 0.916714 0.372616
s 0
usemtl CaveWalls3.003
f 2/1/1 3/2/2 1/3/3
f 34/4/4 5/5/5 11/6/6
f 36/7/7 6/8/8 34/9/9
f 6/10/10 36/11/11 7/12/12
f 35/13/13 6/14/14 7/15/15
f 8/16/16 35/17/17 7/18/18
f 33/19/19 35/17/20 30/20/21
f 35/17/22 8/16/23 30/20/24
f 8/21/25 9/22/26 30/23/27
f 22/24/28 9/25/29 10/26/30
f 11/27/31 10/28/32 36/7/33
f 34/9/34 11/27/35 36/7/36
f 5/5/37 23/29/38 11/6/39
f 2/1/40 23/30/41 5/31/42
f 3/32/43 12/33/44 1/34/45
f 3/35/46 31/36/47 32/37/48
f 3/38/49 32/39/50 12/40/51
f 12/40/52 32/39/53 13/41/54
f 26/42/55 13/41/56 14/43/57
f 25/44/58 26/42/59 14/43/60
f 25/44/61 14/43/62 15/45/63
f 15/46/64 16/47/65 17/48/66
f 15/46/67 17/48/68 25/49/69
f 25/50/70 17/51/71 18/52/72
f 18/53/73 17/54/74 19/55/75
f 27/56/76 18/53/77 19/55/78
f 17/57/79 16/58/80 19/59/81
f 14/60/82 19/61/83 16/62/84
f 15/63/85 14/60/86 16/64/87
f 13/65/88 19/66/89 14/67/90
f 13/65/91 20/68/92 19/66/93
f 21/69/94 19/70/95 20/71/96
f 20/68/97 22/72/98 21/73/99
f 22/72/100 20/68/101 32/74/102
f 11/27/103 23/75/104 10/28/105
f 21/76/106 10/28/107 23/75/108
f 23/77/109 2/78/110 28/79/111
f 29/80/112 1/81/113 12/33/114
f 2/1/115 1/3/116 28/82/117
f 12/33/118 26/83/119 29/80/120
f 29/80/121 26/83/122 27/84/123
f 18/85/124 27/86/125 24/87/126
f 25/88/127 18/85/128 24/87/129
f 24/87/130 26/89/131 25/88/132
f 12/40/133 13/41/134 26/42/135
f 29/90/136 27/56/137 19/55/138
f 28/91/139 29/92/140 19/93/141
f 28/91/142 19/94/143 21/95/144
f 28/91/145 21/95/146 23/96/147
f 22/97/148 10/98/149 21/99/150
f 29/100/151 28/79/152 1/101/153
f 26/102/154 24/87/155 27/86/156
f 9/103/157 22/97/158 30/104/159
f 22/97/160 31/105/161 30/104/162
f 22/97/163 32/106/164 31/105/165
f 32/74/166 20/68/167 13/65/168
f 2/107/169 4/108/170 3/35/171
f 4/108/172 31/36/173 3/35/174
f 4/108/175 30/109/176 31/36/177
f 4/108/178 33/110/179 30/109/180
f 35/111/181 33/112/182 34/113/183
f 6/114/184 35/111/185 34/113/186
f 33/115/187 5/116/188 34/117/189
f 33/115/190 4/118/191 5/116/192
f 4/119/193 2/1/194 5/31/195
f 36/11/196 9/22/197 7/12/198
f 7/12/199 9/22/200 8/21/201
f 9/22/202 36/11/203 10/120/204
