# Blender 3.6.22
# www.blender.org
mtllib CaveWalls2_C_COL.mtl
o CaveWalls2_C.006
v -15.254509 -15.996686 -31.293737
v -21.885799 14.872294 -31.379255
v -27.608126 -15.991601 -32.365135
v -5.546484 15.728468 -22.887306
v -33.026825 16.578842 -25.750048
v -30.530186 -14.326690 -20.701057
v -6.911012 -14.121288 -22.121351
v 12.798851 2.049304 -10.035220
v 22.041586 14.501680 3.157400
v 31.147900 15.556210 -4.376358
v 31.072950 16.313047 26.044098
v 21.938465 13.003542 32.850506
v 24.234482 -16.429493 34.139198
v 18.608543 1.314621 17.475437
v 22.309158 -15.243890 16.620821
v 18.203096 -15.896404 -7.621046
v 15.534315 -16.179098 -21.493847
v 0.450548 -6.049472 -33.356182
v 10.618049 2.315879 -27.712105
v 3.480973 15.757318 -31.304770
v 21.722637 10.135438 -16.453766
v 31.269226 -15.454109 -2.517033
v 32.250961 -14.837126 22.061136
vn -0.1645 -0.0971 -0.9816
vn -0.0932 0.0886 -0.9917
vn -0.0529 0.0329 -0.9981
vn -0.2683 0.2363 -0.9339
vn 0.2185 -0.1342 -0.9666
vn 0.0986 -0.1334 -0.9861
vn -0.0198 0.1453 -0.9892
vn 0.0733 0.1474 -0.9864
vn -0.0470 0.1463 -0.9881
vn -0.0448 0.9921 -0.1168
vn -0.1016 0.9684 -0.2278
vn 0.0059 0.9997 0.0223
vn -0.0356 0.9625 -0.2690
vn -0.0852 0.9552 -0.2836
vn 0.0311 0.9930 -0.1136
vn -0.0510 0.1151 0.9920
vn -0.3717 0.1085 0.9220
vn -0.2767 0.1014 0.9556
vn 0.0202 -0.1295 0.9914
vn 0.0229 0.0268 0.9994
vn 0.0415 -0.0854 0.9955
vn -0.8852 -0.0266 -0.4644
vn -0.9672 -0.1189 -0.2244
vn -0.9019 0.0042 -0.4319
vn 0.0235 -0.9896 0.1417
vn 0.0589 -0.9801 0.1896
vn 0.0430 -0.9822 0.1828
vn -0.0205 -0.9961 -0.0857
vn -0.0773 -0.9321 0.3537
vn -0.0608 -0.9770 0.2042
vn -0.3509 -0.4600 0.8157
vn -0.2639 -0.7252 0.6360
vn -0.3748 -0.7956 0.4759
vn -0.5314 -0.0545 0.8454
vn -0.5619 -0.1691 0.8097
vn -0.5192 -0.1378 0.8435
vn -0.4840 0.1302 0.8653
vn -0.4186 -0.0308 0.9076
vn -0.5043 -0.0243 0.8632
vn -0.8871 0.1656 0.4309
vn -0.8847 0.1246 0.4493
vn -0.8916 0.1713 0.4192
vn -0.1500 0.9868 -0.0610
vn -0.5066 0.8550 -0.1109
vn -0.1191 0.9929 0.0031
vn -0.8580 0.5007 -0.1149
vn -0.9935 0.0860 0.0747
vn -0.9180 0.3941 0.0451
vn -0.5444 0.8380 0.0371
vn -0.6455 0.7578 0.0949
vn -0.2624 0.9646 0.0255
vn 0.7358 0.0176 0.6770
vn 0.7884 0.2213 0.5740
vn 0.4121 0.2130 0.8859
vn 0.8005 -0.0656 0.5957
vn 0.7140 -0.0685 0.6968
vn 0.8272 -0.0347 0.5608
vn -0.9856 -0.1578 0.0608
vn -0.9878 -0.1166 0.1036
vn -0.9805 -0.1423 0.1354
vn -0.9097 -0.1835 0.3724
vn -0.8805 -0.1427 0.4520
vn -0.9326 -0.2142 0.2905
vn -0.9287 -0.2053 -0.3087
vn -0.8515 -0.2763 -0.4458
vn -0.9318 -0.2211 -0.2878
vn -0.9421 -0.2334 0.2408
vn -0.9582 -0.1767 0.2250
vn -0.9429 -0.2817 0.1776
vn -0.1049 -0.9857 0.1320
vn 0.0453 -0.9953 0.0856
vn -0.1103 -0.9638 0.2428
vn 0.0359 -0.9925 -0.1169
vn 0.0234 -0.9997 0.0071
vn 0.0122 -0.9991 0.0396
vn 0.7179 -0.0852 -0.6909
vn 0.6590 -0.0717 -0.7487
vn 0.7950 -0.0329 -0.6057
vn 0.6262 -0.1223 -0.7700
vn 0.6087 -0.2044 -0.7666
vn 0.4503 -0.2012 -0.8699
vn 0.3281 -0.4768 -0.8155
vn 0.1635 -0.4730 -0.8657
vn 0.2432 -0.5825 -0.7756
vn 0.6750 0.0257 -0.7374
vn 0.6999 0.1490 -0.6985
vn 0.6254 0.1870 -0.7576
vn 0.0135 0.9999 0.0028
vn -0.0257 0.9954 0.0920
vn 0.0097 0.9910 0.1334
vn -0.0086 1.0000 0.0043
vn 0.0283 0.9068 0.4206
vn 0.0051 0.9989 0.0457
vn -0.7556 -0.0961 0.6479
vn -0.7660 -0.1366 0.6281
vn -0.6608 -0.0930 0.7448
vn 0.5674 0.2380 -0.7883
vn 0.6410 0.5090 -0.5745
vn 0.4632 -0.0381 -0.8854
vn 0.8357 -0.0064 -0.5491
vn 0.7999 0.0784 -0.5949
vn 0.8257 -0.1003 -0.5551
vn 0.7505 -0.0710 -0.6570
vn 0.7567 -0.0691 -0.6501
vn 0.7962 -0.0842 -0.5992
vn 0.9958 -0.0584 -0.0710
vn 0.9929 -0.0491 -0.1084
vn 0.9962 -0.0863 -0.0127
vn 0.9969 0.0493 0.0617
vn 0.9987 0.0443 -0.0270
vn 0.9886 0.0267 0.1479
vn 0.0694 -0.9905 -0.1184
vn 0.0651 -0.9956 -0.0679
vn -0.0380 -0.9714 -0.2344
vn 0.0508 -0.9983 0.0273
vn 0.0397 -0.9989 0.0248
vn -0.0424 -0.9988 0.0235
vn 0.4132 0.1326 -0.9010
vn 0.3777 0.1157 -0.9187
vn 0.3962 0.0214 -0.9179
vn -0.0299 -0.9958 0.0870
vn -0.0706 -0.9749 0.2110
vn -0.0622 -0.9879 0.1423
vn -0.5234 0.0809 -0.8483
vn -0.3592 0.1381 -0.9230
vn -0.4896 0.0886 -0.8674
vt 0.831549 0.334706
vt 0.861050 0.479190
vt 0.749957 0.372905
vt 0.875985 0.339143
vt 0.729890 0.462146
vt 0.581644 0.603167
vt 0.440750 0.638887
vt 0.529673 0.583634
vt 0.411205 0.617450
vt 0.263012 0.861621
vt 0.297840 0.749707
vt 0.367311 0.785688
vt 0.373593 0.887492
vt 0.370447 0.796119
vt 0.877003 0.735254
vt 0.860066 0.739636
vt 0.865115 0.611096
vt 0.627954 0.359893
vt 0.572725 0.431650
vt 0.604104 0.346304
vt 0.609518 0.432148
vt 0.437562 0.536226
vt 0.169345 0.679013
vt 0.104748 0.634888
vt 0.209612 0.599825
vt 0.300829 0.950234
vt 0.590046 0.131587
vt 0.698538 0.174839
vt 0.570076 0.219297
vt 0.689371 0.474615
vt 0.648873 0.412505
vt 0.679821 0.395175
vt 0.647964 0.228663
vt 0.629609 0.318175
vt 0.846685 0.085548
vt 0.855540 0.131293
vt 0.829259 0.120824
vt 0.745584 0.883869
vt 0.607164 0.918811
vt 0.601131 0.905209
vt 0.031323 0.252158
vt 0.177044 0.213743
vt 0.173954 0.267537
vt 0.745900 0.241222
vt 0.655607 0.113073
vt 0.401664 0.583269
vt 0.342703 0.532148
vt 0.515697 0.546443
vt 0.109700 0.894093
vt 0.098082 0.801603
vt 0.182886 0.782481
vt 0.060994 0.838212
vt 0.718111 0.335584
vt 0.100644 0.741786
vt 0.610420 0.533361
vt 0.125439 0.731794
vt 0.169659 0.741536
vt 0.665498 0.519902
vt 0.246559 0.780133
vt 0.211394 0.916245
vt 0.147089 0.376921
vt 0.042207 0.392916
vt 0.318457 0.562991
vt 0.267870 0.516630
vt 0.704469 0.411672
vt 0.890888 0.485309
vt 0.888480 0.352346
s 0
usemtl CaveWalls02.009
f 1/1/1 2/2/2 18/3/3
f 1/1/4 3/4/5 2/2/6
f 18/3/7 2/2/8 20/5/9
f 20/6/10 2/7/11 4/8/12
f 2/7/13 5/9/14 4/8/15
f 4/10/16 5/11/17 6/12/18
f 7/13/19 4/10/20 6/14/21
f 3/15/22 6/16/23 5/17/24
f 3/18/25 7/19/26 6/20/27
f 1/21/28 7/19/29 3/18/30
f 16/22/31 7/19/32 1/21/33
f 8/23/34 7/24/35 16/25/36
f 8/26/37 4/10/38 7/13/39
f 8/27/40 15/28/41 9/29/42
f 10/30/43 9/31/44 11/32/45
f 9/29/46 14/33/47 12/34/48
f 9/35/49 12/36/50 11/37/51
f 13/38/52 11/39/53 12/40/54
f 11/41/55 13/42/56 23/43/57
f 15/28/58 13/44/59 12/34/60
f 15/28/61 12/34/62 14/33/63
f 15/28/64 14/33/65 9/29/66
f 15/28/67 8/27/68 16/45/69
f 16/22/70 22/46/71 15/47/72
f 17/48/73 22/46/74 16/22/75
f 17/49/76 19/50/77 21/51/78
f 19/50/79 17/49/80 18/52/81
f 17/53/82 1/1/83 18/3/84
f 20/54/85 21/51/86 19/50/87
f 20/6/88 4/8/89 10/30/90
f 4/8/91 9/55/92 10/30/93
f 4/56/94 8/23/95 9/57/96
f 20/6/97 10/30/98 21/58/99
f 10/59/100 22/60/101 21/51/102
f 17/49/103 21/51/104 22/60/105
f 22/61/106 10/62/107 23/43/108
f 23/43/109 10/62/110 11/41/111
f 23/63/112 13/64/113 15/47/114
f 22/46/115 23/63/116 15/47/117
f 19/65/118 18/3/119 20/5/120
f 17/48/121 16/22/122 1/21/123
f 5/66/124 2/2/125 3/67/126
