# Blender 3.6.22
# www.blender.org
mtllib CaveWalls2_A_COL.mtl
o CaveWalls2_A.006
v -31.877752 -16.170187 -5.647444
v -19.326727 -16.103193 2.258493
v -34.922604 -16.116001 3.149932
v -27.018143 4.558381 -6.841344
v -32.598846 16.175604 -4.723620
v -34.301479 15.772003 3.970615
v -15.287416 16.167019 2.649811
v -27.047125 -0.891125 5.916323
v -12.553943 6.534716 1.621537
v -17.994160 -0.764902 0.425447
v -0.163604 9.421495 5.910941
v -15.023946 8.881539 -6.158961
v -4.219170 16.008280 -4.760397
v 11.401108 16.189493 2.874808
v 4.051139 8.340554 -4.827779
v 19.914366 10.393349 6.064196
v 14.377907 5.019030 1.056891
v 27.853132 15.189556 -4.585480
v 33.941658 16.488960 4.128631
v 22.765326 -2.570465 6.967429
v 35.571602 14.593559 -0.636399
v 34.951515 -16.111380 3.544636
v 31.277355 -15.126169 -4.634448
v 19.609844 -15.021519 -5.181534
v 20.567015 6.033148 -5.368417
v 20.810032 -15.595665 4.682959
v 16.527065 -5.421550 1.941648
v 13.975074 12.828938 -7.001135
v -20.197798 -2.326061 -5.899285
v -22.834185 14.695082 -4.706942
v -19.492668 -13.697902 -5.241606
v -26.159521 -12.047064 5.976232
vn 0.0007 -0.8850 -0.4657
vn 0.4404 -0.7857 -0.4344
vn 0.3763 -0.8504 -0.3676
vn 0.0982 -0.9947 -0.0299
vn 0.0515 -0.9767 0.2082
vn -0.0794 -0.9401 0.3314
vn -0.3562 0.0538 -0.9328
vn -0.0807 0.0032 -0.9967
vn -0.2879 0.0292 -0.9572
vn -0.0230 -0.0314 -0.9992
vn -0.1442 -0.1413 -0.9794
vn -0.1212 -0.1897 -0.9743
vn -0.3459 -0.0434 0.9373
vn -0.3554 -0.0363 0.9340
vn -0.4079 -0.1039 0.9071
vn -0.3343 -0.0403 0.9416
vn -0.1531 -0.0718 0.9856
vn -0.4164 0.0022 0.9092
vn -0.9763 0.0384 -0.2130
vn -0.8828 -0.0751 -0.4638
vn -0.9762 0.0530 -0.2104
vn -0.9312 -0.0512 -0.3608
vn -0.9305 -0.0333 -0.3649
vn -0.9947 0.0472 -0.0916
vn -0.0346 0.9981 0.0510
vn -0.0674 0.9965 0.0499
vn -0.3433 0.8957 0.2828
vn 0.0800 0.0672 0.9945
vn 0.2715 0.1971 0.9420
vn 0.0338 0.0700 0.9970
vn 0.1154 0.7220 -0.6822
vn 0.0971 0.9208 -0.3777
vn 0.1032 0.9803 -0.1682
vn 0.4590 -0.0722 0.8855
vn 0.3790 -0.1485 0.9134
vn 0.5126 -0.0235 0.8583
vn 0.4972 -0.3815 0.7793
vn 0.3071 -0.2414 0.9206
vn 0.3806 -0.1695 0.9091
vn -0.0004 0.9744 -0.2246
vn -0.1083 0.8527 -0.5111
vn 0.0338 0.9966 -0.0750
vn -0.2664 -0.5324 0.8035
vn -0.2365 -0.2521 0.9383
vn 0.0191 -0.4975 0.8673
vn -0.0316 0.4417 -0.8966
vn -0.1842 0.0487 -0.9817
vn -0.2998 0.2995 -0.9058
vn 0.1610 0.4686 0.8686
vn -0.0453 0.6955 0.7171
vn 0.1289 0.2517 0.9592
vn -0.0076 0.9978 -0.0657
vn -0.0290 0.9990 -0.0336
vn 0.0256 0.9990 0.0373
vn -0.0873 0.2248 0.9705
vn -0.0367 0.4392 0.8976
vn 0.0015 0.1507 0.9886
vn -0.1184 -0.0733 -0.9903
vn 0.0815 0.1597 -0.9838
vn -0.1112 0.2296 -0.9669
vn -0.0448 -0.6075 0.7930
vn 0.1394 -0.8544 0.5006
vn -0.0521 -0.6266 0.7776
vn 0.0809 0.9579 -0.2756
vn -0.0134 0.9717 -0.2358
vn -0.0487 0.9986 -0.0199
vn 0.0391 0.9813 -0.1883
vn 0.1006 0.9797 -0.1733
vn -0.0515 0.9951 -0.0844
vn 0.1047 0.1753 0.9789
vn 0.0173 0.6306 0.7759
vn -0.1791 0.7239 0.6663
vn -0.2272 0.1484 0.9625
vn 0.0802 0.1062 0.9911
vn 0.1028 0.0381 0.9940
vn 0.4267 0.6775 -0.5991
vn 0.0809 0.8740 -0.4791
vn -0.0011 0.9989 -0.0463
vn 0.9900 -0.0210 0.1398
vn 0.9893 -0.1186 0.0852
vn 0.8578 0.1072 0.5028
vn 0.4666 -0.0807 0.8808
vn 0.4851 0.0132 0.8744
vn 0.3078 -0.0285 0.9510
vn 0.9835 0.0138 -0.1805
vn 0.8384 -0.2720 -0.4723
vn 0.9695 0.0668 -0.2356
vn 0.0813 -0.1599 0.9838
vn 0.1135 -0.2275 0.9671
vn 0.0026 -0.1186 0.9929
vn 0.4447 0.0283 -0.8952
vn 0.4336 0.0313 -0.9005
vn 0.3921 0.0675 -0.9174
vn -0.0333 0.1407 -0.9895
vn -0.2712 -0.0947 -0.9578
vn -0.0312 -0.1763 -0.9838
vn -0.0043 -0.9867 -0.1622
vn -0.0636 -0.9948 -0.0795
vn -0.0714 -0.9888 -0.1312
vn -0.0732 -0.9952 -0.0646
vn -0.1694 -0.9698 0.1754
vn -0.0805 -0.9916 -0.1012
vn -0.8006 -0.5992 -0.0000
vn -0.8322 -0.5528 0.0427
vn -0.9224 -0.3740 0.0968
vn -0.9266 -0.0532 -0.3722
vn -0.8348 0.1553 -0.5281
vn -0.9303 -0.1534 -0.3331
vn -0.5305 0.1369 0.8366
vn -0.5678 0.1030 0.8167
vn -0.5070 -0.1890 0.8410
vn -0.7153 -0.0505 0.6970
vn -0.5075 -0.0292 0.8612
vn -0.6725 -0.1305 0.7285
vn -0.6548 -0.4437 -0.6118
vn -0.7138 -0.1399 -0.6862
vn -0.7447 -0.3340 -0.5777
vn -0.5393 -0.1739 0.8240
vn -0.7296 -0.1521 0.6668
vn -0.5902 -0.0883 0.8024
vn -0.2864 -0.9124 -0.2924
vn -0.2223 -0.8518 -0.4743
vn -0.3902 -0.7836 -0.4835
vn 0.0899 -0.0868 -0.9922
vn 0.1126 -0.1944 -0.9744
vn -0.2079 -0.3888 -0.8976
vn -0.0008 0.0638 -0.9980
vn -0.0935 -0.3154 -0.9443
vn 0.1442 -0.1060 -0.9838
vn -0.0823 -0.9814 -0.1734
vn -0.0177 -0.9592 -0.2820
vn 0.1459 -0.9326 -0.3302
vn -0.2117 -0.8500 -0.4824
vn 0.0159 -0.9722 -0.2335
vn -0.2479 -0.8526 -0.4601
vn -0.1711 -0.8219 0.5433
vn -0.0314 -0.8944 0.4462
vn -0.1396 -0.7341 0.6645
vn 0.1183 -0.0931 -0.9886
vn 0.2868 0.0114 -0.9579
vn 0.2175 0.1073 -0.9701
vn 0.2649 -0.0608 -0.9624
vn -0.0771 0.1003 -0.9920
vn -0.1241 -0.0005 -0.9923
vn 0.8169 -0.5454 -0.1876
vn 0.9143 -0.3839 -0.1288
vn 0.8555 -0.4413 -0.2709
vn 0.7616 -0.5674 -0.3130
vn 0.7714 -0.6177 0.1529
vn 0.8945 -0.4149 -0.1667
vn 0.0119 0.3261 -0.9453
vn 0.1062 0.1581 -0.9817
vn 0.0271 0.1403 -0.9897
vn -0.1322 0.3658 -0.9213
vn 0.0525 0.2829 -0.9577
vn -0.0450 0.2213 -0.9742
vn -0.1368 -0.2588 -0.9562
vn 0.2225 0.1741 -0.9593
vn 0.1542 -0.1016 -0.9828
vn 0.9110 0.0502 -0.4094
vn 0.9518 0.0531 -0.3020
vn 0.9284 -0.0357 -0.3699
vn 0.9861 -0.1499 0.0716
vn 0.9814 -0.1716 -0.0861
vn 0.9967 -0.0309 0.0747
vn 0.3923 -0.0268 0.9194
vn 0.5992 0.1610 0.7842
vn 0.3673 0.0913 0.9256
vn 0.1355 -0.5147 0.8466
vn -0.2163 -0.6398 0.7375
vn 0.2407 -0.4963 0.8341
vn 0.5710 -0.0493 0.8195
vn 0.4410 0.0271 0.8971
vn 0.4580 0.0526 0.8874
vn -0.0641 0.4816 -0.8741
vn -0.0670 0.4936 -0.8671
vn 0.1616 0.6506 -0.7421
vn 0.0285 -0.0291 -0.9992
vn 0.1634 0.0572 -0.9849
vn 0.0796 -0.0752 -0.9940
vt 0.727911 0.914947
vt 0.780315 0.908439
vt 0.775963 0.930496
vt 0.720307 0.945786
vt 0.121684 0.469098
vt 0.171883 0.491672
vt 0.223328 0.575560
vt 0.256471 0.539914
vt 0.676320 0.049586
vt 0.738586 0.073143
vt 0.655102 0.082519
vt 0.795677 0.109836
vt 0.445529 0.814920
vt 0.584638 0.844687
vt 0.575576 0.861014
vt 0.443904 0.799537
vt 0.323890 0.442275
vt 0.264917 0.486613
vt 0.242895 0.462182
vt 0.504865 0.309571
vt 0.467846 0.225687
vt 0.535204 0.244916
vt 0.308587 0.478725
vt 0.454008 0.248522
vt 0.473708 0.295119
vt 0.395108 0.454039
vt 0.386406 0.228565
vt 0.222951 0.376840
vt 0.198385 0.432535
vt 0.156583 0.446098
vt 0.347547 0.191290
vt 0.460419 0.402567
vt 0.306895 0.192172
vt 0.268887 0.370284
vt 0.297235 0.321397
vt 0.797106 0.680354
vt 0.804377 0.586823
vt 0.826918 0.588753
vt 0.543727 0.408412
vt 0.562348 0.370033
vt 0.945087 0.270908
vt 0.935647 0.308335
vt 0.929228 0.236724
vt 0.296520 0.203362
vt 0.262374 0.263410
vt 0.238165 0.164237
vt 0.504761 0.120266
vt 0.528455 0.112070
vt 0.514650 0.129300
vt 0.125042 0.166094
vt 0.052219 0.206825
vt 0.054573 0.194926
vt 0.200080 0.312231
vt 0.845742 0.770042
vt 0.859941 0.771317
vt 0.797990 0.903125
vt 0.257629 0.323263
vt 0.140679 0.179418
vt 0.253926 0.124667
vt 0.209488 0.170139
vt 0.437500 0.365834
vt 0.416685 0.391805
vt 0.345073 0.327232
vt 0.971368 0.753074
vt 0.951028 0.781681
vt 0.954029 0.718920
vt 0.927183 0.731003
vt 0.153913 0.146469
vt 0.129077 0.129023
vt 0.177642 0.104202
vt 0.230510 0.103531
vt 0.864429 0.205901
vt 0.885383 0.193412
vt 0.881465 0.219915
vt 0.851234 0.152913
vt 0.213568 0.075148
vt 0.838540 0.176690
vt 0.745174 0.862774
vt 0.700499 0.834640
vt 0.772140 0.831596
vt 0.739119 0.822971
vt 0.343306 0.274201
vt 0.618010 0.851106
vt 0.604257 0.829901
vt 0.761275 0.706026
vt 0.218209 0.493098
vt 0.394843 0.161919
vt 0.426140 0.150582
vt 0.424356 0.171838
vt 0.408686 0.137528
vt 0.429621 0.134970
vt 0.437103 0.122162
vt 0.490560 0.163444
vt 0.503004 0.140767
vt 0.463617 0.372272
vt 0.462132 0.343679
vt 0.617447 0.103742
vt 0.590889 0.112869
vt 0.614451 0.076403
vt 0.493406 0.368345
vt 0.504479 0.427134
s 0
usemtl CaveWalls02.005
f 1/1/1 31/2/2 2/3/3
f 1/1/4 2/3/5 3/4/6
f 5/5/7 4/6/8 1/7/9
f 31/8/10 1/7/11 4/6/12
f 32/9/13 8/10/14 3/11/15
f 3/11/16 8/10/17 6/12/18
f 6/13/19 1/14/20 3/15/21
f 5/16/22 1/14/23 6/13/24
f 7/17/25 5/18/26 6/19/27
f 8/20/28 7/21/29 6/22/30
f 30/23/31 5/18/32 7/17/33
f 9/24/34 7/21/35 8/20/36
f 10/25/37 9/24/38 8/20/39
f 13/26/40 30/23/41 7/17/42
f 11/27/43 7/21/44 9/24/45
f 13/28/46 12/29/47 30/30/48
f 14/31/49 7/21/50 11/27/51
f 13/26/52 7/17/53 14/32/54
f 16/33/55 14/31/56 11/27/57
f 15/34/58 13/28/59 28/35/60
f 11/36/61 17/37/62 16/38/63
f 18/39/64 13/26/65 14/32/66
f 19/40/67 18/39/68 14/32/69
f 16/41/70 19/42/71 14/43/72
f 16/44/73 20/45/74 19/46/75
f 21/47/76 18/48/77 19/49/78
f 22/50/79 21/51/80 19/52/81
f 22/53/82 19/46/83 20/45/84
f 22/54/85 23/55/86 21/56/87
f 26/57/88 22/53/89 20/45/90
f 21/58/91 23/59/92 18/60/93
f 23/61/94 24/62/95 25/63/96
f 23/64/97 22/65/98 24/66/99
f 22/65/100 26/67/101 24/66/102
f 24/68/103 26/69/104 27/70/105
f 27/70/106 25/71/107 24/68/108
f 20/72/109 27/73/110 26/74/111
f 27/73/112 20/72/113 17/75/114
f 25/71/115 27/70/116 17/76/117
f 16/77/118 17/75/119 20/72/120
f 17/78/121 15/79/122 25/80/123
f 28/81/124 25/80/125 15/79/126
f 18/82/127 25/63/128 28/35/129
f 9/83/130 12/84/131 15/79/132
f 15/79/133 17/78/134 9/83/135
f 9/85/136 17/37/137 11/36/138
f 12/29/139 13/28/140 15/34/141
f 12/29/142 29/86/143 30/30/144
f 12/87/145 10/88/146 29/89/147
f 12/87/148 9/90/149 10/88/150
f 29/86/151 4/6/152 30/30/153
f 5/5/154 30/30/155 4/6/156
f 29/86/157 31/8/158 4/6/159
f 29/91/160 10/92/161 31/93/162
f 2/94/163 31/93/164 10/92/165
f 2/95/166 10/96/167 8/20/168
f 32/97/169 3/98/170 2/99/171
f 2/95/172 8/20/173 32/100/174
f 28/101/175 13/26/176 18/39/177
f 25/63/178 18/82/179 23/61/180
