# Blender 3.6.22
# www.blender.org
mtllib CaveWalls2_B_COL.mtl
o CaveWalls2_B.003
v 4.339164 -16.009432 -3.513226
v 11.683206 -6.559084 -6.724043
v -5.096103 -15.885102 -4.094896
v 13.002931 -15.986613 3.810949
v 19.426712 -6.343549 5.341810
v -13.409751 -16.188278 3.854163
v -3.411665 -14.837325 5.747850
v -21.094648 -15.489169 -3.801530
v -16.489014 -8.772072 6.673864
v -32.726505 -15.664224 5.673767
v -15.736347 7.182240 4.100089
v -30.490271 15.767695 5.993395
v -34.038364 15.570278 -1.304887
v -23.387188 15.428066 -4.404122
v -29.339550 -15.715679 -5.237109
v -11.203218 -3.975511 -6.618724
v -3.642390 5.739683 -3.291621
v 5.996484 0.334579 -5.373281
v 11.308909 -0.797094 2.574391
v 0.012285 2.973333 6.178209
v 30.261940 -5.763357 -2.916576
v 32.291706 -5.885316 4.692271
v 21.914677 -15.455058 -4.952859
v 34.572315 -15.632936 -0.195123
v 32.259861 -16.192694 4.541958
v -6.085474 9.770161 1.118734
v -11.970946 16.156921 4.116063
v -9.918067 15.031590 -4.891880
vn -0.1770 -0.1212 -0.9767
vn -0.1852 -0.1520 -0.9709
vn -0.1361 -0.1784 -0.9745
vn -0.0983 -0.3945 -0.9136
vn -0.0029 -0.4092 -0.9124
vn -0.1010 -0.2620 -0.9598
vn -0.0084 -0.9906 -0.1366
vn 0.0245 -0.9993 -0.0298
vn 0.0107 -0.9979 -0.0637
vn 0.0378 -0.9939 -0.1040
vn 0.0307 -0.9994 -0.0128
vn 0.0420 -0.9417 -0.3338
vn 0.1343 -0.0369 0.9902
vn 0.1540 -0.0485 0.9869
vn 0.0778 -0.1133 0.9905
vn -0.3203 -0.0131 0.9472
vn -0.1710 0.0108 0.9852
vn -0.1242 0.1319 0.9835
vn 0.2603 0.2232 0.9394
vn 0.1897 0.2592 0.9470
vn 0.2964 0.1670 0.9404
vn -0.0524 -0.9642 0.2600
vn 0.1440 -0.9039 0.4027
vn 0.0201 -0.5697 0.8216
vn -0.0366 -0.6190 -0.7846
vn -0.0325 -0.5185 -0.8545
vn -0.1248 -0.2783 -0.9523
vn -0.1837 -0.9704 -0.1567
vn -0.0122 -0.9987 -0.0496
vn -0.0335 -0.9981 -0.0516
vn 0.3298 -0.2066 0.9212
vn 0.2466 0.0557 0.9675
vn 0.2077 -0.1342 0.9689
vn 0.0914 -0.9918 -0.0891
vn 0.1087 -0.9614 0.2526
vn -0.0634 -0.8739 0.4820
vn -0.0787 -0.2602 0.9623
vn 0.0683 -0.3138 0.9470
vn 0.0715 -0.4540 0.8881
vn -0.1557 0.0166 0.9877
vn -0.1051 0.0165 0.9943
vn -0.1754 0.0410 0.9836
vn 0.1235 0.2926 0.9482
vn 0.1844 0.1821 0.9658
vn 0.1513 0.2254 0.9624
vn -0.8510 0.0300 0.5243
vn -0.7646 0.0283 0.6439
vn -0.9783 0.1167 0.1712
vn 0.3537 0.9296 -0.1036
vn -0.0374 0.9992 -0.0116
vn 0.0416 0.9991 -0.0029
vn -0.0106 0.1824 -0.9832
vn -0.3058 0.0601 -0.9502
vn -0.3718 0.0587 -0.9265
vn 0.1725 -0.0091 -0.9850
vn 0.1579 -0.0118 -0.9874
vn -0.0366 0.0814 -0.9960
vn -0.1122 0.0193 -0.9935
vn -0.1838 0.0032 -0.9830
vn -0.1551 0.0043 -0.9879
vn 0.0691 -0.8777 -0.4741
vn 0.0212 -0.9964 -0.0820
vn 0.0230 -0.9602 -0.2782
vn -0.0780 0.1098 -0.9909
vn -0.0136 0.0981 -0.9951
vn 0.0673 0.0298 -0.9973
vn 0.3643 0.9237 0.1189
vn 0.3597 0.9312 0.0586
vn 0.3056 0.9461 -0.1069
vn 0.4208 0.8109 -0.4066
vn 0.3744 0.8818 -0.2869
vn 0.5286 0.8331 -0.1626
vn -0.1196 -0.0068 0.9928
vn -0.2438 -0.1564 0.9571
vn -0.1995 0.0598 0.9781
vn 0.1074 0.8098 -0.5768
vn 0.2211 0.7437 -0.6309
vn 0.1363 0.7943 -0.5921
vn 0.2033 0.2485 0.9471
vn 0.1189 0.4380 0.8911
vn 0.0919 0.6335 0.7683
vn 0.2240 0.0499 -0.9733
vn 0.1214 0.1668 -0.9785
vn 0.2934 0.1864 -0.9376
vn 0.1977 0.9726 -0.1220
vn 0.1865 0.9651 -0.1841
vn 0.2165 0.9725 -0.0853
vn 0.5775 0.7663 -0.2815
vn 0.6725 0.6890 -0.2702
vn 0.5738 0.8131 -0.0980
vn -0.1832 -0.0240 -0.9828
vn -0.2929 0.0307 -0.9556
vn -0.3446 0.0438 -0.9377
vn 0.0867 -0.9855 -0.1459
vn 0.0092 -0.9999 -0.0074
vn 0.0075 -0.9959 -0.0901
vn 0.0473 -0.9950 -0.0878
vn -0.0024 -0.9948 0.1015
vn -0.0951 -0.9564 0.2762
vn 0.1554 -0.9656 -0.2083
vn 0.0202 -0.9896 -0.1426
vn 0.0258 -0.9924 -0.1202
vn 0.0593 -0.1802 0.9818
vn 0.0178 -0.0515 0.9985
vn -0.0729 -0.2110 0.9748
vn -0.0109 0.0441 0.9990
vn 0.1124 -0.0542 0.9922
vn 0.0311 -0.0044 0.9995
vn 0.6964 0.1032 0.7102
vn 0.7586 -0.0768 0.6470
vn 0.8878 -0.1609 0.4312
vn 0.9656 0.1766 -0.1910
vn 0.7946 0.5279 -0.2999
vn 0.8592 0.4846 0.1643
vn 0.3522 -0.0650 -0.9337
vn 0.1272 -0.0662 -0.9897
vn 0.3040 -0.0360 -0.9520
vn -0.0481 0.0327 0.9983
vn -0.0690 0.0917 0.9934
vn -0.0769 0.2022 0.9763
vn 0.5361 0.4715 0.7002
vn 0.1993 0.6285 0.7518
vn -0.2146 0.5907 0.7778
vn 0.0454 0.1790 0.9828
vn 0.2760 0.0949 0.9565
vn 0.2540 -0.0895 0.9631
vn 0.6864 0.6903 0.2287
vn 0.8010 0.5568 -0.2197
vn 0.9306 0.3463 -0.1191
vn 0.9120 0.3610 -0.1947
vn 0.8214 0.5451 -0.1678
vn 0.7849 0.6104 0.1061
vn 0.2343 -0.1311 0.9633
vn 0.3727 0.0743 0.9250
vn 0.0403 -0.0324 0.9987
vn 0.5915 0.7579 0.2751
vn 0.8525 0.4856 0.1937
vn 0.6873 0.7235 0.0645
vn 0.3048 0.1747 -0.9363
vn 0.3679 0.1573 -0.9165
vn 0.1595 -0.0448 -0.9862
vn -0.0465 0.9975 -0.0529
vn 0.0142 0.9933 0.1146
vn -0.0287 0.9959 0.0861
vn 0.1924 0.8842 -0.4256
vn -0.0112 0.9167 -0.3994
vn 0.1852 0.9795 -0.0794
vn -0.0841 0.1051 -0.9909
vn -0.0918 0.0770 -0.9928
vn -0.0701 0.0430 -0.9966
vn 0.2054 0.2281 -0.9517
vn 0.2256 0.0937 -0.9697
vn 0.1248 -0.0365 -0.9915
vn -0.8540 -0.0104 -0.5202
vn -0.9746 -0.0946 -0.2029
vn -0.9011 -0.0449 -0.4313
vt 0.441417 0.730530
vt 0.484882 0.780304
vt 0.392659 0.761659
vt 0.349247 0.745572
vt 0.735495 0.623257
vt 0.791715 0.585041
vt 0.722765 0.730912
vt 0.712199 0.672631
vt 0.679393 0.547964
vt 0.671760 0.666908
vt 0.611143 0.606837
vt 0.726469 0.562062
vt 0.691730 0.635337
vt 0.955183 0.706117
vt 0.895314 0.667648
vt 0.945452 0.689075
vt 0.278565 0.721483
vt 0.334042 0.678066
vt 0.685875 0.727528
vt 0.582068 0.668627
vt 0.570896 0.639195
vt 0.666120 0.775707
vt 0.690416 0.803901
vt 0.539075 0.734747
vt 0.596606 0.805972
vt 0.630279 0.731636
vt 0.777479 0.140020
vt 0.856764 0.264128
vt 0.840162 0.263144
vt 0.071349 0.691847
vt 0.072769 0.739177
vt 0.043812 0.738412
vt 0.301497 0.578233
vt 0.239655 0.709960
vt 0.265705 0.574686
vt 0.425658 0.695563
vt 0.390625 0.656994
vt 0.584616 0.062477
vt 0.589954 0.052365
vt 0.599510 0.073973
vt 0.757052 0.220024
vt 0.729786 0.168564
vt 0.790322 0.219916
vt 0.837950 0.311792
vt 0.769498 0.249863
vt 0.770426 0.737806
vt 0.815501 0.704168
vt 0.758611 0.774470
vt 0.527866 0.763885
vt 0.867715 0.310516
vt 0.751107 0.575676
vt 0.822997 0.516986
vt 0.800430 0.508332
vt 0.744111 0.491719
vt 0.765111 0.527448
vt 0.885809 0.533664
vt 0.903659 0.566921
vt 0.887303 0.559528
vt 0.874220 0.532600
vt 0.529134 0.800190
vt 0.081881 0.168765
vt 0.088726 0.148106
vt 0.108686 0.153101
vt 0.337800 0.081960
vt 0.327300 0.059419
vt 0.353455 0.056526
vt 0.746380 0.138840
vt 0.756905 0.144934
vt 0.929968 0.185304
vt 0.893312 0.185086
vt 0.928173 0.166229
vt 0.664230 0.743865
vt 0.896140 0.150542
vt 0.364536 0.600487
vt 0.030008 0.657972
vt 0.062314 0.636451
vt 0.255029 0.081367
vt 0.269693 0.064258
vt 0.365631 0.164208
s 0
usemtl CaveWalls02.006
f 2/1/1 23/2/2 1/3/3
f 1/3/4 3/4/5 2/1/6
f 1/5/7 4/6/8 6/7/9
f 1/5/10 6/7/11 3/8/12
f 4/9/13 20/10/14 7/11/15
f 5/12/16 19/13/17 4/9/18
f 4/9/19 19/13/20 20/10/21
f 6/14/22 4/15/23 7/16/24
f 3/4/25 8/17/26 16/18/27
f 8/19/28 3/8/29 6/7/30
f 9/20/31 6/21/32 20/10/33
f 15/22/34 6/7/35 10/23/36
f 6/21/37 9/20/38 10/24/39
f 9/20/40 12/25/41 10/24/42
f 9/20/43 11/26/44 12/25/45
f 10/27/46 12/28/47 13/29/48
f 14/30/49 13/31/50 12/32/51
f 14/33/52 15/34/53 13/35/54
f 15/34/55 14/33/56 8/17/57
f 16/18/58 8/17/59 14/33/60
f 8/19/61 6/7/62 15/22/63
f 18/36/64 3/4/65 17/37/66
f 20/38/67 19/39/68 17/40/69
f 18/41/70 17/42/71 19/43/72
f 7/11/73 20/10/74 6/21/75
f 19/43/76 21/44/77 2/45/78
f 5/46/79 22/47/80 19/48/81
f 23/2/82 2/1/83 21/49/84
f 21/44/85 19/43/86 22/50/87
f 2/45/88 18/41/89 19/43/90
f 2/1/91 3/4/92 18/36/93
f 23/51/94 4/6/95 1/5/96
f 23/51/97 25/52/98 4/6/99
f 24/53/100 25/52/101 23/51/102
f 25/54/103 5/12/104 4/9/105
f 5/12/106 25/54/107 22/55/108
f 22/56/109 25/57/110 24/58/111
f 24/58/112 21/59/113 22/56/114
f 24/60/115 23/2/116 21/49/117
f 9/20/118 20/10/119 11/26/120
f 20/61/121 26/62/122 11/63/123
f 11/64/124 26/65/125 27/66/126
f 26/67/127 20/68/128 17/42/129
f 17/69/130 28/70/131 26/71/132
f 11/26/133 27/72/134 12/25/135
f 27/73/136 26/71/137 28/70/138
f 28/74/139 17/37/140 16/18/141
f 14/30/142 12/32/143 27/75/144
f 28/76/145 14/30/146 27/75/147
f 28/74/148 16/18/149 14/33/150
f 3/4/151 16/18/152 17/37/153
f 15/77/154 10/78/155 13/79/156
