# Blender 3.6.22
# www.blender.org
mtllib Coin_obj.mtl
o Cylinder001.003
v 1.689623 0.614967 0.093861
v 1.377398 1.155767 0.093861
v 0.899023 1.557167 0.093861
v 0.312223 1.770742 0.093861
v -0.312227 1.770742 0.093861
v -0.899027 1.557167 0.093861
v -1.377402 1.155767 0.093861
v -1.689626 0.614967 0.093861
v -1.798052 -0.000008 0.093861
v -1.689626 -0.614983 0.093861
v -1.377402 -1.155758 0.093861
v -0.899027 -1.557158 0.093861
v -0.312227 -1.770733 0.093861
v 0.312223 -1.770733 0.093861
v 0.899023 -1.557158 0.093861
v 1.377398 -1.155758 0.093861
v 1.689623 -0.614983 0.093861
v 1.798073 -0.000008 0.093861
v 1.689623 -0.614983 0.056311
v 1.798073 -0.000008 0.056311
v 1.377398 -1.155758 0.056311
v 0.899023 -1.557158 0.056311
v 0.312223 -1.770733 0.056311
v -0.312227 -1.770733 0.056311
v -0.899027 -1.557158 0.056311
v -1.377402 -1.155758 0.056311
v -1.689626 -0.614983 0.056311
v -1.798052 -0.000008 0.056311
v -1.689626 0.614967 0.056311
v -1.377402 1.155767 0.056311
v -0.899027 1.557167 0.056311
v -0.312227 1.770742 0.056311
v 0.312223 1.770742 0.056311
v 0.899023 1.557167 0.056311
v 1.377398 1.155767 0.056311
v 1.689623 0.614967 0.056311
v 1.689623 -0.614983 0.018761
v 1.798073 -0.000008 0.018761
v 1.377398 -1.155758 0.018761
v 0.899023 -1.557158 0.018761
v 0.312223 -1.770733 0.018761
v -0.312227 -1.770733 0.018761
v -0.899027 -1.557158 0.018761
v -1.377402 -1.155758 0.018761
v -1.689626 -0.614983 0.018761
v -1.798052 -0.000008 0.018761
v -1.689626 0.614967 0.018761
v -1.377402 1.155767 0.018761
v -0.899027 1.557167 0.018761
v -0.312227 1.770742 0.018761
v 0.312223 1.770742 0.018761
v 0.899023 1.557167 0.018761
v 1.377398 1.155767 0.018761
v 1.689623 0.614967 0.018761
v 1.689623 -0.614983 -0.018764
v 1.798073 -0.000008 -0.018764
v 1.377398 -1.155758 -0.018764
v 0.899023 -1.557158 -0.018764
v 0.312223 -1.770733 -0.018764
v -0.312227 -1.770733 -0.018764
v -0.899027 -1.557158 -0.018764
v -1.377402 -1.155758 -0.018764
v -1.689626 -0.614983 -0.018764
v -1.798052 -0.000008 -0.018764
v -1.689626 0.614967 -0.018764
v -1.377402 1.155767 -0.018763
v -0.899027 1.557167 -0.018763
v -0.312227 1.770742 -0.018763
v 0.312223 1.770742 -0.018763
v 0.899023 1.557167 -0.018763
v 1.377398 1.155767 -0.018763
v 1.689623 0.614967 -0.018764
v 1.689623 -0.614983 -0.056314
v 1.798073 -0.000008 -0.056314
v 1.377398 -1.155758 -0.056314
v 0.899023 -1.557158 -0.056314
v 0.312223 -1.770733 -0.056314
v -0.312227 -1.770733 -0.056314
v -0.899027 -1.557158 -0.056314
v -1.377402 -1.155758 -0.056314
v -1.689626 -0.614983 -0.056314
v -1.798052 -0.000008 -0.056314
v -1.689626 0.614967 -0.056313
v -1.377402 1.155767 -0.056313
v -0.899027 1.557167 -0.056313
v -0.312227 1.770742 -0.056313
v 0.312223 1.770742 -0.056313
v 0.899023 1.557167 -0.056313
v 1.377398 1.155767 -0.056313
v 1.689623 0.614967 -0.056313
v 1.689623 -0.614983 -0.093864
v 1.798073 -0.000008 -0.093863
v 1.377398 -1.155758 -0.093864
v 0.899023 -1.557158 -0.093864
v 0.312223 -1.770733 -0.093864
v -0.312227 -1.770733 -0.093864
v -0.899027 -1.557158 -0.093864
v -1.377402 -1.155758 -0.093864
v -1.689626 -0.614983 -0.093864
v -1.798052 -0.000008 -0.093863
v -1.689626 0.614967 -0.093863
v -1.377402 1.155767 -0.093863
v -0.899027 1.557167 -0.093863
v -0.312227 1.770742 -0.093863
v 0.312223 1.770742 -0.093863
v 0.899023 1.557167 -0.093863
v 1.377398 1.155767 -0.093863
v 1.689623 0.614967 -0.093863
vn 0.1289 0.7311 0.6700
vn -0.3712 -0.6429 0.6700
vn 0.5687 -0.4772 0.6700
vn 0.6976 -0.2539 0.6700
vn 1.0000 -0.0000 -0.0000
vn 0.7423 -0.0000 0.6700
vn 0.9397 -0.3420 -0.0000
vn 0.3712 -0.6429 0.6700
vn 0.7660 -0.6428 -0.0000
vn 0.1289 -0.7311 0.6700
vn 0.5000 -0.8660 -0.0000
vn -0.1289 -0.7311 0.6700
vn 0.1736 -0.9848 -0.0000
vn -0.1736 -0.9848 -0.0000
vn -0.5687 -0.4772 0.6700
vn -0.5000 -0.8660 -0.0000
vn -0.6976 -0.2539 0.6700
vn -0.7660 -0.6428 -0.0000
vn -0.7423 -0.0000 0.6700
vn -0.9397 -0.3420 -0.0000
vn -0.6976 0.2539 0.6700
vn -1.0000 -0.0000 -0.0000
vn -0.5687 0.4772 0.6700
vn -0.9397 0.3420 -0.0000
vn -0.3712 0.6429 0.6700
vn -0.7660 0.6428 -0.0000
vn -0.1289 0.7311 0.6700
vn -0.5000 0.8660 -0.0000
vn -0.1736 0.9848 -0.0000
vn 0.3712 0.6429 0.6700
vn 0.1736 0.9848 -0.0000
vn 0.5687 0.4772 0.6700
vn 0.5000 0.8660 -0.0000
vn 0.6976 0.2539 0.6700
vn 0.7660 0.6428 -0.0000
vn 0.9397 0.3420 -0.0000
vn 0.7423 -0.0000 -0.6700
vn 0.6976 -0.2539 -0.6700
vn 0.5687 -0.4772 -0.6700
vn 0.3712 -0.6429 -0.6700
vn 0.1289 -0.7311 -0.6700
vn -0.1289 -0.7311 -0.6700
vn -0.3712 -0.6429 -0.6700
vn -0.5687 -0.4772 -0.6700
vn -0.6976 -0.2539 -0.6700
vn -0.7423 -0.0000 -0.6700
vn -0.6976 0.2539 -0.6700
vn -0.5687 0.4772 -0.6700
vn -0.3712 0.6429 -0.6700
vn -0.1289 0.7311 -0.6700
vn 0.1289 0.7311 -0.6700
vn 0.3712 0.6429 -0.6700
vn 0.5687 0.4772 -0.6700
vn 0.6976 0.2539 -0.6700
vt 0.636200 0.015200
vt 0.549200 1.000000
vt 0.015300 0.629900
vt 1.010000 0.000000
vt 0.000000 1.000000
vt 0.000000 0.000000
vt 0.045600 0.287900
vt 0.146500 0.145100
vt 0.290800 0.045100
vt 0.460800 0.000000
vt 0.795800 0.088900
vt 0.920300 0.212100
vt 0.994700 0.370100
vt 1.010000 0.543700
vt 0.964400 0.712100
vt 0.863500 0.854900
vt 0.719200 0.954900
vt 0.373800 0.984800
vt 0.214200 0.911100
vt 0.089700 0.787900
vt 0.000000 0.456300
vt 1.010000 1.000000
s 1
usemtl 01___Default
f 4/1/1 12/2/2 16/3/3
f 17/4/4 20/5/5 18/6/6
f 16/4/3 19/5/7 17/6/4
f 15/4/8 21/5/9 16/6/3
f 14/4/10 22/5/11 15/6/8
f 13/4/12 23/5/13 14/6/10
f 12/4/2 24/5/14 13/6/12
f 11/4/15 25/5/16 12/6/2
f 10/4/17 26/5/18 11/6/15
f 9/4/19 27/5/20 10/6/17
f 8/4/21 28/5/22 9/6/19
f 7/4/23 29/5/24 8/6/21
f 6/4/25 30/5/26 7/6/23
f 5/4/27 31/5/28 6/6/25
f 4/4/1 32/5/29 5/6/27
f 3/4/30 33/5/31 4/6/1
f 2/4/32 34/5/33 3/6/30
f 1/4/34 35/5/35 2/6/32
f 18/4/6 36/5/36 1/6/34
f 19/4/7 38/5/5 20/6/5
f 21/4/9 37/5/7 19/6/7
f 22/4/11 39/5/9 21/6/9
f 23/4/13 40/5/11 22/6/11
f 24/4/14 41/5/13 23/6/13
f 25/4/16 42/5/14 24/6/14
f 26/4/18 43/5/16 25/6/16
f 27/4/20 44/5/18 26/6/18
f 28/4/22 45/5/20 27/6/20
f 29/4/24 46/5/22 28/6/22
f 30/4/26 47/5/24 29/6/24
f 31/4/28 48/5/26 30/6/26
f 32/4/29 49/5/28 31/6/28
f 33/4/31 50/5/29 32/6/29
f 34/4/33 51/5/31 33/6/31
f 35/4/35 52/5/33 34/6/33
f 36/4/36 53/5/35 35/6/35
f 20/4/5 54/5/36 36/6/36
f 37/4/7 56/5/5 38/6/5
f 39/4/9 55/5/7 37/6/7
f 40/4/11 57/5/9 39/6/9
f 41/4/13 58/5/11 40/6/11
f 42/4/14 59/5/13 41/6/13
f 43/4/16 60/5/14 42/6/14
f 44/4/18 61/5/16 43/6/16
f 45/4/20 62/5/18 44/6/18
f 46/4/22 63/5/20 45/6/20
f 47/4/24 64/5/22 46/6/22
f 48/4/26 65/5/24 47/6/24
f 49/4/28 66/5/26 48/6/26
f 50/4/29 67/5/28 49/6/28
f 51/4/31 68/5/29 50/6/29
f 52/4/33 69/5/31 51/6/31
f 53/4/35 70/5/33 52/6/33
f 54/4/36 71/5/35 53/6/35
f 38/4/5 72/5/36 54/6/36
f 55/4/7 74/5/5 56/6/5
f 57/4/9 73/5/7 55/6/7
f 58/4/11 75/5/9 57/6/9
f 59/4/13 76/5/11 58/6/11
f 60/4/14 77/5/13 59/6/13
f 61/4/16 78/5/14 60/6/14
f 62/4/18 79/5/16 61/6/16
f 63/4/20 80/5/18 62/6/18
f 64/4/22 81/5/20 63/6/20
f 65/4/24 82/5/22 64/6/22
f 66/4/26 83/5/24 65/6/24
f 67/4/28 84/5/26 66/6/26
f 68/4/29 85/5/28 67/6/28
f 69/4/31 86/5/29 68/6/29
f 70/4/33 87/5/31 69/6/31
f 71/4/35 88/5/33 70/6/33
f 72/4/36 89/5/35 71/6/35
f 56/4/5 90/5/36 72/6/36
f 73/4/7 92/5/37 74/6/5
f 75/4/9 91/5/38 73/6/7
f 76/4/11 93/5/39 75/6/9
f 77/4/13 94/5/40 76/6/11
f 78/4/14 95/5/41 77/6/13
f 79/4/16 96/5/42 78/6/14
f 80/4/18 97/5/43 79/6/16
f 81/4/20 98/5/44 80/6/18
f 82/4/22 99/5/45 81/6/20
f 83/4/24 100/5/46 82/6/22
f 84/4/26 101/5/47 83/6/24
f 85/4/28 102/5/48 84/6/26
f 86/4/29 103/5/49 85/6/28
f 87/4/31 104/5/50 86/6/29
f 88/4/33 105/5/51 87/6/31
f 89/4/35 106/5/52 88/6/33
f 90/4/36 107/5/53 89/6/35
f 74/4/5 108/5/54 90/6/36
f 93/1/39 101/2/47 105/3/51
f 18/7/6 1/8/34 2/9/32
f 2/9/32 3/10/30 4/1/1
f 4/1/1 5/11/27 6/12/25
f 6/12/25 7/13/23 8/14/21
f 8/14/21 9/15/19 10/16/17
f 10/16/17 11/17/15 12/2/2
f 12/2/2 13/18/12 14/19/10
f 14/19/10 15/20/8 16/3/3
f 16/3/3 17/21/4 18/7/6
f 18/7/6 2/9/32 4/1/1
f 4/1/1 6/12/25 8/14/21
f 8/14/21 10/16/17 12/2/2
f 12/2/2 14/19/10 16/3/3
f 16/3/3 18/7/6 4/1/1
f 4/1/1 8/14/21 12/2/2
f 17/4/4 19/22/7 20/5/5
f 16/4/3 21/22/9 19/5/7
f 15/4/8 22/22/11 21/5/9
f 14/4/10 23/22/13 22/5/11
f 13/4/12 24/22/14 23/5/13
f 12/4/2 25/22/16 24/5/14
f 11/4/15 26/22/18 25/5/16
f 10/4/17 27/22/20 26/5/18
f 9/4/19 28/22/22 27/5/20
f 8/4/21 29/22/24 28/5/22
f 7/4/23 30/22/26 29/5/24
f 6/4/25 31/22/28 30/5/26
f 5/4/27 32/22/29 31/5/28
f 4/4/1 33/22/31 32/5/29
f 3/4/30 34/22/33 33/5/31
f 2/4/32 35/22/35 34/5/33
f 1/4/34 36/22/36 35/5/35
f 18/4/6 20/22/5 36/5/36
f 19/4/7 37/22/7 38/5/5
f 21/4/9 39/22/9 37/5/7
f 22/4/11 40/22/11 39/5/9
f 23/4/13 41/22/13 40/5/11
f 24/4/14 42/22/14 41/5/13
f 25/4/16 43/22/16 42/5/14
f 26/4/18 44/22/18 43/5/16
f 27/4/20 45/22/20 44/5/18
f 28/4/22 46/22/22 45/5/20
f 29/4/24 47/22/24 46/5/22
f 30/4/26 48/22/26 47/5/24
f 31/4/28 49/22/28 48/5/26
f 32/4/29 50/22/29 49/5/28
f 33/4/31 51/22/31 50/5/29
f 34/4/33 52/22/33 51/5/31
f 35/4/35 53/22/35 52/5/33
f 36/4/36 54/22/36 53/5/35
f 20/4/5 38/22/5 54/5/36
f 37/4/7 55/22/7 56/5/5
f 39/4/9 57/22/9 55/5/7
f 40/4/11 58/22/11 57/5/9
f 41/4/13 59/22/13 58/5/11
f 42/4/14 60/22/14 59/5/13
f 43/4/16 61/22/16 60/5/14
f 44/4/18 62/22/18 61/5/16
f 45/4/20 63/22/20 62/5/18
f 46/4/22 64/22/22 63/5/20
f 47/4/24 65/22/24 64/5/22
f 48/4/26 66/22/26 65/5/24
f 49/4/28 67/22/28 66/5/26
f 50/4/29 68/22/29 67/5/28
f 51/4/31 69/22/31 68/5/29
f 52/4/33 70/22/33 69/5/31
f 53/4/35 71/22/35 70/5/33
f 54/4/36 72/22/36 71/5/35
f 38/4/5 56/22/5 72/5/36
f 55/4/7 73/22/7 74/5/5
f 57/4/9 75/22/9 73/5/7
f 58/4/11 76/22/11 75/5/9
f 59/4/13 77/22/13 76/5/11
f 60/4/14 78/22/14 77/5/13
f 61/4/16 79/22/16 78/5/14
f 62/4/18 80/22/18 79/5/16
f 63/4/20 81/22/20 80/5/18
f 64/4/22 82/22/22 81/5/20
f 65/4/24 83/22/24 82/5/22
f 66/4/26 84/22/26 83/5/24
f 67/4/28 85/22/28 84/5/26
f 68/4/29 86/22/29 85/5/28
f 69/4/31 87/22/31 86/5/29
f 70/4/33 88/22/33 87/5/31
f 71/4/35 89/22/35 88/5/33
f 72/4/36 90/22/36 89/5/35
f 56/4/5 74/22/5 90/5/36
f 73/4/7 91/22/38 92/5/37
f 75/4/9 93/22/39 91/5/38
f 76/4/11 94/22/40 93/5/39
f 77/4/13 95/22/41 94/5/40
f 78/4/14 96/22/42 95/5/41
f 79/4/16 97/22/43 96/5/42
f 80/4/18 98/22/44 97/5/43
f 81/4/20 99/22/45 98/5/44
f 82/4/22 100/22/46 99/5/45
f 83/4/24 101/22/47 100/5/46
f 84/4/26 102/22/48 101/5/47
f 85/4/28 103/22/49 102/5/48
f 86/4/29 104/22/50 103/5/49
f 87/4/31 105/22/51 104/5/50
f 88/4/33 106/22/52 105/5/51
f 89/4/35 107/22/53 106/5/52
f 90/4/36 108/22/54 107/5/53
f 74/4/5 92/22/37 108/5/54
f 107/7/53 108/8/54 92/9/37
f 92/9/37 91/10/38 93/1/39
f 93/1/39 94/11/40 95/12/41
f 95/12/41 96/13/42 97/14/43
f 97/14/43 98/15/44 99/16/45
f 99/16/45 100/17/46 101/2/47
f 101/2/47 102/18/48 103/19/49
f 103/19/49 104/20/50 105/3/51
f 105/3/51 106/21/52 107/7/53
f 107/7/53 92/9/37 93/1/39
f 93/1/39 95/12/41 97/14/43
f 97/14/43 99/16/45 101/2/47
f 101/2/47 103/19/49 105/3/51
f 105/3/51 107/7/53 93/1/39
f 93/1/39 97/14/43 101/2/47
