# Blender 3.6.22
# www.blender.org
mtllib CaveWalls4_D_COL.mtl
o CaveWalls4_D.002
v 5.545872 -7.025024 -2.177850
v -4.807796 -6.702606 -2.365294
v 0.384150 -4.619671 -5.767380
v -2.842037 -7.828709 2.354891
v -3.224356 -4.709857 4.095416
v -0.875916 3.985043 -5.331151
v 3.788197 5.959652 -4.668676
v 5.277214 7.512696 -0.042577
v 3.719698 -6.027151 4.275570
v 0.533953 6.423925 5.486186
v -0.637734 7.461738 -1.601392
v -4.155621 7.905253 -1.320421
v -4.856810 4.760208 1.928718
vn -0.1135 -0.9461 -0.3034
vn 0.1229 -0.6807 -0.7222
vn 0.1759 -0.8924 -0.4156
vn -0.2696 -0.9247 -0.2688
vn 0.0170 -0.9860 -0.1660
vn -0.1295 -0.9906 -0.0430
vn 0.4118 -0.9095 0.0569
vn 0.3684 -0.8454 0.3867
vn -0.0228 -0.9795 0.2003
vn -0.9383 -0.3369 -0.0776
vn -0.7774 -0.5627 0.2810
vn -0.8875 -0.0626 0.4566
vn 0.6847 -0.0899 -0.7233
vn 0.6951 -0.0026 -0.7189
vn 0.5232 -0.0937 -0.8470
vn 0.9860 -0.0297 0.1642
vn 0.9910 -0.0277 0.1306
vn 0.9701 -0.0372 0.2398
vn 0.8868 -0.0267 -0.4614
vn 0.9727 0.1949 -0.1256
vn 0.8956 0.0527 -0.4418
vn 0.2716 0.0507 -0.9611
vn -0.0668 0.2498 -0.9660
vn 0.2420 -0.0466 -0.9692
vn -0.2592 -0.2997 0.9182
vn 0.1058 -0.3625 0.9260
vn -0.0026 -0.0644 0.9979
vn 0.1882 -0.3532 0.9164
vn -0.2489 -0.2079 0.9460
vn -0.1415 -0.6572 0.7404
vn 0.8332 0.0636 0.5493
vn 0.8821 0.0247 0.4705
vn 0.5509 0.1591 0.8192
vn 0.0273 0.6996 -0.7140
vn -0.3709 0.4513 -0.8117
vn -0.3263 0.8701 -0.3693
vn 0.2212 0.7906 -0.5710
vn -0.1765 0.9766 -0.1230
vn 0.2518 0.9645 -0.0795
vn -0.5348 0.0584 -0.8429
vn -0.4293 -0.0146 -0.9030
vn -0.6084 -0.0174 -0.7934
vn -0.2306 0.8376 -0.4953
vn -0.1706 0.5134 -0.8410
vn -0.0670 0.8367 -0.5435
vn 0.2155 0.9463 0.2410
vn -0.1611 0.9868 0.0138
vn 0.1060 0.8795 0.4639
vn -0.0585 0.9939 0.0940
vn -0.1595 0.9796 0.1223
vn 0.0960 0.9951 -0.0236
vn -0.8303 0.2146 -0.5143
vn -0.5143 0.1082 -0.8508
vn -0.7924 0.0571 -0.6073
vn -0.7090 0.5164 0.4802
vn -0.6380 0.6790 0.3632
vn -0.5621 0.7368 0.3758
vn -0.9400 0.0143 -0.3408
vn -0.9731 0.1881 0.1327
vn -0.9585 0.1635 -0.2334
vn -0.9973 0.0687 -0.0241
vn -0.9185 -0.0563 0.3914
vn -0.9965 -0.0119 0.0822
vn -0.4516 0.1825 0.8734
vn -0.5707 0.0388 0.8202
vn -0.5693 0.1566 0.8071
vt 0.082035 0.232937
vt 0.086520 0.215740
vt 0.099170 0.218488
vt 0.096318 0.245478
vt 0.787270 0.103650
vt 0.797485 0.109837
vt 0.789408 0.120810
vt 0.853496 0.164382
vt 0.838966 0.160402
vt 0.846892 0.153471
vt 0.808590 0.350636
vt 0.779765 0.320458
vt 0.794361 0.310299
vt 0.699014 0.296546
vt 0.714097 0.245949
vt 0.714835 0.296351
vt 0.797905 0.354891
vt 0.810554 0.332116
vt 0.773697 0.315922
vt 0.760746 0.319809
vt 0.778966 0.279206
vt 0.803485 0.124023
vt 0.726431 0.268450
vt 0.831964 0.299223
vt 0.830882 0.288750
vt 0.842102 0.294378
vt 0.830070 0.243600
vt 0.822255 0.226566
vt 0.838545 0.233444
vt 0.686557 0.393525
vt 0.689629 0.358360
vt 0.706963 0.356287
vt 0.848539 0.232335
vt 0.852389 0.225018
vt 0.855344 0.235893
vt 0.828665 0.212343
vt 0.298106 0.074569
vt 0.295670 0.062550
vt 0.301664 0.069454
vt 0.705609 0.401116
vt 0.290631 0.073020
vt 0.531210 0.115394
vt 0.553436 0.119169
vt 0.554379 0.126920
vt 0.717141 0.147067
vt 0.737276 0.143567
vt 0.733455 0.181442
vt 0.751599 0.178875
s 0
usemtl CaveWalls4.010
f 2/1/1 3/2/2 1/3/3
f 2/1/4 1/3/5 4/4/6
f 1/5/7 9/6/8 4/7/9
f 2/8/10 4/9/11 5/10/12
f 7/11/13 1/12/14 3/13/15
f 1/14/16 8/15/17 9/16/18
f 7/11/19 8/17/20 1/12/21
f 3/13/22 6/18/23 7/11/24
f 5/19/25 9/20/26 10/21/27
f 9/6/28 5/22/29 4/7/30
f 9/16/31 8/15/32 10/23/33
f 7/24/34 6/25/35 11/26/36
f 7/27/37 11/28/38 8/29/39
f 6/30/40 3/31/41 2/32/42
f 11/33/43 6/34/44 12/35/45
f 8/29/46 11/28/47 10/36/48
f 12/37/49 10/38/50 11/39/51
f 12/40/52 6/30/53 2/32/54
f 13/41/55 10/38/56 12/37/57
f 2/42/58 13/43/59 12/44/60
f 2/45/61 5/46/62 13/47/63
f 10/48/64 13/47/65 5/46/66
