# Blender 3.6.22
# www.blender.org
mtllib CaveWalls4_A_COL.mtl
o CaveWalls4_A.001
v 8.530411 -16.789955 -7.415043
v 25.956766 -5.659832 -8.383309
v 18.059202 1.676906 -5.891538
v 50.609039 15.534653 -3.459879
v 65.427811 14.803773 2.522552
v 65.064827 -13.572691 7.821020
v 48.456036 -16.806408 8.297374
v 59.426125 -13.813070 -1.931912
v 48.483265 -16.692184 -3.545275
v 19.337242 -15.886151 8.235802
v -13.683642 -16.118498 7.198528
v -10.499763 16.284342 6.595758
v -24.016642 15.863204 -4.777069
v -42.509586 -16.878141 -6.828873
v -64.377281 -14.915612 -1.027465
v -64.981117 15.931747 1.296415
v -59.174778 15.892225 6.421202
v -50.449654 16.135714 9.579684
v -22.848141 -3.564923 7.839595
v -48.359596 16.254833 -6.538846
v -45.070312 -3.388329 -7.061285
v -21.958290 -15.700641 -5.119724
v -42.964027 -15.832665 7.779949
v -61.956013 -16.129908 5.890831
v 1.540158 -5.179734 -9.585707
v 30.605888 16.425585 -4.472244
v 15.096371 16.438383 6.821609
v 46.564632 16.825909 8.276917
v 20.355820 0.460943 8.735630
v 3.626899 16.383131 -6.902019
vn 0.0829 -0.1499 -0.9852
vn 0.0279 -0.1998 -0.9794
vn -0.0677 -0.1089 -0.9917
vn -0.0413 0.3462 -0.9372
vn 0.1445 0.3593 -0.9220
vn -0.0302 0.4692 -0.8826
vn -0.0831 0.2340 -0.9687
vn -0.1077 0.2455 -0.9634
vn 0.0263 0.1540 -0.9877
vn 0.0283 0.0916 -0.9954
vn 0.1203 0.1430 -0.9824
vn 0.0423 0.0545 -0.9976
vn 0.0895 0.8307 -0.5494
vn 0.1004 0.9942 -0.0394
vn 0.1765 0.9562 -0.2335
vn 0.3276 0.3767 0.8665
vn 0.1491 0.3640 0.9194
vn 0.2543 0.0394 0.9663
vn 0.3531 -0.9190 -0.1756
vn 0.2812 -0.9530 -0.1123
vn 0.2663 -0.9605 -0.0813
vn -0.0001 -0.9996 -0.0292
vn -0.0066 -0.9965 -0.0835
vn 0.0175 -0.9992 -0.0368
vn 0.0567 -0.9977 -0.0368
vn 0.0572 -0.9612 0.2698
vn 0.0634 -0.8288 0.5559
vn -0.0093 -0.9985 0.0535
vn 0.0274 -0.9987 0.0422
vn -0.0546 -0.9972 0.0516
vn -0.1450 -0.0799 0.9862
vn -0.1234 -0.0118 0.9923
vn -0.1610 -0.0640 0.9849
vn -0.0062 -0.0009 1.0000
vn -0.0417 0.0973 0.9944
vn -0.0590 -0.0233 0.9980
vn -0.0635 0.1229 0.9904
vn 0.0760 0.0741 0.9944
vn -0.1937 0.0984 0.9761
vn -0.0050 1.0000 -0.0005
vn -0.0064 0.9987 -0.0496
vn 0.0024 1.0000 0.0051
vn -0.0114 0.1521 -0.9883
vn -0.1628 0.2042 -0.9653
vn -0.0837 0.0235 -0.9962
vn -0.1671 -0.0271 -0.9856
vn -0.1605 -0.0710 -0.9845
vn -0.1500 0.0764 -0.9857
vn 0.1072 0.0105 -0.9942
vn 0.0441 -0.0281 -0.9986
vn 0.0280 0.0519 -0.9983
vn -0.2693 -0.9330 -0.2387
vn -0.0448 -0.9313 -0.3616
vn -0.1610 -0.9758 -0.1477
vn -0.8750 0.0029 0.4841
vn -0.9518 -0.0561 0.3015
vn -0.8944 0.0244 0.4467
vn -0.4721 0.0486 0.8802
vn -0.7839 -0.0089 0.6209
vn -0.6867 -0.0383 0.7260
vn -0.0976 -0.1662 0.9812
vn -0.1612 -0.0590 0.9852
vn -0.1107 -0.0784 0.9908
vn 0.0959 -0.0444 0.9944
vn 0.0092 -0.0317 0.9995
vn -0.0661 -0.1923 0.9791
vn 0.0808 0.0972 0.9920
vn 0.0832 0.0028 0.9965
vn 0.1836 -0.0278 0.9826
vn 0.1178 0.0724 0.9904
vn 0.1266 -0.0038 0.9919
vn 0.1061 0.0220 0.9941
vn -0.0148 0.9998 -0.0119
vn -0.0018 1.0000 -0.0066
vn -0.0622 0.9973 0.0396
vn -0.0067 0.9995 -0.0322
vn 0.0124 0.9998 -0.0159
vn 0.1508 0.9858 0.0744
vn 0.0161 0.9998 0.0118
vn 0.0299 0.9983 0.0502
vn 0.0225 0.9997 0.0114
vn 0.0866 -0.0533 -0.9948
vn 0.1575 0.0661 -0.9853
vn 0.1764 -0.0003 -0.9843
vn -0.2474 -0.0864 -0.9650
vn -0.3207 0.0069 -0.9471
vn -0.3743 -0.1473 -0.9155
vn -0.4070 0.0601 -0.9114
vn -0.3708 0.0770 -0.9255
vn -0.3944 0.0797 -0.9155
vn -0.0006 0.9999 0.0160
vn -0.0072 0.9999 -0.0086
vn 0.0016 0.9994 0.0342
vn -0.0373 0.9993 -0.0059
vn -0.0334 0.9993 -0.0176
vn -0.0416 0.9991 0.0001
vn -0.2062 -0.1075 -0.9726
vn -0.3138 -0.0659 -0.9472
vn -0.2407 -0.0291 -0.9702
vn 0.1547 -0.0468 -0.9869
vn -0.0034 0.0811 -0.9967
vn 0.0862 0.0352 -0.9957
vn 0.0714 -0.9948 -0.0723
vn 0.0754 -0.9928 -0.0935
vn 0.0734 -0.9941 -0.0796
vn -0.0039 -0.9968 0.0803
vn -0.0153 -0.9876 0.1561
vn -0.0140 -0.9790 0.2034
vn 0.0380 -0.0530 0.9979
vn 0.0184 0.0159 0.9997
vn 0.0070 0.0039 1.0000
vn -0.0213 -0.9975 0.0677
vn -0.0198 -0.9928 0.1182
vn -0.0362 -0.9938 0.1047
vn -0.2669 -0.0566 0.9621
vn -0.2696 0.0525 0.9615
vn -0.2807 -0.0049 0.9598
vn -0.0218 -0.5483 -0.8360
vn -0.1395 -0.3304 -0.9335
vn -0.1521 -0.2119 -0.9654
vn 0.0493 -0.0454 -0.9978
vn 0.1623 -0.0510 -0.9854
vn 0.0779 -0.0406 -0.9961
vn -0.0132 0.9998 -0.0178
vn -0.0281 0.9995 -0.0112
vn -0.0032 1.0000 -0.0019
vn -0.0704 -0.1211 0.9901
vn -0.0861 -0.0690 0.9939
vn -0.0806 -0.0993 0.9918
vn 0.0760 0.0138 0.9970
vn 0.0853 0.0338 0.9958
vn -0.0204 0.1053 0.9942
vn 0.2637 -0.9555 -0.1325
vn 0.3728 -0.9125 0.1687
vn 0.2068 -0.9784 0.0069
vn -0.0096 -0.0058 0.9999
vn 0.0309 -0.0077 0.9995
vn -0.0153 0.0387 0.9991
vn 0.0464 0.9907 -0.1277
vn 0.0483 0.9958 -0.0772
vn 0.0459 0.9952 -0.0868
vn 0.0209 0.0335 0.9992
vn -0.0943 0.1430 0.9852
vn -0.0280 -0.0630 0.9976
vn 0.0118 0.9996 -0.0252
vn -0.0033 0.9997 0.0248
vn 0.0123 0.9998 -0.0165
vn 0.1405 0.1018 -0.9848
vn 0.1022 0.0505 -0.9935
vn 0.1801 0.1560 -0.9712
vn -0.0189 -0.9993 0.0323
vn -0.0438 -0.9989 0.0177
vn -0.0709 -0.9967 0.0405
vn 0.1221 -0.4753 -0.8713
vn 0.0621 -0.4558 -0.8879
vn 0.0810 -0.1405 -0.9868
vn 0.2223 -0.1042 -0.9694
vn 0.1140 0.0275 -0.9931
vn 0.1073 0.0284 -0.9938
vn 0.4442 0.0546 -0.8943
vn 0.3392 0.0327 -0.9401
vn 0.3669 -0.0128 -0.9302
vn 0.8113 -0.0584 -0.5817
vn 0.8615 -0.0804 -0.5013
vn 0.8957 -0.1102 -0.4308
vn 0.2140 0.0409 -0.9760
vn 0.1019 -0.0439 -0.9938
vn 0.2116 0.1411 -0.9671
vt 0.428785 0.585989
vt 0.485660 0.522484
vt 0.527539 0.560377
vt 0.674288 0.540537
vt 0.668943 0.598905
vt 0.637977 0.592514
vt 0.620717 0.727072
vt 0.677878 0.676282
vt 0.360918 0.674710
vt 0.387547 0.639568
vt 0.408790 0.697559
vt 0.893209 0.629208
vt 0.856263 0.684541
vt 0.821983 0.589869
vt 0.495439 0.249959
vt 0.548096 0.271428
vt 0.514229 0.294980
vt 0.148376 0.851702
vt 0.122739 0.817094
vt 0.238760 0.763068
vt 0.158180 0.773428
vt 0.246964 0.666961
vt 0.376248 0.538359
vt 0.371895 0.474660
vt 0.413695 0.393244
vt 0.472334 0.503900
vt 0.771557 0.790636
vt 0.743991 0.820638
vt 0.740924 0.739273
vt 0.238896 0.506324
vt 0.254879 0.455992
vt 0.311724 0.527002
vt 0.626310 0.567585
vt 0.594969 0.609478
vt 0.597722 0.480143
vt 0.868974 0.578871
vt 0.807271 0.543555
vt 0.821340 0.491318
vt 0.527113 0.750865
vt 0.460069 0.714215
vt 0.540334 0.727946
vt 0.324955 0.129416
vt 0.291857 0.130505
vt 0.231040 0.090732
vt 0.554197 0.753540
vt 0.575867 0.736197
vt 0.661285 0.806414
vt 0.632114 0.855777
vt 0.543436 0.795205
vt 0.483216 0.435384
vt 0.541413 0.372943
vt 0.566569 0.456810
vt 0.507647 0.354966
vt 0.094828 0.854034
vt 0.162961 0.879468
vt 0.123617 0.914404
vt 0.231883 0.952569
vt 0.255838 0.902053
vt 0.860879 0.425961
vt 0.743053 0.491218
vt 0.815018 0.386608
vt 0.308139 0.945525
vt 0.284384 0.957554
vt 0.927269 0.471837
vt 0.423007 0.674270
vt 0.432347 0.625604
vt 0.485794 0.667710
vt 0.750786 0.583633
vt 0.303753 0.599643
vt 0.754663 0.603989
vt 0.687320 0.699577
vt 0.507791 0.232639
vt 0.726792 0.573144
vt 0.300365 0.663732
vt 0.382401 0.558426
vt 0.538600 0.642845
vt 0.574572 0.623515
vt 0.457181 0.273676
vt 0.349731 0.296035
vt 0.456017 0.244661
vt 0.125536 0.100272
vt 0.177095 0.144168
vt 0.089643 0.095042
vt 0.545920 0.694509
s 0
usemtl CaveWalls4.007
f 2/1/1 1/2/2 25/3/3
f 25/4/4 3/5/5 2/6/6
f 4/7/7 2/6/8 3/5/9
f 4/7/10 3/5/11 26/8/12
f 4/9/13 28/10/14 5/11/15
f 5/12/16 28/13/17 6/14/18
f 8/15/19 7/16/20 9/17/21
f 9/18/22 7/19/23 1/20/24
f 1/20/25 7/19/26 10/21/27
f 10/21/28 11/22/29 1/20/30
f 10/23/31 29/24/32 12/25/33
f 10/23/34 12/25/35 11/26/36
f 27/27/37 12/28/38 29/29/39
f 30/30/40 12/31/41 27/32/42
f 25/3/43 13/33/44 30/34/45
f 25/3/46 22/35/47 13/33/48
f 22/36/49 14/37/50 21/38/51
f 15/39/52 14/40/53 24/41/54
f 16/42/55 15/43/56 24/44/57
f 17/45/58 16/46/59 24/47/60
f 23/48/61 18/49/62 24/47/63
f 19/50/64 18/51/65 23/52/66
f 19/50/67 12/25/68 18/53/69
f 12/25/70 19/50/71 11/26/72
f 30/54/73 13/55/74 12/56/75
f 13/55/76 18/57/77 12/56/78
f 13/55/79 20/58/80 18/57/81
f 21/38/82 20/59/83 22/36/84
f 15/60/85 20/59/86 21/38/87
f 20/59/88 15/60/89 16/61/90
f 20/58/91 16/62/92 17/63/93
f 18/57/94 20/58/95 17/63/96
f 14/37/97 15/60/98 21/38/99
f 22/36/100 20/59/101 13/64/102
f 22/65/103 11/66/104 14/40/105
f 14/40/106 11/66/107 23/67/108
f 11/26/109 19/50/110 23/52/111
f 14/40/112 23/67/113 24/41/114
f 24/47/115 18/49/116 17/45/117
f 1/2/118 22/35/119 25/3/120
f 30/68/121 26/8/122 3/5/123
f 26/69/124 27/32/125 28/10/126
f 7/70/127 29/29/128 10/71/129
f 7/70/130 6/14/131 29/29/132
f 8/15/133 6/72/134 7/16/135
f 28/13/136 29/29/137 6/14/138
f 4/9/139 26/69/140 28/10/141
f 28/13/142 27/27/143 29/29/144
f 30/30/145 27/32/146 26/69/147
f 30/68/148 3/5/149 25/73/150
f 1/20/151 11/22/152 22/74/153
f 9/75/154 1/2/155 2/1/156
f 9/76/157 2/77/158 4/7/159
f 5/78/160 8/79/161 4/80/162
f 8/81/163 5/82/164 6/83/165
f 8/84/166 9/76/167 4/7/168
