# Created with Anim8or 1.00
# Object "CaveWalls4_D":

mtllib CaveWalls4_D.mtl

# Shape "CaveWalls4D":
g CaveWalls4D
# No. points 222:
v 0.76600 -7.9433 -0.34700
v 2.319 -7.8964 -2.132
v 0.81200 -7.684 -2.963
v 2.391 -7.4031 -3.429
v -1.482 -7.7455 -1.863
v -0.78600 -7.1405 -3.529
v 0.23900 -6.7709 -4.257
v 1.835 -6.4876 -4.495
v 3.804 -7.4816 -1.917
v 2.709 -7.8681 -0.76800
v 3.088 -7.4813 -2.886
v -2.32 -6.5399 -3.664
v -0.99500 -6.1543 -4.408
v 0.29200 -5.2723 -5.208
v 1.956 -4.7727 -5.327
v 3.28 -5.1791 -4.694
v 3.538 -6.8355 -3.66
v 4.953 -6.5645 -0.80300
v 4.855 -6.3007 -2.578
v 3.862 -7.5287 -0.05500
v 2.653 -7.7909 0.65900
v -1.685 -8.0027 0.54800
v -0.34900 -7.9674 1.527
v -3.412 -7.4322 -0.47400
v -3.292 -6.95 -2.235
v -1.9 -5.6079 -4.448
v -2.73 -4.5527 -4.345
v -3.804 -5.5217 -3.044
v -1.313 -4.8465 -4.901
v -0.47200 -3.5124 -5.321
v 1.324 -2.6424 -5.181
v 2.727 -3.6832 -4.743
v 4.094 -3.3416 -3.843
v 4.421 -5.3798 -3.802
v 5.563 -5.4479 -1.627
v 5.186 -4.6429 -2.841
v 5.369 -5.1318 -0.17400
v 4.451 -6.322 1.123
v 3.609 -7.3153 0.95000
v 3.304 -7.4117 1.997
v 1.461 -8.02145 2.133
v -0.38500 -7.6959 3.062
v -1.676 -7.7315 2.2
v -3.379 -7.2209 1.869
v -4.864 -6.181 0.32900
v -4.509 -6.0981 -1.509
v -4.008 -3.4925 -3.312
v -4.751 -4.6176 -2.271
v -2.503 -1.7291 -4.125
v -1.655 -3.243 -4.929
v -0.60100 -1.4091 -4.932
v 2.937 -2.2138 -4.42
v 5.084 -3.1616 -2.532
v 5.435 -4.0099 -1.464
v 5.027 -4.6804 1.134
v 5.283 -3.3419 0.15700
v 4.731 -5.2017 2.183
v 3.998 -6.2469 2.974
v 2.704 -7.162 3.357
v 1.193 -7.0412 4.112
v -0.83100 -6.4012 4.35
v -1.601 -7.3198 3.252
v -2.354 -7.3358 2.724
v -2.511 -6.7062 3.468
v -3.608 -5.6019 3.046
v -4.665 -5.6424 1.886
v -5.339 -4.2798 0.86100
v -5.564 -4.6055 -0.95600
v -4.999 -2.9169 -2.045
v -3.901 -1.2887 -2.91
v 1.017 0.43930 -5.188
v 2.62 -0.46110 -4.576
v 3.905 -1.051 -3.778
v 4.814 -1.6134 -2.776
v 5.379 -2.2469 -1.437
v 4.613 -2.4127 1.804
v 4.876 -3.6667 1.236
v 5.136 -1.0635 -0.01500
v 4.712 -4.0757 1.941
v 4.461 -4.3097 3.39
v 2.916 -5.8503 4.364
v 1.07 -5.2492 5.261
v 2.731 -3.7124 4.741
v 3.909 -2.1572 3.636
v 4.647 0.78340 1.599
v 4.289 -0.95710 2.699
v 5.24 1.0969 -0.56300
v 5.288 -0.32930 -1.644
v 4.729 0.18920 -2.872
v 3.888 0.93530 -3.863
v 2.741 2.2039 -4.765
v -1.16 1.8359 -4.651
v -2.874 0.35560 -3.573
v 1.128 2.8189 -5.4
v 4.167 2.6259 -3.792
v 4.794 1.9229 -2.897
v 5.232 1.1639 -1.972
v 3.826 0.17780 3.646
v 2.287 -1.1779 4.907
v 0.73000 -3.0625 5.205
v -0.74800 -4.247 5.271
v 0.78700 -1.4885 5.129
v -0.50100 -1.8294 4.941
v -0.39000 -3.0803 5.24
v 5.123 3.4089 0.24400
v 5.34 2.6059 -1.654
v 4.895 3.5669 -2.878
v 4.306 4.4419 -4.277
v 2.538 4.7219 -5.478
v 0.41000 4.8279 -5.508
v 3.464 6.0899 -4.495
v 1.926 6.4639 -4.769
v 4.429 6.5229 -3.139
v 5.086 5.0989 -2.867
v 5.453 4.4949 -1.504
v 5.35 4.9009 -0.35000
v 4.631 2.9849 1.754
v 4.12 2.9919 3.225
v 2.554 1.8789 4.876
v 0.61600 0.42420 5.296
v 1.365 2.1309 5.47
v -1.064 -0.02450 4.843
v -0.95400 1.8079 5.014
v 0.27600 2.7399 5.507
v 1.61 3.5859 5.318
v 4.738 4.5409 1.845
v 5.158 5.5859 0.53300
v 5.319 6.0099 -0.82400
v 5.178 5.9309 -2.053
v 3.295 8.0219 -2.001
v 4.729 7.0249 -1.647
v 3.098 7.2919 -3.678
v 1.584 7.6749 -3.332
v 0.16600 6.5709 -4.295
v -1.395 5.0499 -4.337
v 0.11100 7.0739 -2.822
v -0.82100 6.3279 -3.51
v 1.256 7.2509 -1.48
v 2.614 7.6729 -0.40100
v 4.261 7.4029 -0.08200
v 4.439 6.5949 1.736
v 4.12 5.6199 3.256
v 2.954 4.8769 4.657
v -0.61000 2.9079 5.206
v -0.54400 3.8989 5.191
v 0.44700 4.5669 5.445
v 1.573 5.3529 5.166
v 3.182 6.7609 3.992
v 1.811 7.0249 4.618
v 3.673 7.2639 2.886
v 2.882 7.8309 1.307
v 1.458 7.5949 0.13800
v -0.49000 7.4319 -0.30100
v -0.21900 6.9679 -1.711
v -1.157 6.5689 -2.482
v -1.782 5.8839 -3.316
v -2.429 3.5409 -3.966
v -2.819 2.1589 -3.651
v -2.834 4.9629 -3.499
v -2.758 6.5989 -2.767
v -1.148 7.0669 -1.588
v -1.718 7.1289 -2.162
v 0.90200 7.6829 1.673
v -0.74600 6.8469 1.684
v -1.819 7.1369 0.78000
v -2.281 7.6759 -0.12800
v -2.177 7.5999 -1.435
v 2.292 7.7079 3.08
v 0.97600 7.8819 3.318
v 0.26900 7.3229 4.028
v 0.46600 6.1619 4.686
v -0.68900 5.3499 5.064
v -1.188 6.5349 3.736
v 0.06400 7.2339 2.869
v -3.187 7.1669 0.71800
v -2.352 6.3249 1.833
v -3.652 7.7709 -0.61500
v -3.577 7.3109 -1.855
v -4.106 4.8439 -2.56
v -4.223 6.2579 -2.133
v -3.569 3.2769 -3.045
v -3.89 1.0419 -2.733
v -4.808 2.2519 -1.428
v -4.963 5.0519 -1.009
v -4.576 6.8339 -1.244
v -4.774 6.5129 0.35800
v -3.738 6.2889 1.446
v -2.384 5.2789 3.021
v -3.436 5.5799 2.255
v -1.213 5.4319 4.398
v -1.623 5.1779 3.969
v -1.338 4.5479 4.677
v -2.238 3.9929 3.979
v -3.687 4.1749 2.845
v -4.422 5.2349 1.59
v -5.163 4.7909 0.56800
v -5.206 3.1959 0.22300
v -5.139 1.4189 0.25200
v -5.108 -0.34070 -0.14300
v -4.713 -0.66400 -1.62
v -4.668 0.07030 1.206
v -4.871 -2.168 1.295
v -4.743 1.9379 1.352
v -4.667 3.6269 1.571
v -3.195 2.5789 3.75
v -4.101 2.3819 2.551
v -1.293 3.2749 4.868
v -2.058 2.4969 4.519
v -2.247 0.93270 4.086
v -3.397 1.2729 3.223
v -4.034 0.70220 2.315
v -3.981 -1.1246 2.321
v -4.011 -2.6692 2.577
v -5.425 -2.5365 -0.43800
v -4.472 -4.0851 2.305
v -2.981 -2.0518 3.365
v -3.285 -3.8258 3.477
v -3.126 -0.29290 3.268
v -1.932 -1.0995 4.143
v -1.844 -3.0791 4.532
v -2.386 -5.0831 4.414
v -0.90000 -3.0658 5.068

# No. normals 662:
vn -0.08472 -0.99140 -0.09976
vn 0.06234 -0.93401 -0.35178
vn -0.02079 -0.99487 -0.09898
vn -0.16627 -0.90254 -0.39722
vn -0.08898 -0.83196 -0.54766
vn -0.05045 -0.77052 -0.63542
vn 0.05453 -0.80431 -0.59170
vn 0.27649 -0.95919 -0.05915
vn 0.04064 -0.999132 0.00911
vn 0.29154 -0.93192 -0.21571
vn 0.16326 -0.92511 -0.34279
vn -0.29540 -0.85176 -0.43272
vn -0.25125 -0.67315 -0.69551
vn -0.20190 -0.67516 -0.70950
vn -0.03100 -0.53477 -0.84443
vn -0.15997 -0.52487 -0.83601
vn 0.27610 -0.43523 -0.85694
vn 0.31005 -0.46823 -0.82743
vn 0.20070 -0.68900 -0.69641
vn 0.06786 -0.43937 -0.89574
vn 0.30020 -0.81101 -0.50214
vn 0.49675 -0.78634 -0.36729
vn 0.69830 -0.70142 -0.14280
vn 0.64640 -0.76198 -0.03941
vn 0.30123 -0.95296 -0.03349
vn 0.58869 -0.72456 -0.35842
vn 0.24637 -0.96719 0.06199
vn 0.05071 -0.99715 0.05594
vn 0.02495 -0.999687 0.00199
vn -0.01510 -0.99411 -0.10732
vn -0.34041 -0.90073 -0.26983
vn -0.24479 -0.96172 -0.12320
vn -0.28463 -0.85258 -0.43828
vn -0.28897 -0.53666 -0.79277
vn -0.56169 -0.36956 -0.74023
vn -0.56253 -0.36952 -0.73960
vn -0.61279 -0.54421 -0.57300
vn -0.19378 -0.38696 -0.90150
vn -0.27289 -0.39674 -0.87643
vn 0.08971 -0.02498 -0.99565
vn -0.08418 0.04325 -0.99551
vn -0.22621 -0.15990 -0.96086
vn 0.41478 0.18413 -0.89110
vn 0.46214 0.14217 -0.87534
vn 0.51396 0.16241 -0.84230
vn 0.62287 0.08429 -0.77777
vn 0.52313 -0.39118 -0.75717
vn 0.66745 -0.46184 -0.58414
vn 0.82811 -0.54602 -0.12687
vn 0.86959 -0.24191 -0.43046
vn 0.84125 -0.24447 -0.48222
vn 0.88300 -0.37835 0.27779
vn 0.73489 -0.62217 0.26988
vn 0.91434 -0.35278 0.19883
vn 0.69707 -0.64532 0.31251
vn 0.35818 -0.89089 0.27934
vn 0.43430 -0.89971 0.04368
vn 0.11373 -0.99151 -0.06311
vn 0.31954 -0.94102 0.11122
vn -0.02130 -0.999447 -0.02553
vn -0.08674 -0.98135 0.17154
vn -0.08746 -0.98129 0.17151
vn -0.09260 -0.98247 0.16179
vn -0.35944 -0.92893 0.08884
vn -0.31132 -0.93748 0.15560
vn -0.62538 -0.77633 0.07882
vn -0.69476 -0.69988 -0.16576
vn -0.64910 -0.72128 -0.24173
vn -0.67630 -0.53138 -0.51015
vn -0.69821 -0.16228 -0.69726
vn -0.71212 -0.16182 -0.68316
vn -0.77564 -0.38444 -0.50060
vn -0.56848 0.10924 -0.81542
vn -0.57409 0.10938 -0.81146
vn -0.38095 -0.09731 -0.91946
vn -0.39593 -0.22452 -0.89041
vn -0.33115 -0.08704 -0.93955
vn -0.01112 0.18119 -0.98338
vn -0.27794 0.15819 -0.94748
vn 0.39068 0.14402 -0.90919
vn 0.52727 0.10986 -0.84256
vn 0.73732 0.10487 -0.66735
vn 0.77292 0.18013 -0.60840
vn 0.96713 0.11401 -0.22729
vn 0.96761 0.11179 -0.22636
vn 0.99042 0.07502 0.11592
vn 0.96745 -0.00031 0.25307
vn 0.88667 -0.31339 0.33999
vn 0.99626 0.03312 0.07977
vn 0.93858 -0.33000 0.10085
vn 0.74004 -0.65437 0.15533
vn 0.75266 -0.62418 0.20952
vn 0.87007 -0.43566 0.23061
vn 0.60557 -0.69136 0.39410
vn 0.31933 -0.89703 0.30558
vn 0.15748 -0.87627 0.45536
vn 0.06965 -0.89014 0.45034
vn -0.14918 -0.72273 0.67484
vn -0.11592 -0.72030 0.68391
vn -0.22152 -0.90263 0.36904
vn -0.23937 -0.89824 0.36859
vn -0.32395 -0.90780 0.26637
vn -0.49518 -0.71192 0.49796
vn -0.69341 -0.48529 0.53262
vn -0.62452 -0.51512 0.58705
vn -0.73721 -0.60386 0.30311
vn -0.94440 -0.28286 0.16765
vn -0.92998 -0.29407 0.22059
vn -0.83351 -0.52079 -0.18448
vn -0.78894 -0.37821 -0.48428
vn -0.84954 -0.05415 -0.52473
vn -0.79493 -0.03543 -0.60567
vn -0.61529 0.17027 -0.76969
vn -0.74280 0.15488 -0.65135
vn -0.41293 0.23588 -0.87969
vn -0.13836 -0.01603 -0.99025
vn 0.37361 0.03511 -0.92692
vn 0.42737 -0.00317 -0.90407
vn 0.53454 0.02148 -0.84487
vn 0.49571 0.06548 -0.86602
vn 0.76042 0.08103 -0.64436
vn 0.79443 0.04307 -0.60583
vn 0.93326 0.10881 -0.34232
vn 0.95731 0.03480 -0.28698
vn 0.99626 0.03041 0.08089
vn 0.93197 0.03188 0.36114
vn 0.93883 0.08575 0.33354
vn 0.92081 0.09921 0.37719
vn 0.99138 0.07221 0.10932
vn 0.94773 0.08225 0.30830
vn 0.95133 0.11285 0.28677
vn 0.98230 0.05506 0.17905
vn 0.86296 -0.29443 0.41063
vn 0.70700 -0.30590 0.63763
vn 0.57168 -0.55577 0.60358
vn 0.31484 -0.60948 0.72761
vn 0.23405 -0.51333 0.82566
vn -0.07288 -0.54186 0.83730
vn 0.59359 -0.08966 0.79976
vn 0.40026 -0.12544 0.90778
vn 0.62937 0.07298 0.77367
vn 0.92368 0.19949 0.32713
vn 0.98061 0.07335 0.18171
vn 0.95979 0.07932 0.26929
vn 0.95947 0.00786 0.28170
vn 0.94571 0.01077 0.32483
vn 0.96336 0.02144 0.26734
vn 0.99637 -0.02753 0.08056
vn 0.99103 0.05993 0.11948
vn 0.92165 0.00185 -0.38802
vn 0.91331 0.02141 -0.40671
vn 0.74039 -0.00088 -0.67217
vn 0.75418 -0.02163 -0.65631
vn 0.51658 -0.03219 -0.85563
vn 0.55700 -0.08389 -0.82627
vn 0.31527 -0.08137 -0.94551
vn -0.20982 0.04842 -0.97654
vn -0.39228 0.01207 -0.91977
vn -0.59324 0.10574 -0.79805
vn -0.28221 -0.07206 -0.95664
vn 0.33158 -0.09905 -0.93821
vn 0.57476 -0.06058 -0.81608
vn 0.77542 -0.10180 -0.62319
vn 0.74777 -0.03759 -0.66289
vn 0.89001 -0.03992 -0.45419
vn 0.89829 -0.06187 -0.43503
vn 0.999322 0.03661 -0.00393
vn 0.91196 0.03066 0.40912
vn 0.93271 -0.01397 0.36037
vn 0.63839 0.06158 0.76724
vn 0.62370 0.01882 0.78144
vn 0.21788 -0.02573 0.97564
vn 0.24477 0.06284 0.96754
vn 0.02144 0.02893 0.999352
vn -0.20355 -0.37824 0.90305
vn 0.13759 0.04280 0.98956
vn -0.15803 0.05333 0.98599
vn 0.02664 0.23463 0.97172
vn 0.03096 0.01705 0.999375
vn 0.92113 0.05415 0.38546
vn 0.96507 -0.04146 0.25869
vn 0.99403 0.01248 0.10837
vn 0.99731 -0.07268 -0.00912
vn 0.91066 0.02277 -0.41253
vn 0.92460 -0.05244 -0.37732
vn 0.80232 -0.04241 -0.59539
vn 0.85487 -0.19395 -0.48122
vn 0.59510 -0.24957 -0.76392
vn 0.53068 -0.19104 -0.82576
vn 0.27438 -0.24145 -0.93082
vn 0.01161 -0.04954 -0.99870
vn -0.25247 -0.14169 -0.95718
vn 0.26027 0.44102 -0.85893
vn 0.57209 0.18665 -0.79867
vn 0.03225 0.38648 -0.92173
vn 0.73237 0.29287 -0.61471
vn 0.78952 0.25789 -0.55692
vn 0.89036 -0.10783 -0.44230
vn 0.94508 -0.11563 -0.30571
vn 0.93243 -0.02717 -0.36033
vn 0.98727 -0.07039 0.14265
vn 0.98718 -0.10097 0.12363
vn 0.95190 -0.01463 0.30605
vn 0.94448 -0.01624 0.32817
vn 0.93162 -0.04335 0.36083
vn 0.65895 -0.04995 0.75053
vn 0.71512 0.02977 0.69837
vn 0.21837 -0.00918 0.97582
vn 0.16052 -0.07160 0.98443
vn -0.11860 -0.09688 0.98820
vn 0.38688 -0.25999 0.88472
vn -0.24066 -0.07585 0.96764
vn -0.28372 -0.12824 0.95029
vn -0.01841 -0.09341 0.99546
vn -0.25362 -0.02661 0.96694
vn 0.44982 0.01754 0.89295
vn 0.94118 -0.08387 0.32735
vn 0.95415 -0.08244 0.28774
vn 0.96755 -0.04848 0.24799
vn 0.96223 -0.05097 0.26743
vn 0.98540 0.08946 0.14486
vn 0.99599 0.05723 0.06876
vn 0.98241 0.14157 -0.12181
vn 0.97098 0.10353 -0.21557
vn 0.85292 0.31383 -0.41717
vn 0.59076 0.72134 -0.36149
vn 0.82835 0.45911 -0.32103
vn 0.57347 0.72435 -0.38268
vn 0.56973 0.57355 -0.58860
vn 0.27911 0.59648 -0.75253
vn 0.04913 0.76948 -0.63677
vn -0.13180 0.74233 -0.65695
vn -0.18737 0.54329 -0.81837
vn -0.43853 0.47120 -0.76529
vn -0.54006 0.04263 -0.84054
vn -0.44821 0.84071 -0.30382
vn -0.57979 0.60996 -0.54018
vn -0.44855 0.84055 -0.30378
vn -0.31343 0.93623 0.15883
vn 0.13492 0.90261 -0.40876
vn -0.32651 0.93230 0.15561
vn 0.10801 0.96075 0.25553
vn 0.57491 0.81781 -0.02561
vn -0.33954 0.93866 0.06023
vn 0.81865 0.56393 0.10860
vn 0.89939 0.41738 -0.13001
vn 0.83060 0.49584 0.25347
vn 0.87227 0.47284 0.12475
vn 0.89944 0.15266 0.40952
vn 0.94286 0.15296 0.29599
vn 0.91464 -0.00477 0.40425
vn 0.74124 -0.05000 0.66937
vn 0.77056 -0.00752 0.63732
vn 0.43537 0.00767 0.90022
vn 0.08381 0.08957 0.99245
vn -0.33138 -0.06071 0.94154
vn -0.31545 0.03536 0.94828
vn 0.12668 0.02180 0.99170
vn -0.28507 0.05915 0.95668
vn 0.18123 0.08805 0.97949
vn 0.37086 0.08730 0.92457
vn 0.71830 0.15266 0.67878
vn 0.44162 0.25064 0.86148
vn 0.40579 0.23198 0.88404
vn 0.79773 0.33043 0.50442
vn 0.86361 0.32210 0.38786
vn 0.62724 0.77805 -0.03483
vn 0.54242 0.78613 0.29628
vn 0.18303 0.97588 -0.11899
vn -0.10223 0.99188 -0.07571
vn -0.15277 0.97036 -0.18723
vn -0.03600 0.97841 -0.20352
vn -0.12732 0.93463 -0.33204
vn -0.19374 0.98039 0.03599
vn -0.37523 0.92665 -0.02304
vn -0.42487 0.84062 -0.33594
vn -0.45013 0.82544 -0.34064
vn -0.41983 0.61843 -0.66429
vn -0.41195 0.05872 -0.90931
vn -0.52233 -0.04667 -0.85147
vn -0.42387 0.61608 -0.66391
vn -0.50468 0.13623 -0.85249
vn 0.13577 0.71329 -0.68760
vn -0.20212 0.40779 -0.89042
vn 0.02861 0.87312 -0.48666
vn 0.50774 0.75044 -0.42314
vn 0.15107 0.60018 -0.78547
vn 0.06151 0.95154 -0.30131
vn -0.06506 0.99462 -0.08059
vn -0.44214 0.87422 0.20062
vn 0.01900 0.95837 0.28489
vn 0.16284 0.88258 0.44105
vn 0.13036 0.99034 -0.04721
vn 0.36655 0.82894 -0.42250
vn -0.09072 0.99183 -0.08972
vn 0.32334 0.93049 0.17215
vn -0.06577 0.99672 0.04726
vn 0.32751 0.79681 0.50778
vn 0.36939 0.80095 0.47121
vn 0.19641 0.87188 0.44861
vn -0.06365 0.81394 0.57745
vn -0.16355 0.32820 0.93034
vn -0.24311 0.44673 0.86101
vn -0.07659 0.42917 0.89997
vn -0.00662 0.42975 0.90293
vn -0.24706 0.67504 0.69518
vn -0.38511 0.40472 0.82940
vn -0.59267 0.80429 0.04307
vn -0.47831 0.87802 0.01718
vn 0.10796 0.98637 -0.12418
vn -0.55257 0.83004 -0.07556
vn -0.45223 0.89172 0.01790
vn -0.00437 0.85892 0.51209
vn -0.21894 0.82314 0.52393
vn -0.01011 0.79432 0.60741
vn -0.09355 0.89419 0.43780
vn 0.08703 0.99490 -0.05093
vn 0.40170 0.86326 -0.30566
vn -0.08711 0.93227 -0.35111
vn -0.07894 0.81316 -0.57666
vn 0.01741 0.79564 -0.60552
vn -0.57634 0.35592 -0.73563
vn -0.43092 0.22801 -0.87311
vn -0.44038 0.47183 -0.76383
vn -0.59599 0.04392 -0.80179
vn -0.63673 0.07082 -0.76783
vn -0.62844 0.00005 -0.77786
vn -0.64173 -0.01487 -0.76678
vn -0.64255 -0.01354 -0.76612
vn -0.51914 -0.02112 -0.85443
vn -0.77066 -0.06799 -0.63361
vn -0.80314 0.03230 -0.59492
vn -0.86838 0.07613 -0.49003
vn -0.87363 0.02436 -0.48599
vn -0.61203 0.53035 -0.58664
vn -0.88787 0.13481 -0.43990
vn -0.55976 0.76531 -0.31776
vn -0.42476 0.75969 0.49240
vn -0.72696 0.68504 0.04742
vn -0.20920 0.69862 0.68423
vn -0.42181 0.72078 0.55004
vn -0.30145 0.95016 0.07954
vn -0.76526 0.49322 0.41365
vn -0.25392 0.72932 0.63531
vn -0.21004 0.69508 0.68757
vn -0.70492 0.37669 0.60100
vn -0.77223 0.33973 0.53688
vn -0.46972 0.88220 0.03296
vn -0.71708 0.33483 0.61130
vn -0.28287 0.05554 0.95755
vn -0.53112 0.02106 0.84704
vn -0.73235 0.29695 0.61277
vn -0.77172 0.28807 0.56698
vn -0.70092 0.36892 0.61042
vn -0.70456 0.37076 0.60508
vn -0.45609 0.41260 0.78851
vn -0.50295 0.47890 0.71951
vn -0.60002 0.47712 0.64213
vn -0.60461 0.39779 0.69008
vn -0.58816 0.47146 0.65711
vn -0.83230 0.24845 0.49553
vn -0.97384 0.20915 -0.08889
vn -0.97621 0.20142 -0.08030
vn -0.99175 0.05208 -0.11716
vn -0.97456 -0.02055 -0.22318
vn -0.97637 -0.04028 -0.21234
vn -0.98302 0.02354 -0.18201
vn -0.96674 -0.01468 -0.25533
vn -0.81263 0.01189 -0.58266
vn -0.61038 0.06285 -0.78961
vn -0.83533 0.04555 -0.54786
vn -0.63718 0.08930 -0.76552
vn -0.93817 -0.09148 0.33387
vn -0.95455 0.09777 0.28156
vn -0.93595 -0.02956 0.35089
vn -0.92854 -0.06585 0.36534
vn -0.92029 -0.05885 0.38679
vn -0.92777 -0.00663 0.37309
vn -0.82775 0.11964 0.54819
vn -0.81084 0.11677 0.57350
vn -0.57395 0.26285 0.77556
vn -0.80165 0.08815 0.59126
vn -0.80788 0.09106 0.58228
vn -0.57767 0.21476 0.78751
vn -0.64476 0.09108 0.75894
vn -0.53387 0.22952 0.81382
vn -0.47225 0.11444 0.87400
vn -0.42493 0.04199 0.90425
vn -0.41138 -0.00435 0.91145
vn -0.45000 -0.01512 0.89290
vn -0.49230 -0.17646 0.85235
vn -0.56102 -0.15719 0.81274
vn -0.62565 -0.20676 0.75221
vn -0.78146 -0.12575 0.61115
vn -0.87786 -0.02253 0.47839
vn -0.77656 -0.11793 0.61891
vn -0.86014 -0.10445 0.49924
vn -0.84663 -0.07519 0.52685
vn -0.79818 0.09604 0.59471
vn -0.86212 -0.02335 0.50617
vn -0.80432 0.11233 0.58348
vn -0.95373 0.09957 0.28371
vn -0.94096 0.17479 -0.28990
vn -0.94082 0.17427 -0.29065
vn -0.77819 0.21042 -0.59173
vn -0.95009 0.15490 0.27079
vn -0.99252 0.03760 0.11617
vn -0.94943 0.13478 -0.28359
vn -0.85922 0.08680 0.50419
vn -0.79441 0.14536 0.58974
vn -0.65218 0.13626 0.74571
vn -0.65831 0.15926 0.73570
vn -0.70994 0.09715 0.69753
vn -0.73372 -0.01906 0.67918
vn -0.73201 -0.02279 0.68091
vn -0.77707 -0.11671 0.61850
vn -0.61384 -0.08368 0.78499
vn -0.56306 -0.04321 0.82528
vn -0.57532 -0.06631 0.81523
vn -0.62171 -0.07450 0.77969
vn -0.59307 -0.00449 0.80514
vn -0.63498 0.15657 0.75649
vn -0.65792 0.11694 0.74395
vn -0.74010 -0.02845 0.67190
vn -0.62730 0.12439 0.76878
vn -0.69659 -0.04705 0.71592
vn -0.73460 -0.08990 0.67251
vn -0.85487 -0.03336 0.51777
vn -0.62564 -0.35630 0.69399
vn -0.49489 0.08291 0.86499
vn -0.27610 -0.36882 0.88755
vn -0.34906 -0.45167 0.82107
vn -0.41864 0.15715 0.89445
vn -0.48166 0.24196 0.84229
vn -0.49286 0.08539 0.86591
vn -0.52935 -0.11952 0.83994
vn -0.30844 0.19517 0.93101
vn -0.31410 0.12140 0.94159
vn -0.26180 -0.64195 0.72066
vn -0.37173 -0.74586 0.55273
vn 0.01105 -0.999094 -0.04109
vn 0.12735 -0.97537 -0.18011
vn -0.04326 -0.91546 -0.40008
vn 0.13827 -0.84464 -0.51717
vn -0.19931 -0.94137 -0.27222
vn -0.20392 -0.79930 -0.56528
vn -0.09743 -0.68864 -0.71853
vn 0.12147 -0.60773 -0.78480
vn 0.48532 -0.85584 -0.17890
vn 0.18453 -0.98280 0.00693
vn 0.31755 -0.87632 -0.36225
vn -0.41807 -0.62525 -0.65900
vn -0.23062 -0.53808 -0.81073
vn -0.09137 -0.30187 -0.94896
vn 0.24274 -0.10785 -0.96408
vn 0.47485 -0.15881 -0.86562
vn 0.45992 -0.64544 -0.60981
vn 0.81126 -0.57981 0.07542
vn 0.77945 -0.50656 -0.36860
vn 0.51900 -0.84187 0.14798
vn 0.25775 -0.96266 0.08278
vn -0.16942 -0.98508 0.03016
vn -0.05290 -0.99390 0.09675
vn -0.50135 -0.85837 -0.10889
vn -0.53094 -0.73537 -0.42111
vn -0.36665 -0.38633 -0.84636
vn -0.54858 -0.14728 -0.82302
vn -0.68583 -0.36582 -0.62913
vn -0.30358 -0.22798 -0.92513
vn -0.15486 0.01381 -0.98784
vn 0.18860 0.07009 -0.97955
vn 0.46273 0.14883 -0.87392
vn 0.66214 0.10533 -0.74194
vn 0.70705 -0.18934 -0.68134
vn 0.97400 -0.20330 -0.09994
vn 0.88994 0.00422 -0.45605
vn 0.96316 -0.16001 0.21616
vn 0.82646 -0.50879 0.24102
vn 0.57289 -0.79404 0.20321
vn 0.54625 -0.81086 0.21004
vn 0.12854 -0.96981 0.20724
vn -0.10179 -0.89509 0.43411
vn -0.21471 -0.94383 0.25117
vn -0.54707 -0.76959 0.32931
vn -0.82974 -0.55333 0.07312
vn -0.75387 -0.55215 -0.35610
vn -0.69933 0.01267 -0.71468
vn -0.79651 -0.20599 -0.56845
vn -0.54609 0.11975 -0.82912
vn -0.40157 0.06482 -0.91353
vn -0.24409 0.10487 -0.96407
vn 0.47678 0.06777 -0.87641
vn 0.90137 0.09794 -0.42182
vn 0.99462 0.06757 -0.07856
vn 0.95695 -0.05957 0.28408
vn 0.97189 0.05077 0.22988
vn 0.94848 -0.19020 0.25341
vn 0.75244 -0.50060 0.42806
vn 0.40847 -0.75306 0.51580
vn 0.09595 -0.71949 0.68784
vn -0.20784 -0.55661 0.80436
vn -0.24702 -0.79779 0.55001
vn -0.36282 -0.82796 0.42761
vn -0.48022 -0.58258 0.65574
vn -0.70304 -0.26006 0.66189
vn -0.81428 -0.32232 0.48276
vn -0.94952 -0.05682 0.30852
vn -0.95827 -0.19022 -0.21340
vn -0.85961 0.09942 -0.50119
vn -0.71035 0.12346 -0.69294
vn 0.06784 -0.03217 -0.99718
vn 0.45681 -0.02415 -0.88923
vn 0.64196 0.01913 -0.76650
vn 0.85510 0.04311 -0.51666
vn 0.99124 0.05272 -0.12113
vn 0.95014 0.05953 0.30610
vn 0.94254 0.08095 0.32414
vn 0.97914 0.03683 0.19983
vn 0.96604 0.08071 0.24545
vn 0.86318 -0.04394 0.50299
vn 0.49065 -0.38251 0.78291
vn 0.11008 -0.25878 0.95964
vn 0.46464 -0.00741 0.88547
vn 0.80462 0.06381 0.59036
vn 0.94922 -0.00269 0.31459
vn 0.92870 0.02042 0.37027
vn 0.99296 -0.01194 0.11782
vn 0.98405 0.00523 -0.17783
vn 0.83249 -0.02366 -0.55353
vn 0.66128 -0.05688 -0.74798
vn 0.46036 -0.14583 -0.87567
vn -0.41921 -0.00157 -0.90789
vn -0.60224 0.04478 -0.79706
vn 0.01720 -0.12526 -0.99197
vn 0.73299 -0.13191 -0.66733
vn 0.84959 -0.04229 -0.52574
vn 0.96269 -0.02360 -0.26956
vn 0.81501 0.00686 0.57941
vn 0.39238 -0.00491 0.91979
vn 0.07531 0.05979 0.99537
vn -0.25801 -0.06138 0.96419
vn 0.00544 -0.01832 0.999817
vn -0.28821 0.08218 0.95403
vn -0.14389 0.14473 0.97895
vn 0.97455 -0.04978 0.21858
vn 0.98723 -0.03220 -0.15604
vn 0.89818 -0.09057 -0.43019
vn 0.74218 -0.00075 -0.67020
vn 0.29924 0.09471 -0.94947
vn -0.24465 0.22290 -0.94364
vn 0.50052 0.43354 -0.74935
vn 0.05190 0.59865 -0.79932
vn 0.72743 0.49254 -0.47776
vn 0.91287 0.09270 -0.39759
vn 0.99520 -0.00173 -0.09780
vn 0.98913 -0.00069 0.14707
vn 0.94862 -0.04933 0.31255
vn 0.86666 -0.02559 0.49823
vn 0.52925 -0.04611 0.84721
vn -0.01925 -0.09826 0.99497
vn 0.23250 -0.06348 0.97052
vn -0.43880 -0.06728 0.89606
vn -0.39953 -0.07262 0.91384
vn -0.14934 -0.01116 0.98872
vn 0.27816 0.05266 0.95909
vn 0.94233 0.01403 0.33438
vn 0.94939 0.19123 0.24916
vn 0.95087 0.30452 0.05587
vn 0.92413 0.29257 -0.24572
vn 0.21481 0.97001 -0.11377
vn 0.77085 0.61874 -0.15150
vn 0.33517 0.74416 -0.57783
vn -0.18854 0.93254 -0.30793
vn -0.38976 0.70618 -0.59110
vn -0.49501 0.38083 -0.78098
vn -0.37879 0.91596 -0.13240
vn -0.47303 0.76049 -0.44486
vn -0.21766 0.97496 -0.04562
vn -0.06261 0.99794 -0.01365
vn 0.60654 0.78299 0.13798
vn 0.84152 0.47231 0.26224
vn 0.85341 0.16119 0.49569
vn 0.57014 0.09876 0.81559
vn -0.38152 0.00038 0.92436
vn -0.38762 0.05492 0.92018
vn -0.05917 0.18678 0.98062
vn 0.14901 0.24180 0.95882
vn 0.57084 0.50136 0.65021
vn 0.14862 0.59017 0.79348
vn 0.64180 0.68950 0.33568
vn 0.21449 0.97627 0.02973
vn -0.08957 0.98777 -0.12766
vn 0.00830 0.99846 -0.05479
vn -0.12540 0.96531 -0.22901
vn -0.06730 0.87148 -0.48580
vn -0.28668 0.67045 -0.68433
vn -0.54457 0.04413 -0.83755
vn -0.59238 -0.01928 -0.80543
vn -0.50787 0.28173 -0.81406
vn -0.18986 0.58457 -0.78882
vn 0.27981 0.87403 -0.39720
vn 0.25779 0.79498 -0.54913
vn -0.23122 0.97278 -0.01545
vn -0.32124 0.92643 0.19629
vn -0.01047 0.87661 0.48109
vn 0.05873 0.96136 0.26896
vn 0.12486 0.92764 -0.35199
vn 0.21953 0.93877 0.26556
vn -0.20165 0.96009 0.19382
vn -0.39682 0.75358 0.52407
vn -0.19013 0.45983 0.86741
vn -0.44970 0.33303 0.82877
vn -0.59381 0.65434 0.46821
vn -0.51060 0.85979 0.00713
vn -0.19820 0.80494 0.55927
vn -0.29703 0.78205 0.54788
vn -0.33730 0.94016 0.04818
vn -0.35910 0.74630 -0.56043
vn -0.71072 0.11402 -0.69418
vn -0.68272 0.30370 -0.66458
vn -0.68438 0.01078 -0.72905
vn -0.73157 0.02090 -0.68144
vn -0.91438 -0.00657 -0.40479
vn -0.95467 0.09879 -0.28080
vn -0.81296 0.50057 -0.29754
vn -0.78560 0.52373 0.32945
vn -0.41529 0.62687 0.65921
vn -0.58525 0.48537 0.64954
vn -0.43618 0.55674 0.70695
vn -0.74641 0.32584 0.58026
vn -0.73433 0.34094 0.58696
vn -0.65624 0.20106 0.72727
vn -0.61342 0.29187 0.73385
vn -0.66859 0.27109 0.69246
vn -0.72548 0.31159 0.61367
vn -0.95857 0.12029 0.25819
vn -0.99512 -0.01804 0.09698
vn -0.98976 -0.04232 0.13630
vn -0.99828 0.05037 0.02991
vn -0.89505 0.10219 -0.43409
vn -0.89810 -0.01046 0.43968
vn -0.88554 0.11481 0.45015
vn -0.89951 -0.05089 0.43392
vn -0.86851 0.04021 0.49404
vn -0.66476 0.01557 0.74690
vn -0.82294 -0.03212 0.56722
vn -0.50110 0.07443 0.86218
vn -0.52475 0.02165 0.85098
vn -0.58082 -0.11581 0.80575
vn -0.71976 -0.13105 0.68174
vn -0.81292 -0.07645 0.57733
vn -0.76973 0.04694 0.63664
vn -0.72736 0.13070 0.67370
vn -0.99039 0.13417 -0.03346
vn -0.78240 0.02675 0.62221
vn -0.65760 0.09069 0.74789
vn -0.68123 0.07736 0.72797
vn -0.68248 -0.05385 0.72892
vn -0.57133 0.00156 0.82072
vn -0.54770 0.13883 0.82507
vn -0.54311 -0.17410 0.82141
vn -0.40195 0.16206 0.90121

# No. texture coordinates 364:
vt 0.09782 0.23052
vt 0.09621 0.22076
vt 0.08944 0.22340
vt 0.09196 0.21698
vt 0.08692 0.23376
vt 0.08307 0.22695
vt 0.08323 0.22162
vt 0.08652 0.21574
vt 0.10057 0.21641
vt 0.10157 0.22309
vt 0.09558 0.21617
vt 0.07821 0.23143
vt 0.30568 0.08847
vt 0.30670 0.08337
vt 0.30152 0.08446
vt 0.31207 0.08767
vt 0.29471 0.08393
vt 0.29894 0.09130
vt 0.29181 0.09136
vt 0.28764 0.08744
vt 0.28923 0.07953
vt 0.09390 0.21251
vt 0.78504 0.79576
vt 0.78790 0.80291
vt 0.79203 0.79691
vt 0.78139 0.80210
vt 0.10669 0.22115
vt 0.79008 0.78973
vt 0.10593 0.22703
vt 0.09423 0.24085
vt 0.10087 0.23910
vt 0.08605 0.24362
vt 0.08045 0.23845
vt 0.30873 0.09170
vt 0.31119 0.09659
vt 0.31772 0.09257
vt 0.31785 0.08550
vt 0.30524 0.09446
vt 0.30029 0.09907
vt 0.29260 0.10008
vt 0.80142 0.31701
vt 0.79593 0.30977
vt 0.79447 0.31568
vt 0.78993 0.31095
vt 0.78914 0.32006
vt 0.78419 0.31300
vt 0.79667 0.79239
vt 0.79708 0.78678
vt 0.79422 0.80240
vt 0.79856 0.79798
vt 0.69887 0.29064
vt 0.69610 0.29640
vt 0.70441 0.29674
vt 0.69999 0.30135
vt 0.69279 0.29103
vt 0.70437 0.30117
vt 0.10910 0.22458
vt 0.11169 0.22836
vt 0.10762 0.23484
vt 0.10550 0.24321
vt 0.09936 0.24512
vt 0.09348 0.24965
vt 0.84417 0.16752
vt 0.84783 0.15990
vt 0.83793 0.15996
vt 0.85240 0.16572
vt 0.84990 0.17177
vt 0.69890 0.35021
vt 0.70524 0.34771
vt 0.69927 0.34441
vt 0.69208 0.35446
vt 0.69912 0.35864
vt 0.70415 0.35380
vt 0.69239 0.36634
vt 0.68727 0.36018
vt 0.30516 0.10103
vt 0.72786 0.83695
vt 0.73675 0.83786
vt 0.73440 0.82987
vt 0.29939 0.10679
vt 0.79594 0.32186
vt 0.78111 0.31811
vt 0.78349 0.32389
vt 0.77819 0.32269
vt 0.76344 0.37332
vt 0.76853 0.36959
vt 0.76307 0.36690
vt 0.69464 0.28526
vt 0.70472 0.28969
vt 0.70154 0.28349
vt 0.70881 0.29258
vt 0.70878 0.30231
vt 0.71224 0.29770
vt 0.71510 0.30235
vt 0.78545 0.11127
vt 0.79182 0.10634
vt 0.78727 0.10365
vt 0.79406 0.11276
vt 0.78875 0.11915
vt 0.79631 0.12137
vt 0.79021 0.12432
vt 0.78592 0.12446
vt 0.78850 0.12742
vt 0.09899 0.24861
vt 0.83254 0.15501
vt 0.83295 0.15908
vt 0.83854 0.15194
vt 0.84412 0.15409
vt 0.85142 0.15277
vt 0.85638 0.15878
vt 0.71033 0.35372
vt 0.70582 0.36087
vt 0.70021 0.36790
vt 0.68420 0.36811
vt 0.72151 0.82886
vt 0.80826 0.32801
vt 0.80060 0.32772
vt 0.79395 0.32839
vt 0.78785 0.32893
vt 0.78170 0.32920
vt 0.69609 0.27804
vt 0.70955 0.28093
vt 0.70607 0.28564
vt 0.70275 0.27408
vt 0.70872 0.28781
vt 0.71448 0.28971
vt 0.71954 0.29740
vt 0.79875 0.10578
vt 0.80280 0.11370
vt 0.72280 0.28889
vt 0.76469 0.31994
vt 0.76000 0.31151
vt 0.75628 0.31966
vt 0.71783 0.28126
vt 0.71100 0.26762
vt 0.71451 0.27560
vt 0.70204 0.26481
vt 0.69682 0.27006
vt 0.78620 0.33591
vt 0.79182 0.33538
vt 0.79806 0.33563
vt 0.80593 0.33752
vt 0.68724 0.38156
vt 0.67866 0.37623
vt 0.69540 0.37500
vt 0.67809 0.38620
vt 0.81312 0.33671
vt 0.80041 0.34238
vt 0.79508 0.34187
vt 0.79008 0.34092
vt 0.69672 0.26375
vt 0.71967 0.27169
vt 0.72594 0.27877
vt 0.76894 0.31169
vt 0.76520 0.30208
vt 0.77323 0.31836
vt 0.80553 0.12148
vt 0.77080 0.30535
vt 0.77538 0.30835
vt 0.77336 0.31325
vt 0.70695 0.25580
vt 0.69879 0.25793
vt 0.79179 0.34686
vt 0.79795 0.34813
vt 0.80478 0.34865
vt 0.81318 0.34561
vt 0.83131 0.28871
vt 0.82343 0.28944
vt 0.82832 0.29712
vt 0.68037 0.39442
vt 0.83380 0.30293
vt 0.83658 0.29702
vt 0.81083 0.35331
vt 0.80563 0.35811
vt 0.80038 0.35410
vt 0.79477 0.35424
vt 0.70054 0.25017
vt 0.70539 0.24920
vt 0.71319 0.25865
vt 0.71961 0.25970
vt 0.72759 0.26601
vt 0.76822 0.28959
vt 0.77409 0.29803
vt 0.77346 0.29031
vt 0.77998 0.30191
vt 0.78205 0.29453
vt 0.77860 0.28934
vt 0.77438 0.28417
vt 0.71448 0.25223
vt 0.70955 0.24697
vt 0.70443 0.24438
vt 0.69991 0.24409
vt 0.79970 0.35843
vt 0.61504 0.07215
vt 0.62258 0.06688
vt 0.61621 0.06482
vt 0.62000 0.06146
vt 0.62259 0.07364
vt 0.62808 0.07091
vt 0.84003 0.30328
vt 0.84392 0.29786
vt 0.84002 0.29039
vt 0.68474 0.40172
vt 0.68933 0.39496
vt 0.82572 0.23935
vt 0.82099 0.23434
vt 0.81775 0.23971
vt 0.81079 0.23632
vt 0.81563 0.23478
vt 0.83482 0.23805
vt 0.82796 0.23181
vt 0.83007 0.24360
vt 0.83535 0.23073
vt 0.84162 0.23284
vt 0.60952 0.06471
vt 0.61536 0.05929
vt 0.66775 0.83763
vt 0.67131 0.82997
vt 0.66431 0.83273
vt 0.67442 0.83775
vt 0.71600 0.24385
vt 0.72161 0.24889
vt 0.72826 0.25333
vt 0.77057 0.27710
vt 0.78223 0.28976
vt 0.78329 0.28573
vt 0.78034 0.28185
vt 0.77684 0.27716
vt 0.72671 0.24508
vt 0.77795 0.27007
vt 0.77196 0.26916
vt 0.72207 0.24213
vt 0.67963 0.83102
vt 0.68062 0.83844
vt 0.83992 0.22507
vt 0.83227 0.22639
vt 0.82430 0.22399
vt 0.82199 0.22958
vt 0.81674 0.23040
vt 0.81222 0.23201
vt 0.69340 0.38841
vt 0.69528 0.38255
vt 0.84949 0.22931
vt 0.85339 0.22515
vt 0.84671 0.22427
vt 0.69617 0.39428
vt 0.84794 0.23424
vt 0.85415 0.23215
vt 0.81902 0.22727
vt 0.11846 0.31862
vt 0.12087 0.32102
vt 0.12252 0.31819
vt 0.85065 0.23632
vt 0.83349 0.21967
vt 0.82692 0.21607
vt 0.82152 0.21727
vt 0.30081 0.06566
vt 0.30187 0.07037
vt 0.30768 0.06606
vt 0.11216 0.32379
vt 0.11759 0.32333
vt 0.11280 0.31626
vt 0.68584 0.83580
vt 0.84132 0.21735
vt 0.68428 0.84226
vt 0.69035 0.84139
vt 0.69062 0.83405
vt 0.75670 0.19330
vt 0.76239 0.18863
vt 0.75636 0.19051
vt 0.78214 0.27529
vt 0.75810 0.18518
vt 0.78575 0.28014
vt 0.75532 0.18167
vt 0.75074 0.18767
vt 0.83728 0.21385
vt 0.83572 0.20968
vt 0.83255 0.21348
vt 0.82926 0.20759
vt 0.29643 0.06928
vt 0.82106 0.21213
vt 0.29567 0.06255
vt 0.29836 0.07537
vt 0.11430 0.32948
vt 0.85335 0.23938
vt 0.86022 0.24095
vt 0.85855 0.23614
vt 0.69819 0.40119
vt 0.70276 0.39352
vt 0.70451 0.39943
vt 0.70339 0.40401
vt 0.69949 0.38707
vt 0.70102 0.37766
vt 0.70769 0.38257
vt 0.70975 0.39426
vt 0.70816 0.40180
vt 0.05830 0.21833
vt 0.05267 0.21596
vt 0.05359 0.22109
vt 0.29059 0.07325
vt 0.05661 0.21046
vt 0.29169 0.06708
vt 0.74162 0.18849
vt 0.74433 0.18323
vt 0.73921 0.18522
vt 0.73642 0.18882
vt 0.75189 0.18261
vt 0.74926 0.18196
vt 0.75515 0.17559
vt 0.75176 0.17876
vt 0.74672 0.17715
vt 0.73929 0.17899
vt 0.73416 0.18445
vt 0.73036 0.19075
vt 0.72870 0.18354
vt 0.54957 0.11691
vt 0.54830 0.12354
vt 0.55606 0.12046
vt 0.55499 0.12726
vt 0.54279 0.11594
vt 0.53671 0.12127
vt 0.53587 0.11334
vt 0.52839 0.11238
vt 0.71176 0.37172
vt 0.70642 0.37038
vt 0.72560 0.16994
vt 0.72888 0.16357
vt 0.72336 0.16303
vt 0.72707 0.15432
vt 0.72650 0.17727
vt 0.73034 0.17113
vt 0.73232 0.17789
vt 0.74232 0.17164
vt 0.73603 0.17191
vt 0.75160 0.17337
vt 0.74784 0.17054
vt 0.78531 0.28912
vt 0.75204 0.16718
vt 0.74497 0.16449
vt 0.73931 0.16672
vt 0.73441 0.16519
vt 0.73337 0.15767
vt 0.73301 0.15112
vt 0.72011 0.15428
vt 0.71162 0.36244
vt 0.72302 0.14605
vt 0.71681 0.14622
vt 0.72993 0.14558
vt 0.73873 0.15290
vt 0.73700 0.14555
vt 0.73919 0.16022
vt 0.75001 0.15981
vt 0.74471 0.15606
vt 0.74479 0.14760
vt 0.74154 0.13952
vt 0.73361 0.13864
vt 0.72710 0.13954
vt 0.73731 0.13364
vt 0.74938 0.14207
vt 0.80020 0.12811
vt 0.79252 0.12826
vt 0.75073 0.15225
vt 0.74912 0.14711
vt 0.77534 0.31382

# No. faces 440:

usemtl CaveWalls4

f 3/3/443 2/2/442 1/1/441
f 4/4/444 2/2/442 3/3/443
f 5/5/445 3/3/443 1/1/441
f 6/6/446 3/3/443 5/5/445
f 6/6/446 7/7/447 3/3/443
f 3/3/443 8/8/448 4/4/444
f 8/8/448 3/3/443 7/7/447
f 10/10/450 2/2/442 9/9/449
f 2/2/442 10/10/450 1/1/441
f 2/2/442 11/11/451 9/9/449
f 4/4/444 11/11/451 2/2/442
f 12/12/452 6/6/446 5/5/445
f 7/15/447 6/14/446 13/13/453
f 6/14/446 12/16/452 13/13/453
f 7/15/447 14/18/454 8/17/448
f 7/15/447 13/13/453 14/18/454
f 16/20/456 8/17/448 15/19/455
f 17/21/457 8/17/448 16/20/456
f 17/22/457 4/4/444 8/8/448
f 8/17/448 14/18/454 15/19/455
f 4/4/444 17/22/457 11/11/451
f 17/22/457 9/9/449 11/11/451
f 19/25/459 18/24/458 9/23/449
f 9/23/449 18/24/458 20/26/460
f 20/27/460 10/10/450 9/9/449
f 17/28/457 19/25/459 9/23/449
f 21/29/461 10/10/450 20/27/460
f 10/10/450 21/29/461 1/1/441
f 1/1/441 23/31/463 22/30/462
f 5/5/445 1/1/441 22/30/462
f 25/33/465 5/5/445 24/32/464
f 5/5/445 22/30/462 24/32/464
f 12/12/452 5/5/445 25/33/465
f 13/13/453 12/16/452 26/34/466
f 12/16/452 27/35/467 26/34/466
f 12/16/452 28/36/468 27/35/467
f 12/16/452 25/37/465 28/36/468
f 26/34/466 29/38/469 13/13/453
f 29/38/469 14/18/454 13/13/453
f 31/40/471 14/18/454 30/39/470
f 15/19/455 14/18/454 31/40/471
f 14/18/454 29/38/469 30/39/470
f 32/43/472 15/42/455 31/41/471
f 16/44/456 15/42/455 32/43/472
f 32/43/472 33/45/473 16/44/456
f 33/45/473 34/46/474 16/44/456
f 17/28/457 16/48/456 34/47/474
f 17/28/457 34/47/474 19/25/459
f 18/24/458 19/25/459 35/49/475
f 19/25/459 36/50/476 35/49/475
f 34/47/474 36/50/476 19/25/459
f 38/53/478 18/52/458 37/51/477
f 18/52/458 38/53/478 20/54/460
f 37/51/477 18/52/458 35/55/475
f 20/54/460 38/53/478 39/56/479
f 39/57/479 21/29/461 20/27/460
f 21/29/461 39/57/479 40/58/480
f 21/29/461 41/59/481 1/1/441
f 40/58/480 41/59/481 21/29/461
f 1/1/441 41/59/481 23/31/463
f 23/31/463 41/59/481 42/60/482
f 42/60/482 43/61/483 23/31/463
f 22/30/462 23/31/463 43/61/483
f 24/32/464 22/30/462 44/62/484
f 22/30/462 43/61/483 44/62/484
f 44/65/484 45/64/485 24/63/464
f 45/64/485 46/66/486 24/63/464
f 24/63/464 46/66/486 25/67/465
f 25/70/465 46/69/486 28/68/468
f 28/68/468 47/72/487 27/71/467
f 47/72/487 28/68/468 48/73/488
f 28/68/468 46/69/486 48/73/488
f 27/71/467 47/72/487 49/74/489
f 49/74/489 50/75/490 27/71/467
f 50/76/490 29/38/469 27/35/467
f 29/38/469 26/34/466 27/35/467
f 30/39/470 29/38/469 50/76/490
f 31/79/471 30/78/470 51/77/491
f 30/39/470 50/76/490 51/80/491
f 32/43/472 31/41/471 52/81/492
f 52/81/492 33/45/473 32/43/472
f 34/46/474 33/45/473 36/82/476
f 36/82/476 33/45/473 53/83/493
f 53/83/493 54/84/494 36/82/476
f 54/87/494 35/86/475 36/85/476
f 35/55/475 54/88/494 37/51/477
f 56/90/496 55/89/495 37/51/477
f 55/89/495 38/53/478 37/51/477
f 37/51/477 54/88/494 56/90/496
f 38/53/478 55/89/495 57/91/497
f 38/53/478 40/92/480 39/56/479
f 38/53/478 58/93/498 40/92/480
f 38/53/478 57/91/497 58/93/498
f 40/92/480 58/93/498 59/94/499
f 40/97/480 59/96/499 41/95/481
f 41/95/481 59/96/499 60/98/500
f 42/99/482 41/95/481 60/98/500
f 61/100/501 42/99/482 60/98/500
f 42/99/482 61/100/501 62/101/502
f 62/101/502 43/102/483 42/99/482
f 62/101/502 63/103/503 43/102/483
f 43/61/483 63/104/503 44/62/484
f 44/65/484 63/106/503 64/105/504
f 44/65/484 64/105/504 65/107/505
f 44/65/484 65/107/505 66/108/506
f 66/108/506 45/64/485 44/65/484
f 68/110/508 45/64/485 67/109/507
f 45/64/485 66/108/506 67/109/507
f 46/66/486 45/64/485 68/110/508
f 48/73/488 46/69/486 68/111/508
f 48/73/488 68/111/508 69/112/509
f 69/112/509 47/72/487 48/73/488
f 47/72/487 70/113/510 49/74/489
f 70/113/510 47/72/487 69/112/509
f 51/114/491 50/75/490 49/74/489
f 31/79/471 51/77/491 71/115/511
f 72/117/512 31/41/471 71/116/511
f 52/81/492 31/41/471 72/117/512
f 72/117/512 73/118/513 52/81/492
f 73/118/513 33/45/473 52/81/492
f 33/45/473 73/118/513 74/119/514
f 53/83/493 33/45/473 74/119/514
f 74/119/514 75/120/515 53/83/493
f 75/120/515 54/84/494 53/83/493
f 54/88/494 75/121/515 56/90/496
f 77/123/517 56/90/496 76/122/516
f 56/90/496 78/124/518 76/122/516
f 77/123/517 55/89/495 56/90/496
f 56/90/496 75/121/515 78/124/518
f 55/89/495 79/125/519 57/91/497
f 77/123/517 79/125/519 55/89/495
f 79/125/519 80/126/520 57/91/497
f 57/91/497 80/126/520 58/93/498
f 58/93/498 80/126/520 81/127/521
f 59/94/499 58/93/498 81/127/521
f 59/96/499 81/128/521 60/98/500
f 60/98/500 81/128/521 82/129/522
f 60/98/500 82/129/522 61/100/501
f 81/127/521 80/126/520 83/130/523
f 81/133/521 83/132/523 82/131/522
f 80/126/520 84/134/524 83/130/523
f 76/122/516 84/134/524 80/126/520
f 79/125/519 76/122/516 80/126/520
f 77/123/517 76/122/516 79/125/519
f 76/122/516 78/124/518 85/135/525
f 85/135/525 86/136/526 76/122/516
f 78/124/518 87/137/527 85/135/525
f 78/124/518 88/138/528 87/137/527
f 75/121/515 88/138/528 78/124/518
f 88/139/528 75/120/515 74/119/514
f 89/140/529 88/139/528 74/119/514
f 74/119/514 73/118/513 89/140/529
f 73/118/513 90/141/530 89/140/529
f 90/141/530 73/118/513 72/117/512
f 91/142/531 90/141/530 72/117/512
f 72/117/512 71/116/511 91/142/531
f 71/144/511 51/114/491 92/143/532
f 51/114/491 49/74/489 92/143/532
f 92/143/532 49/74/489 93/145/533
f 71/144/511 92/143/532 94/146/534
f 91/142/531 71/116/511 94/147/534
f 95/148/535 90/141/530 91/142/531
f 90/141/530 95/148/535 96/149/536
f 89/140/529 90/141/530 96/149/536
f 96/149/536 97/150/537 89/140/529
f 97/150/537 88/139/528 89/140/529
f 88/138/528 97/151/537 87/137/527
f 84/134/524 86/136/526 98/152/538
f 76/122/516 86/136/526 84/134/524
f 83/130/523 84/134/524 99/153/539
f 84/134/524 98/152/538 99/153/539
f 83/132/523 99/155/539 100/154/540
f 83/132/523 100/154/540 82/131/522
f 101/156/541 82/131/522 100/154/540
f 82/129/522 101/157/541 61/100/501
f 99/155/539 102/158/542 100/154/540
f 100/154/540 102/158/542 103/159/543
f 104/160/544 100/154/540 103/159/543
f 104/160/544 101/156/541 100/154/540
f 86/136/526 85/135/525 98/152/538
f 85/135/525 87/137/527 105/161/545
f 87/137/527 106/162/546 105/161/545
f 97/151/537 106/162/546 87/137/527
f 106/163/546 97/150/537 96/149/536
f 107/164/547 106/163/546 96/149/536
f 96/149/536 95/148/535 107/164/547
f 95/148/535 108/165/548 107/164/547
f 108/165/548 95/148/535 91/142/531
f 109/166/549 108/165/548 91/142/531
f 91/142/531 94/147/534 109/166/549
f 109/169/549 94/168/534 110/167/550
f 94/146/534 92/143/532 110/170/550
f 112/172/552 111/171/551 109/169/549
f 111/173/551 108/165/548 109/166/549
f 109/169/549 110/167/550 112/172/552
f 108/165/548 111/173/551 113/174/553
f 114/175/554 108/165/548 113/174/553
f 107/164/547 108/165/548 114/175/554
f 114/175/554 115/176/555 107/164/547
f 115/176/555 106/163/546 107/164/547
f 106/162/546 115/177/555 105/161/545
f 105/161/545 115/177/555 116/178/556
f 117/179/557 85/135/525 105/161/545
f 85/135/525 117/179/557 118/180/558
f 98/152/538 85/135/525 118/180/558
f 99/153/539 98/152/538 119/181/559
f 98/152/538 118/180/558 119/181/559
f 120/183/560 99/155/539 119/182/559
f 99/155/539 120/183/560 102/158/542
f 102/158/542 120/183/560 103/159/543
f 121/184/561 120/183/560 119/182/559
f 123/186/563 122/185/562 120/183/560
f 124/187/564 123/186/563 120/183/560
f 124/187/564 120/183/560 121/184/561
f 120/183/560 122/185/562 103/159/543
f 121/184/561 119/182/559 125/188/565
f 117/179/557 126/189/566 118/180/558
f 126/189/566 117/179/557 105/161/545
f 105/161/545 116/178/556 127/190/567
f 127/190/567 126/189/566 105/161/545
f 116/178/556 128/191/568 127/190/567
f 115/177/555 128/191/568 116/178/556
f 129/192/569 128/191/568 115/177/555
f 115/176/555 114/175/554 129/193/569
f 114/175/554 113/174/553 129/193/569
f 131/196/571 113/195/553 130/194/570
f 129/197/569 113/195/553 131/196/571
f 130/194/570 113/195/553 132/198/572
f 113/195/553 111/199/551 132/198/572
f 111/171/551 112/172/552 132/200/572
f 132/200/572 112/172/552 133/201/573
f 112/172/552 134/202/574 133/201/573
f 112/172/552 110/167/550 134/202/574
f 135/204/575 134/203/574 110/170/550
f 110/170/550 92/143/532 135/204/575
f 134/207/574 136/206/576 133/205/573
f 137/209/577 134/207/574 135/208/575
f 137/209/577 136/206/576 134/207/574
f 133/205/573 138/211/578 130/210/570
f 132/212/572 133/205/573 130/210/570
f 133/205/573 136/206/576 138/211/578
f 140/214/580 130/210/570 139/213/579
f 131/196/571 130/194/570 140/215/580
f 130/210/570 138/211/578 139/213/579
f 128/216/568 131/196/571 140/215/580
f 129/197/569 131/196/571 128/216/568
f 128/219/568 140/218/580 127/217/567
f 141/220/581 127/217/567 140/218/580
f 141/221/581 126/189/566 127/190/567
f 126/189/566 141/221/581 142/222/582
f 118/180/558 126/189/566 142/222/582
f 119/181/559 118/180/558 143/223/583
f 118/180/558 142/222/582 143/223/583
f 143/224/583 125/188/565 119/182/559
f 121/184/561 125/188/565 124/187/564
f 124/187/564 144/225/584 123/186/563
f 144/225/584 124/187/564 145/226/585
f 124/187/564 125/188/565 146/227/586
f 146/227/586 145/226/585 124/187/564
f 125/188/565 147/228/587 146/227/586
f 147/228/587 125/188/565 143/224/583
f 143/223/583 142/222/582 148/229/588
f 143/224/583 148/231/588 149/230/589
f 147/228/587 143/224/583 149/230/589
f 142/222/582 150/232/590 148/229/588
f 142/222/582 141/221/581 150/232/590
f 150/234/590 141/220/581 151/233/591
f 141/220/581 140/218/580 151/233/591
f 151/235/591 140/214/580 139/213/579
f 139/213/579 152/236/592 151/235/591
f 138/211/578 152/236/592 139/213/579
f 138/211/578 153/237/593 152/236/592
f 154/238/594 153/237/593 138/211/578
f 136/206/576 154/238/594 138/211/578
f 154/238/594 136/206/576 155/239/595
f 155/239/595 136/206/576 137/209/577
f 156/240/596 155/239/595 137/209/577
f 135/208/575 156/240/596 137/209/577
f 157/241/597 135/204/575 92/143/532
f 157/241/597 92/143/532 158/242/598
f 135/245/575 159/244/599 156/243/596
f 157/241/597 159/246/599 135/204/575
f 156/243/596 160/248/600 155/247/595
f 156/243/596 159/244/599 160/248/600
f 155/239/595 161/249/601 154/238/594
f 155/252/595 162/251/602 161/250/601
f 155/247/595 160/248/600 162/253/602
f 154/238/594 161/249/601 153/237/593
f 153/237/593 163/254/603 152/236/592
f 164/255/604 163/254/603 153/237/593
f 164/255/604 153/237/593 165/256/605
f 153/259/593 166/258/606 165/257/605
f 153/262/593 167/261/607 166/260/606
f 161/250/601 167/261/607 153/262/593
f 152/236/592 163/254/603 151/235/591
f 168/263/608 150/234/590 151/233/591
f 151/235/591 163/254/603 168/264/608
f 150/234/590 168/263/608 148/265/588
f 148/265/588 168/263/608 149/266/589
f 168/263/608 169/267/609 149/266/589
f 170/270/610 149/269/589 169/268/609
f 147/228/587 149/230/589 171/271/611
f 170/270/610 171/272/611 149/269/589
f 147/228/587 171/271/611 146/227/586
f 172/273/612 146/227/586 171/271/611
f 173/275/613 172/274/612 171/272/611
f 173/275/613 171/272/611 170/270/610
f 174/278/614 170/277/610 169/276/609
f 170/277/610 174/278/614 173/279/613
f 163/254/603 169/276/609 168/264/608
f 163/254/603 174/278/614 169/276/609
f 164/255/604 174/278/614 163/254/603
f 165/257/605 166/258/606 175/280/615
f 176/281/616 164/255/604 165/256/605
f 175/280/615 176/282/616 165/257/605
f 166/258/606 177/283/617 175/280/615
f 167/261/607 177/284/617 166/260/606
f 161/250/601 162/251/602 167/261/607
f 178/287/618 177/286/617 167/285/607
f 162/253/602 160/248/600 167/285/607
f 160/248/600 178/287/618 167/285/607
f 179/289/619 160/288/600 159/246/599
f 180/290/620 160/288/600 179/289/619
f 180/290/620 178/291/618 160/288/600
f 181/292/621 179/289/619 159/246/599
f 157/241/597 181/292/621 159/246/599
f 158/242/598 181/292/621 157/241/597
f 182/293/622 181/292/621 158/242/598
f 93/145/533 182/293/622 158/242/598
f 158/242/598 92/143/532 93/145/533
f 179/289/619 181/292/621 183/294/623
f 181/292/621 182/293/622 183/294/623
f 179/289/619 184/295/624 180/290/620
f 184/295/624 179/289/619 183/294/623
f 180/290/620 185/296/625 178/291/618
f 185/296/625 180/290/620 184/295/624
f 178/299/618 185/298/625 177/297/617
f 186/300/626 175/280/615 177/283/617
f 185/298/625 186/301/626 177/297/617
f 187/302/627 176/282/616 175/280/615
f 187/302/627 175/280/615 186/300/626
f 176/281/616 173/279/613 164/255/604
f 188/304/628 173/275/613 176/303/616
f 188/304/628 176/303/616 189/305/629
f 176/303/616 187/306/627 189/305/629
f 173/275/613 190/307/630 172/274/612
f 191/308/631 190/307/630 173/275/613
f 173/279/613 174/278/614 164/255/604
f 188/304/628 191/308/631 173/275/613
f 172/273/612 145/226/585 146/227/586
f 172/274/612 192/310/632 145/309/585
f 192/310/632 172/274/612 190/307/630
f 191/308/631 192/310/632 190/307/630
f 193/311/633 192/310/632 191/308/631
f 193/311/633 191/308/631 188/304/628
f 188/304/628 189/305/629 194/312/634
f 193/311/633 188/304/628 194/312/634
f 195/313/635 189/305/629 187/306/627
f 194/312/634 189/305/629 195/313/635
f 187/306/627 186/314/626 195/313/635
f 195/313/635 186/314/626 196/315/636
f 186/318/626 184/317/624 196/316/636
f 185/319/625 184/317/624 186/318/626
f 197/320/637 196/316/636 184/317/624
f 183/321/623 197/320/637 184/317/624
f 198/322/638 197/320/637 183/321/623
f 199/323/639 198/322/638 183/321/623
f 200/325/640 199/324/639 183/294/623
f 183/294/623 182/293/622 200/325/640
f 70/113/510 182/293/622 93/145/533
f 182/293/622 70/113/510 200/325/640
f 49/74/489 70/113/510 93/145/533
f 199/328/639 201/327/641 198/326/638
f 202/329/642 201/327/641 199/328/639
f 198/326/638 203/331/643 197/330/637
f 201/327/641 203/331/643 198/326/638
f 197/330/637 204/332/644 196/315/636
f 203/331/643 204/332/644 197/330/637
f 204/332/644 195/313/635 196/315/636
f 204/332/644 194/312/634 195/313/635
f 193/311/633 194/312/634 205/333/645
f 194/312/634 206/334/646 205/333/645
f 206/334/646 194/312/634 204/332/644
f 193/311/633 208/336/648 207/335/647
f 193/311/633 207/335/647 192/310/632
f 205/333/645 208/336/648 193/311/633
f 207/335/647 145/309/585 192/310/632
f 144/225/584 145/226/585 207/337/647
f 207/335/647 208/336/648 123/338/563
f 207/337/647 123/186/563 144/225/584
f 208/336/648 209/339/649 123/338/563
f 209/339/649 208/336/648 205/333/645
f 210/340/650 209/339/649 205/333/645
f 205/333/645 206/334/646 210/340/650
f 203/331/643 206/334/646 204/332/644
f 206/334/646 211/341/651 210/340/650
f 211/341/651 206/334/646 203/331/643
f 201/327/641 211/341/651 203/331/643
f 202/329/642 212/342/652 201/327/641
f 212/342/652 211/341/651 201/327/641
f 213/343/653 212/342/652 202/329/642
f 214/344/654 202/329/642 199/328/639
f 214/345/654 199/324/639 200/325/640
f 69/112/509 214/345/654 200/325/640
f 200/325/640 70/113/510 69/112/509
f 67/346/507 202/329/642 214/344/654
f 68/347/508 67/346/507 214/344/654
f 68/111/508 214/345/654 69/112/509
f 67/346/507 215/348/655 202/329/642
f 215/348/655 213/343/653 202/329/642
f 212/342/652 213/343/653 216/349/656
f 216/349/656 213/343/653 217/350/657
f 213/343/653 215/348/655 217/350/657
f 211/341/651 212/342/652 218/351/658
f 218/351/658 212/342/652 216/349/656
f 210/340/650 211/341/651 218/351/658
f 218/351/658 209/339/649 210/340/650
f 122/352/562 123/338/563 209/339/649
f 122/352/562 209/339/649 219/353/659
f 219/353/659 209/339/649 218/351/658
f 216/349/656 219/353/659 218/351/658
f 217/350/657 220/354/660 216/349/656
f 220/354/660 219/353/659 216/349/656
f 65/356/505 221/355/661 217/350/657
f 221/355/661 220/354/660 217/350/657
f 217/350/657 215/348/655 65/356/505
f 66/357/506 65/356/505 215/348/655
f 66/357/506 215/348/655 67/346/507
f 64/358/504 221/355/661 65/356/505
f 220/354/660 221/355/661 101/359/541
f 221/360/661 61/100/501 101/157/541
f 64/361/504 61/100/501 221/360/661
f 103/362/543 219/353/659 220/354/660
f 222/363/662 103/362/543 220/354/660
f 222/363/662 220/354/660 101/359/541
f 103/362/543 122/352/562 219/353/659
f 104/160/544 103/159/543 222/364/662
f 222/364/662 101/156/541 104/160/544
f 64/361/504 62/101/502 61/100/501
f 62/101/502 64/361/504 63/103/503

# End of Object "CaveWalls4_D"
