# Blender 3.6.22
# www.blender.org
mtllib objPillar_COL.mtl
o objPillar.016
v -0.073054 0.299705 0.227559
v -0.025269 2.545844 -0.200024
v 0.190400 2.544174 -0.026856
v 0.069628 2.557582 0.176852
v -0.183032 2.544175 0.072573
v 0.234817 0.299615 0.010345
v 0.145184 0.284650 -0.212675
v 0.108452 0.285645 0.225422
v -0.144416 0.141444 -0.287580
v 0.099394 0.225054 -0.253471
v 0.265113 0.221018 -0.033516
v 0.104266 2.356285 0.154885
v 0.194785 2.335226 -0.019958
v -0.084145 2.314830 0.171775
v 0.142543 2.277702 -0.136992
v -0.102011 2.323727 -0.158766
v -0.183152 2.252723 0.060526
v 0.128763 2.276223 0.144475
v -0.108488 2.240680 -0.156302
v 0.085834 2.220495 0.190643
v 0.146795 2.220362 -0.134508
v 0.047032 2.355433 -0.179296
v -0.188080 2.358102 -0.011748
v 0.018678 1.396169 -0.212817
v 0.182804 1.396408 0.094539
v -0.185463 1.396442 0.118433
v -0.030856 1.803473 -0.201352
v 0.210638 1.804049 0.049874
v -0.183200 1.804003 0.121845
v -0.231875 0.302952 -0.061022
v -0.098901 3.040485 -0.369202
v 0.094021 3.034734 -0.372312
v -0.094028 3.034795 0.372382
v -0.121294 2.581098 -0.165138
v 0.105360 2.683974 -0.199216
v 0.136870 2.574931 0.149045
v -0.197791 2.582165 0.044697
v -0.217607 2.683759 -0.047374
v -0.125725 2.789141 -0.254531
v 0.272823 2.834984 0.219832
v -0.203735 2.792147 0.202131
v -0.269730 2.791343 0.018590
v 0.113305 2.886165 -0.309599
v 0.287004 2.898691 -0.140959
v 0.085903 2.904432 0.296257
v -0.088859 2.891666 0.309187
v -0.229787 2.887839 0.212855
v -0.307285 2.886677 0.082152
v -0.331907 3.029232 -0.168918
v -0.138119 2.890581 -0.284834
v 0.334947 3.023768 -0.170764
v 0.331239 3.037138 0.168247
v 0.099683 3.041016 0.370039
v -0.334947 3.023768 0.170762
v -0.274460 2.799864 -0.059954
v -0.222263 2.861806 -0.253157
v 0.094338 2.812524 -0.273300
v 0.254309 2.792987 -0.138205
v 0.252369 2.792881 0.129593
v 0.332945 2.864322 0.059070
v 0.055803 2.801489 0.276898
v -0.335761 2.864788 0.022680
v -0.051076 2.667845 -0.219149
v 0.204151 2.667908 -0.060137
v -0.011137 2.670849 0.229611
v -0.169736 2.675888 0.148405
v 0.306903 2.890361 0.090856
v 0.221710 2.886244 0.232617
v -0.286873 2.898843 -0.139157
v -0.001794 2.846479 0.334971
v 0.180611 2.676763 0.123107
v -0.255431 3.091472 -0.350590
v 0.257530 3.088978 -0.352864
v 0.433772 3.091472 -0.000575
v 0.255431 3.091472 0.350591
v -0.254499 3.091472 0.351267
v -0.433772 3.091472 0.000576
v 0.205061 2.583726 -0.025047
v -0.181782 2.612595 -0.098262
v -0.095915 2.580541 0.176349
v 0.031424 2.621563 0.202875
v 0.073332 2.581165 -0.191137
v 0.137271 0.205598 0.255204
v 0.378031 0.110259 0.015844
v -0.282804 0.110259 0.214629
v -0.241579 0.226269 0.128507
v -0.120581 0.282386 -0.228076
v 0.179002 1.031224 -0.070766
v -0.047975 1.032170 -0.200444
v -0.173494 0.624815 -0.107191
v 0.103923 0.625396 -0.166827
v -0.061713 0.625554 0.199725
v 0.184007 0.625261 0.055522
v 0.075932 1.031693 0.195605
v -0.189516 1.031438 0.051060
v -0.341457 0.052503 0.341457
v 0.341457 0.060223 0.341457
v -0.341457 0.060223 -0.341457
v 0.341457 0.052503 -0.341457
vn -0.4689 -0.4204 -0.7768
vn 0.9388 -0.3413 0.0466
vn -0.7206 -0.3733 0.5843
vn -0.7455 0.6111 0.2660
vn 0.2654 0.6454 0.7163
vn -0.1139 0.6247 -0.7726
vn 0.7862 0.5904 -0.1828
vn 0.6782 0.7238 -0.1272
vn 0.5853 0.6949 -0.4177
vn 0.4342 0.7318 0.5253
vn 0.4439 -0.0780 -0.8927
vn 0.3964 -0.1216 0.9100
vn -0.8227 0.3763 0.4261
vn 0.3247 -0.0988 -0.9406
vn 0.7374 0.0393 -0.6743
vn -0.5545 -0.0383 -0.8313
vn -0.9888 -0.0240 -0.1475
vn -0.9453 0.0077 0.3261
vn -0.4419 -0.1574 0.8832
vn 0.4162 0.0748 0.9062
vn 0.7937 0.0780 -0.6033
vn -0.5795 0.0139 -0.8149
vn 0.9753 -0.2014 -0.0901
vn 0.7959 -0.1744 0.5797
vn 0.5466 0.0212 0.8371
vn -0.8105 -0.0773 0.5807
vn -0.1907 -0.0582 -0.9799
vn 0.0261 0.0513 -0.9983
vn -0.8569 0.0679 0.5110
vn 0.9551 -0.0683 0.2883
vn 0.8667 0.0877 0.4910
vn 0.8657 -0.4994 0.0343
vn -0.4145 0.3314 -0.8476
vn -0.2291 -0.1556 0.9609
vn 0.9346 0.0154 0.3553
vn 0.5093 0.0029 -0.8606
vn -0.3184 0.0103 0.9479
vn -0.9689 -0.1902 -0.1586
vn 0.0278 0.4932 -0.8695
vn -0.7967 0.4573 -0.3951
vn 0.7459 0.5017 0.4381
vn -0.7566 0.4292 0.4933
vn 0.7624 -0.3880 0.5178
vn 0.8976 -0.3765 0.2293
vn 0.6973 0.5464 0.4639
vn 0.4561 -0.3938 -0.7981
vn 0.2102 -0.4652 -0.8599
vn 0.8189 -0.3735 -0.4358
vn -0.0839 0.4455 -0.8913
vn 0.8035 0.4078 -0.4338
vn -0.2555 0.3790 0.8894
vn 0.4712 0.6567 -0.5888
vn -0.3618 0.7331 0.5759
vn 0.2401 -0.4707 -0.8490
vn -0.3626 -0.4302 -0.8267
vn -0.3880 -0.4129 -0.8240
vn -0.9087 -0.3736 -0.1862
vn -0.7991 -0.4172 -0.4329
vn -0.4726 0.5111 -0.7179
vn -0.8506 -0.4696 0.2365
vn -0.6718 -0.4165 0.6125
vn -0.6816 -0.4044 0.6098
vn 0.2241 -0.3356 0.9150
vn -0.2134 -0.4318 0.8764
vn 0.5927 -0.4531 0.6659
vn 0.8782 -0.4297 0.2102
vn -0.2158 -0.2991 -0.9295
vn -0.8969 -0.3874 -0.2136
vn -0.0722 -0.2792 0.9575
vn -0.7239 -0.3370 0.6021
vn 0.1708 -0.6913 0.7021
vn -0.4927 0.6325 -0.5977
vn 0.7625 0.6470 -0.0041
vn 0.4072 0.6444 0.6473
vn 0.0846 0.5989 0.7963
vn -0.7506 0.6601 -0.0314
vn 0.8458 -0.3937 -0.3599
vn -0.6772 0.7116 -0.1871
vn 0.2301 0.5378 0.8111
vn -0.8037 -0.3666 -0.4687
vn 0.6518 -0.1879 0.7348
vn 0.2728 -0.3963 0.8767
vn 0.9824 -0.1375 -0.1263
vn 0.8691 -0.3970 -0.2951
vn -0.6398 -0.1417 -0.7553
vn 0.3816 -0.2625 -0.8863
vn -0.9615 -0.1912 0.1974
vn -0.4283 -0.3154 0.8468
vn -0.9707 0.0436 0.2364
vn -0.2921 0.0554 -0.9548
vn 0.9382 0.0202 -0.3455
vn 0.3447 0.0268 0.9383
vn -0.8776 0.1005 -0.4687
vn 0.0113 0.9999 0.0113
vn -0.2809 0.6694 -0.6878
vn 0.6488 0.6997 0.2990
vn 0.0113 -0.9999 -0.0113
vn -0.0113 0.9999 -0.0113
vn -0.0113 -0.9999 0.0113
vt -0.603646 -0.020333
vt -0.214769 -0.557393
vt 0.027862 0.087262
vt 0.067210 0.767756
vt -0.089844 0.407968
vt 0.479309 0.567100
vt 0.200456 0.220473
vt 1.380314 0.303057
vt 1.474719 0.399233
vt 0.995028 0.523394
vt 1.382451 -0.303747
vt 1.508540 -0.637513
vt 1.508540 -0.341508
vt 1.508540 -0.014569
vt -0.440621 1.397307
vt -0.314532 1.156966
vt -0.314532 1.508711
vt 1.124683 1.657927
vt 1.177600 1.612949
vt 1.151247 1.874932
vt -1.583580 1.217005
vt -1.610143 1.431595
vt -1.636497 1.225386
vt -1.612536 1.000212
vt 0.925414 2.231334
vt 0.874441 2.340261
vt 0.874441 2.108237
vt -2.004498 1.052198
vt -2.055471 1.442266
vt -2.055471 1.062230
vt 0.791047 2.067711
vt 0.842020 2.020756
vt 0.816533 2.298121
vt 2.351133 -0.194819
vt 2.183006 -0.162479
vt 2.015208 -0.038447
vt -0.771552 1.121183
vt -1.073992 1.253062
vt -1.111455 0.990924
vt 1.487901 1.510678
vt 1.279975 1.175937
vt 1.545555 1.179119
vt -1.532471 0.953771
vt -1.190132 0.969148
vt -1.523457 1.191612
vt 1.768904 1.189036
vt 1.860242 1.522450
vt 1.674447 1.543319
vt -0.783550 1.458784
vt -1.113883 1.478582
vt 0.887308 0.545995
vt 0.809399 0.733197
vt 0.698887 0.722914
vt 0.772581 0.545392
vt 0.775733 0.405809
vt 0.884275 0.404404
vt 0.755969 0.688231
vt 1.030858 0.545745
vt 1.016191 0.404213
vt 1.122313 0.405809
vt 1.191738 0.727082
vt 0.982865 0.726085
vt 0.035005 0.659668
vt -0.140696 0.951189
vt -0.398961 0.949447
vt -0.140439 0.331331
vt -0.385469 0.367561
vt 1.027887 0.135857
vt 0.946986 0.029917
vt 1.057189 0.029917
vt 1.102000 0.135857
vt 1.123655 0.029917
vt 0.930227 0.135857
vt 0.826383 0.029917
vt 0.229583 0.836113
vt 0.271021 0.947149
vt 0.126141 0.617776
vt 0.647434 0.378188
vt 0.409510 0.338372
vt 0.256057 0.379872
vt 1.132855 -0.023370
vt 0.976750 0.084802
vt 1.104996 -0.382406
vt -0.825232 -1.187770
vt -1.164185 -0.831029
vt -1.734165 -1.959116
vt -1.714363 -0.796399
vt 2.685724 -0.625740
vt 2.843207 -0.615194
vt 2.860736 -0.458080
vt -1.183640 3.012029
vt -1.240089 3.009628
vt -1.238276 2.904363
vt -0.826949 -1.521239
vt -1.184733 -1.992415
vt -2.072808 -1.269570
vt -0.852261 -1.816340
vt -2.046837 -0.972474
vt 0.342629 1.121760
vt 0.210916 1.138125
vt 0.342553 0.918765
vt 0.342613 1.440306
vt 0.210958 1.410761
vt 2.979818 -0.683012
vt 3.121557 -0.574547
vt 2.979880 -0.507791
vt 2.982341 -0.897988
vt 3.121530 -0.898978
vt 2.981326 -1.107955
vt 3.121532 -1.226840
vt 0.045599 1.122831
vt 0.177304 1.279689
vt 0.045634 1.406051
vt 0.045622 0.920917
vt 0.177271 0.980012
vt 2.815101 -1.869329
vt 2.956868 -1.634458
vt 2.815336 -1.506247
vt 2.037166 -0.375568
vt 2.073714 -0.580773
vt 2.087404 -0.359116
vt 0.158570 -0.569910
vt 0.079917 -0.553293
vt 0.166533 -0.873108
vt -0.440405 0.604204
vt -0.366710 0.493217
vt -0.488810 0.784416
vt 2.038448 -0.939931
vt 2.202850 -1.030181
vt 2.045685 -0.719888
vt -0.486658 0.336753
vt -0.514326 0.215300
vt 2.214478 -0.655008
vt 2.212630 -0.552652
vt 0.019413 -2.107423
vt -0.260945 -2.123726
vt 0.225337 -1.976491
vt 0.243446 2.644507
vt 0.235651 2.379147
vt 0.312145 2.499100
vt 1.414607 2.204516
vt 1.386384 2.007945
vt 1.561492 2.035676
vt 2.967010 1.463273
vt 2.829377 1.162864
vt 2.976213 1.228970
vt 0.891979 2.556114
vt 0.921284 2.361427
vt 1.037602 2.602232
vt -1.416308 1.722548
vt -1.508041 1.993400
vt -1.719409 1.921201
vt -0.582272 2.794020
vt -0.679829 2.814146
vt -0.621283 2.707669
vt 1.802321 1.963948
vt 1.830543 2.160523
vt 1.686017 2.204837
vt 2.927652 1.560256
vt 3.065958 1.858761
vt 2.921230 1.822139
vt 1.336249 2.007698
vt 1.148560 2.104699
vt 1.190645 1.960973
vt 0.044490 2.512353
vt -0.114733 2.641488
vt -0.145872 2.450128
vt -0.811608 2.807365
vt -0.775937 2.719367
vt -0.714731 2.826252
vt -1.045546 1.722546
vt -1.137278 1.993395
vt -1.348646 1.921199
vt -0.839153 -0.963743
vt -1.450200 -2.134675
vt -2.074777 -1.598239
vt -2.059947 -1.825070
vt -1.448899 -0.654140
vt 2.956857 -2.094904
vt 2.956847 -1.901709
vt 3.121296 -0.390718
vt 0.177037 1.506475
vt 2.956688 -1.338901
vt -1.522543 1.446274
vt -1.210734 1.193103
vt -1.241955 1.398542
vt -0.168273 2.967229
vt -0.228190 2.872879
vt -0.162241 2.916737
vt 0.327699 2.303834
vt 0.320112 2.041265
vt 0.378336 1.999787
vt -0.046533 1.341997
vt -0.048795 1.474309
vt -0.112007 1.392182
vt 3.050822 2.495936
vt 3.014187 2.561383
vt 3.007550 2.494495
vt 0.049510 3.067116
vt 0.051386 3.000965
vt 0.104658 3.045954
vt 0.323065 3.077867
vt 0.348977 3.012585
vt 0.376946 3.078928
vt 1.771741 2.647491
vt 1.733780 2.582860
vt 1.786077 2.581157
vt 1.636872 2.646513
vt 1.673347 2.581960
vt 1.690784 2.648459
vt -0.270314 0.972125
vt -0.266655 1.130929
vt -0.282805 1.228026
vt 1.005052 0.890761
vt 0.940938 0.516756
vt 0.859374 0.279633
vt 0.887432 0.403149
vt 0.777803 0.279633
vt 1.126742 0.279633
vt 1.126120 0.403149
vt 1.062804 0.279633
vt 0.972288 0.279633
vt 0.874052 0.276760
vt 0.812176 0.139030
vt 0.928596 0.139030
vt 0.784719 0.276760
vt 0.755970 0.139030
vt 1.112586 0.139030
vt 1.074718 0.276760
vt 1.027887 0.139030
vt 0.969401 0.276760
vt 1.289216 0.041379
vt 1.239012 -0.514149
vt 1.365101 -0.434060
vt -0.457972 1.082365
vt -0.508176 1.440518
vt -0.584061 1.111037
vt -0.440621 1.074640
vt 1.262938 1.607194
vt 1.233982 1.857170
vt 1.210021 1.626904
vt -1.680002 1.195414
vt -1.668918 1.476225
vt -1.721835 1.472290
vt -1.668918 0.949923
vt -1.721835 0.986938
vt 0.957835 2.278994
vt 0.983337 2.068997
vt 1.008839 2.290395
vt -1.796980 1.130728
vt -1.754256 1.450943
vt -1.805259 1.409450
vt 0.925414 2.021724
vt -2.004498 1.421146
vt 1.253185 1.506708
vt 0.755969 0.029917
vt 0.814872 0.135857
vt 0.755970 0.135857
vt 1.126814 0.545393
vt -0.899969 -0.709010
vt 0.197339 0.388298
vt -0.899969 0.388298
vt 0.822507 0.704078
vt 0.631093 0.959692
vt 0.580140 0.107623
vt 1.876487 2.073270
vt 1.885895 1.979817
vt 1.899932 2.171828
vt -1.672082 1.598865
vt 1.629248 2.071088
vt -1.308789 1.617632
vt -1.842558 2.635077
vt -1.809398 2.495895
vt -1.641919 2.400150
vt -1.926928 2.065086
vt -1.905278 2.313471
vt -2.042155 2.064809
vt 2.888667 -1.032477
vt 2.911288 -0.755575
vt 2.667719 -0.922429
vt 2.427489 -0.706462
vt 2.502192 -0.681265
vt 2.446843 -0.472787
vt -2.044187 2.280781
vt 0.011744 -0.820412
vt 2.676870 -1.091153
vt 2.831307 -1.076321
vt -0.325667 0.634213
vt -0.428812 0.855443
vt 2.151043 -0.923119
vt 2.301882 -0.780240
vt 0.085753 2.526398
vt 2.813599 1.485856
vt 1.093266 2.468097
vt 0.821596 2.527783
vt 0.621273 2.480696
vt 0.780595 2.362433
vt -1.502548 1.541642
vt 0.422417 2.358541
vt 0.580108 2.476649
vt 0.381853 2.548071
vt 3.081060 1.537672
vt 1.307067 2.202458
vt -1.131786 1.541643
vt 2.425581 -1.131240
vt 2.527969 -1.036452
vt 2.449433 -0.909179
vt -1.800857 -0.277970
vt -1.709837 -0.153556
vt -1.775348 -0.012505
vt -0.044371 1.006075
vt -0.052686 1.236332
vt -0.092489 1.117825
vt -0.271435 3.078948
vt -0.288047 3.013854
vt -0.240490 3.013346
vt -0.190326 0.966558
vt -0.197636 1.108458
vt -0.537155 3.078965
vt -0.554615 3.014240
vt -0.504079 3.014132
vt 2.708632 2.501234
vt 2.738525 2.565645
vt 2.691250 2.567430
vt -0.035634 3.074549
vt -0.034102 3.009351
vt 0.016468 3.052391
vt 1.613585 2.510813
vt 1.547198 2.552185
vt 1.547863 2.477224
vt -0.883580 1.631255
vt -0.883182 1.532848
vt -0.874668 1.709499
vt -0.327811 1.428841
vt -0.367878 1.461702
vt -0.359897 1.173640
vt 2.729097 1.285525
vt 2.708511 1.482775
vt 2.705949 1.157896
vt 1.646554 0.604963
vt 0.785056 0.403149
vt 1.136099 0.276760
vt 0.218249 -0.709010
vt 1.315557 0.388298
vt 0.218249 0.388298
vt 0.197339 -0.709010
vt 1.315557 -0.709010
s 1
usemtl lambert30SG.017
f 9/1/1 84/2/2 85/3/3
f 5/4/4 4/5/5 2/6/6
f 2/6/6 4/5/5 3/7/7
f 11/8/8 7/9/9 8/10/10
f 84/11/2 10/12/11 11/13/8
f 84/11/2 11/13/8 83/14/12
f 85/15/3 83/16/12 86/17/13
f 22/18/14 15/19/15 16/20/16
f 23/21/17 16/22/16 17/23/18
f 23/21/17 17/23/18 14/24/19
f 14/25/19 17/26/18 20/27/20
f 15/28/15 20/29/20 21/30/21
f 15/31/15 21/32/21 19/33/22
f 15/34/15 13/35/23 18/36/24
f 5/37/4 23/38/17 14/39/19
f 4/40/5 14/41/19 12/42/25
f 22/43/14 2/44/6 13/45/23
f 2/46/6 22/47/14 16/48/16
f 23/38/17 2/49/6 16/50/16
f 6/63/32 7/64/9 87/65/33
f 8/66/10 6/63/32 1/67/34
f 86/75/13 1/76/34 30/77/38
f 7/78/9 10/79/11 87/80/33
f 9/81/1 87/82/33 10/83/11
f 31/84/39 49/85/40 52/86/41
f 49/85/40 54/87/42 52/86/41
f 71/88/43 59/89/44 40/90/45
f 35/91/46 57/92/47 58/93/48
f 32/94/49 52/86/41 51/95/50
f 33/96/51 52/86/41 54/87/42
f 32/94/49 51/95/50 73/97/52
f 33/96/51 54/87/42 76/98/53
f 57/99/47 43/100/54 58/101/48
f 39/102/55 50/103/56 57/99/47
f 55/104/57 69/105/58 39/106/55
f 42/107/59 48/108/60 55/104/57
f 41/109/61 47/110/62 42/107/59
f 61/111/63 46/112/64 41/113/61
f 59/114/44 68/115/65 61/111/63
f 58/116/48 67/117/66 59/118/44
f 63/119/67 38/120/68 39/121/55
f 63/122/67 39/123/55 35/124/46
f 65/125/69 61/126/63 66/127/70
f 66/128/70 41/129/61 38/130/68
f 71/131/43 40/132/45 61/126/63
f 38/120/68 42/133/59 55/134/57
f 45/135/71 46/136/64 68/137/65
f 49/138/40 50/139/56 69/140/58
f 72/141/72 31/142/39 50/143/56
f 50/144/56 32/145/49 43/146/54
f 32/147/49 73/148/52 43/149/54
f 74/150/73 52/151/41 67/152/66
f 52/153/41 68/154/65 67/155/66
f 75/156/74 53/157/75 45/158/71
f 45/159/71 33/160/51 46/161/64
f 33/162/51 47/163/62 46/164/64
f 76/165/53 54/166/42 47/167/62
f 54/168/42 48/169/60 47/170/62
f 77/171/76 49/172/40 69/173/58
f 49/85/40 31/84/39 72/174/72
f 51/95/50 52/86/41 74/175/73
f 52/86/41 53/176/75 75/177/74
f 54/87/42 49/85/40 77/178/76
f 58/116/48 43/179/54 44/180/77
f 57/99/47 50/103/56 43/100/54
f 39/106/55 69/105/58 50/181/56
f 55/104/57 48/108/60 69/105/58
f 42/107/59 47/110/62 48/108/60
f 41/113/61 46/112/64 47/182/62
f 61/111/63 68/115/65 46/112/64
f 59/118/44 67/117/66 68/183/65
f 58/116/48 44/180/77 67/117/66
f 12/184/25 3/185/7 4/186/5
f 38/187/68 62/188/78 42/189/59
f 41/190/61 70/191/79 61/192/63
f 38/193/68 63/194/67 79/195/80
f 36/196/81 71/197/43 81/198/82
f 71/199/43 78/200/83 64/201/84
f 34/202/85 63/203/67 82/204/86
f 66/205/70 37/206/87 80/207/88
f 66/208/70 80/209/88 65/210/69
f 82/211/86 64/212/84 78/213/83
f 86/214/13 83/215/12 8/10/10
f 8/10/10 83/215/12 11/8/8
f 9/232/1 85/233/3 86/234/13
f 84/235/2 9/236/1 10/237/11
f 85/15/3 84/238/2 83/16/12
f 12/239/25 14/240/19 18/241/24
f 13/242/23 12/243/25 18/244/24
f 22/245/14 13/242/23 15/246/15
f 16/247/16 15/248/15 19/249/22
f 17/250/18 16/251/16 19/252/22
f 18/253/24 14/25/19 20/27/20
f 15/28/15 18/254/24 20/29/20
f 14/41/19 4/40/5 5/255/4
f 2/44/6 3/185/7 13/45/23
f 23/38/17 5/37/4 2/49/6
s 0
f 96/260/94 99/261/94 98/262/94
s 1
f 87/80/33 86/75/13 30/77/38
f 6/263/32 8/264/10 7/78/9
f 1/76/34 86/75/13 8/264/10
f 87/82/33 9/81/1 86/265/13
f 65/266/69 71/267/43 61/268/63
f 44/269/77 74/150/73 67/152/66
f 68/270/65 75/156/74 45/158/71
f 48/271/60 77/171/76 69/173/58
f 61/272/63 40/273/45 59/274/44
f 55/275/57 56/276/95 38/277/68
f 58/278/48 60/279/96 64/280/84
f 42/281/59 62/282/78 41/283/61
f 52/86/41 32/94/49 31/84/39
f 52/86/41 33/96/51 53/176/75
f 64/280/84 59/89/44 71/88/43
f 39/284/55 38/277/68 56/276/95
f 35/124/46 39/123/55 57/285/47
f 35/286/46 58/287/48 64/280/84
f 59/89/44 64/280/84 60/279/96
f 70/288/79 66/127/70 61/126/63
f 41/289/61 66/127/70 70/288/79
f 38/130/68 41/290/61 62/291/78
f 49/138/40 72/292/72 50/139/56
f 31/293/39 32/145/49 50/144/56
f 44/294/77 43/149/54 73/148/52
f 44/295/77 73/296/52 51/297/50
f 51/298/50 74/150/73 44/269/77
f 52/299/41 75/300/74 68/301/65
f 53/302/75 33/160/51 45/159/71
f 33/162/51 76/303/53 47/163/62
f 54/304/42 77/171/76 48/271/60
f 39/305/55 56/306/95 55/307/57
f 59/308/44 60/309/96 58/310/48
f 66/311/70 38/312/68 37/313/87
f 71/314/43 36/315/81 78/316/83
f 35/317/46 64/318/84 82/211/86
f 82/319/86 63/320/67 35/321/46
f 63/322/67 34/323/85 79/324/80
f 38/325/68 79/326/80 37/327/87
f 65/328/69 80/329/88 81/330/82
f 81/331/82 71/332/43 65/333/69
f 79/334/80 34/335/85 37/336/87
f 81/337/82 80/338/88 36/339/81
f 7/9/9 11/8/8 10/340/11
s 0
f 98/343/97 97/344/97 96/345/97
s 1
f 12/184/25 13/45/23 3/185/7
s 0
f 96/260/98 97/346/98 99/261/98
f 98/343/99 99/347/99 97/344/99
s 1
usemtl pilars_lambert13SG.017
f 29/51/26 17/52/18 19/53/22
f 27/54/27 24/55/28 26/56/29
f 27/54/27 19/53/22 21/57/21
f 28/58/30 25/59/31 24/60/28
f 28/58/30 21/61/21 20/62/20
f 29/51/26 26/56/29 25/59/31
f 29/51/26 20/62/20 17/52/18
f 93/68/35 1/69/34 6/70/32
f 91/71/36 6/70/32 87/72/33
f 92/73/37 30/74/38 1/69/34
f 95/216/89 26/217/29 89/218/90
f 89/219/90 24/220/28 88/221/91
f 88/221/91 25/59/31 94/222/92
f 94/222/92 26/56/29 95/216/89
f 95/223/89 90/224/93 92/225/37
f 90/224/93 89/226/90 91/227/36
f 91/228/36 88/229/91 93/230/35
f 93/230/35 94/231/92 92/225/37
f 87/256/33 90/257/93 91/258/36
f 29/51/26 27/54/27 26/56/29
f 27/54/27 29/51/26 19/53/22
f 28/58/30 27/259/27 21/61/21
f 27/259/27 28/58/30 24/60/28
f 28/58/30 29/51/26 25/59/31
f 29/51/26 28/58/30 20/62/20
f 93/68/35 92/73/37 1/69/34
f 91/71/36 93/68/35 6/70/32
f 92/73/37 90/257/93 30/74/38
f 89/218/90 26/217/29 24/341/28
f 88/221/91 24/220/28 25/59/31
f 94/222/92 25/59/31 26/56/29
f 90/224/93 95/223/89 89/226/90
f 91/228/36 89/342/90 88/229/91
f 93/230/35 88/229/91 94/231/92
f 92/225/37 94/231/92 95/223/89
f 87/256/33 30/74/38 90/257/93
